<svg preserveAspectRatio="none" width="100%" height="100%" overflow="visible" style="display: block;" viewBox="0 0 25.0332 25.2817" fill="none" xmlns="http://www.w3.org/2000/svg">
<path id="Vector" d="M23.9791 0.237505C23.0831 0.083172 22.1758 0.00373087 21.2666 5.43781e-06C18.1645 -0.00253767 15.1272 0.886972 12.5166 2.56251C9.89927 0.908972 6.8624 0.041294 3.76659 0.0625054C2.85739 0.0662308 1.95009 0.145672 1.05409 0.300005C0.760593 0.350603 0.494811 0.504328 0.304602 0.733496C0.114392 0.962664 0.0122557 1.25222 0.0165853 1.55001V16.55C0.0139082 16.7337 0.051743 16.9157 0.127398 17.0831C0.203053 17.2504 0.314668 17.3991 0.454302 17.5184C0.593936 17.6378 0.758157 17.7249 0.93528 17.7736C1.1124 17.8222 1.29808 17.8313 1.47909 17.8C3.27036 17.4899 5.10559 17.5413 6.87667 17.9514C8.64775 18.3614 10.3189 19.1217 11.7916 20.1875L11.9416 20.275H12.0791C12.2177 20.3328 12.3664 20.3625 12.5166 20.3625C12.6668 20.3625 12.8155 20.3328 12.9541 20.275H13.0916L13.2416 20.1875C14.704 19.0979 16.3704 18.3129 18.1418 17.8792C19.9132 17.4455 21.7537 17.3718 23.5541 17.6625C23.7351 17.6938 23.9208 17.6847 24.0979 17.6361C24.275 17.5874 24.4392 17.5003 24.5789 17.3809C24.7185 17.2616 24.8301 17.1129 24.9058 16.9456C24.9814 16.7782 25.0193 16.5962 25.0166 16.4125V1.41251C25.0036 1.1277 24.8936 0.855894 24.7049 0.642178C24.5162 0.428462 24.2601 0.285676 23.9791 0.237505ZM11.2666 16.85C8.95394 15.6334 6.37973 14.9984 3.76659 15C3.35409 15 2.94159 15 2.51659 15V2.50001C2.93291 2.47601 3.35026 2.47601 3.76659 2.50001C6.43332 2.49706 9.04185 3.27962 11.2666 4.75001V16.85ZM22.5166 15.05C22.0916 15.05 21.6791 15.05 21.2666 15.05C18.6534 15.0484 16.0792 15.6834 13.7666 16.9V4.75001C15.9913 3.27962 18.5999 2.49706 21.2666 2.50001C21.6829 2.47601 22.1003 2.47601 22.5166 2.50001V15.05ZM23.9791 20.2375C23.0831 20.0832 22.1758 20.0037 21.2666 20C18.1645 19.9975 15.1272 20.887 12.5166 22.5625C9.90598 20.887 6.86863 19.9975 3.76659 20C2.85739 20.0037 1.95009 20.0832 1.05409 20.2375C0.891369 20.2633 0.735364 20.3211 0.595038 20.4074C0.454713 20.4937 0.332837 20.6069 0.236419 20.7405C0.14 20.8741 0.0709421 21.0254 0.033215 21.1858C-0.00451208 21.3462 -0.0101636 21.5124 0.0165853 21.675C0.0801086 21.9996 0.269698 22.2858 0.543823 22.4709C0.817948 22.656 1.15426 22.7249 1.47909 22.6625C3.27036 22.3524 5.10559 22.4038 6.87667 22.8139C8.64775 23.2239 10.3189 23.9842 11.7916 25.05C12.0033 25.2007 12.2567 25.2817 12.5166 25.2817C12.7765 25.2817 13.0299 25.2007 13.2416 25.05C14.7143 23.9842 16.3854 23.2239 18.1565 22.8139C19.9276 22.4038 21.7628 22.3524 23.5541 22.6625C23.8789 22.7249 24.2152 22.656 24.4893 22.4709C24.7635 22.2858 24.9531 21.9996 25.0166 21.675C25.0433 21.5124 25.0377 21.3462 25 21.1858C24.9622 21.0254 24.8932 20.8741 24.7968 20.7405C24.7003 20.6069 24.5785 20.4937 24.4381 20.4074C24.2978 20.3211 24.1418 20.2633 23.9791 20.2375V20.2375Z" fill="var(--fill-0, #3171C6)"/>
</svg>
