<svg preserveAspectRatio="none" width="100%" height="100%" overflow="visible" style="display: block;" viewBox="0 0 25 25.0004" fill="none" xmlns="http://www.w3.org/2000/svg">
<path id="Vector" d="M23.75 15H22.5V2.5H23.75C24.0815 2.5 24.3995 2.3683 24.6339 2.13388C24.8683 1.89946 25 1.58152 25 1.25C25 0.918479 24.8683 0.600537 24.6339 0.366116C24.3995 0.131696 24.0815 0 23.75 0H1.25C0.918479 0 0.600537 0.131696 0.366116 0.366116C0.131696 0.600537 0 0.918479 0 1.25C0 1.58152 0.131696 1.89946 0.366116 2.13388C0.600537 2.3683 0.918479 2.5 1.25 2.5H2.5V15H1.25C0.918479 15 0.600537 15.1317 0.366116 15.3661C0.131696 15.6005 0 15.9185 0 16.25C0 16.5815 0.131696 16.8995 0.366116 17.1339C0.600537 17.3683 0.918479 17.5 1.25 17.5H11.25V18.9375L5.5625 22.6875C5.32917 22.8319 5.14985 23.0491 5.05221 23.3056C4.95457 23.5621 4.94404 23.8435 5.02224 24.1066C5.10044 24.3696 5.26303 24.5996 5.48492 24.7611C5.7068 24.9225 5.97566 25.0065 6.25 25C6.49575 25.0028 6.7362 24.9285 6.9375 24.7875L11.25 21.9375V23.75C11.25 24.0815 11.3817 24.3995 11.6161 24.6339C11.8505 24.8683 12.1685 25 12.5 25C12.8315 25 13.1495 24.8683 13.3839 24.6339C13.6183 24.3995 13.75 24.0815 13.75 23.75V21.9375L18.0625 24.7875C18.2638 24.9285 18.5042 25.0028 18.75 25C19.0171 24.9979 19.2764 24.9104 19.4901 24.7502C19.7038 24.59 19.8606 24.3656 19.9375 24.1098C20.0143 23.8541 20.0073 23.5804 19.9173 23.3289C19.8273 23.0775 19.6592 22.8614 19.4375 22.7125L13.75 18.9625V17.5H23.75C24.0815 17.5 24.3995 17.3683 24.6339 17.1339C24.8683 16.8995 25 16.5815 25 16.25C25 15.9185 24.8683 15.6005 24.6339 15.3661C24.3995 15.1317 24.0815 15 23.75 15ZM20 15H5V2.5H20V15ZM9.5125 12.825C9.84566 13.0218 10.2255 13.1257 10.6125 13.1257C10.9995 13.1257 11.3793 13.0218 11.7125 12.825L15.4625 10.65C15.7831 10.4532 16.0479 10.1776 16.2316 9.84929C16.4152 9.52103 16.5117 9.15116 16.5117 8.775C16.5117 8.39884 16.4152 8.02897 16.2316 7.70071C16.0479 7.37245 15.7831 7.09677 15.4625 6.9L11.7125 4.725C11.3793 4.52816 10.9995 4.42433 10.6125 4.42433C10.2255 4.42433 9.84566 4.52816 9.5125 4.725C9.17679 4.91425 8.89848 5.19074 8.70704 5.52521C8.5156 5.85968 8.41815 6.23968 8.425 6.625V10.975C8.42709 11.3519 8.52878 11.7215 8.71976 12.0464C8.91075 12.3713 9.18423 12.6399 9.5125 12.825ZM10.925 7.1L13.75 8.75L10.9 10.4L10.925 7.1Z" fill="var(--fill-0, #3171C6)"/>
</svg>
