<svg preserveAspectRatio="none" width="100%" height="100%" overflow="visible" style="display: block;" viewBox="0 0 58.5464 55.191" fill="none" xmlns="http://www.w3.org/2000/svg">
<g id="Group">
<path id="Vector" d="M30.5988 4.04757L21.5954 16.6451L3.19726 22.8054H25.4583L30.5988 4.04757Z" fill="var(--fill-0, #F4F3F1)"/>
<path id="Vector_2" d="M22.5955 37.5949L28.658 28.2362C38.0913 24.8388 42.0133 23.4758 42.0133 23.4758L26.3433 23.4555L22.5955 37.5949Z" fill="var(--fill-0, #F4F3F1)"/>
<path id="Vector_3" d="M16.9879 23.4554L16.3192 24.5214H23.4973C23.0479 24.938 20.2214 24.8986 20.2214 24.8986H16.0438L15.4569 25.7667H23.2812C22.7918 26.5192 19.674 26.4594 19.674 26.4594H14.965L14.2994 27.4077H22.9103C22.3398 28.5724 18.6345 28.5135 18.6345 28.5135H13.5354L12.7881 29.5794H22.0451C21.3592 31.1774 16.8701 31.0785 16.8701 31.0785H11.729L10.6923 32.6H21.1265C20.4184 34.1983 15.946 34.0989 15.946 34.0989H9.63068L8.25981 36.0534H19.91C19.0252 38.3248 13.3388 38.2063 13.3388 38.2063H6.76759L5.06233 40.6555H18.3787C17.497 43.2036 11.791 43.0655 11.791 43.0655H3.37365L0.94421 46.5806C0.94421 46.5806 11.7124 46.5806 14.1815 46.5806C16.6537 46.5806 18.9464 46.0266 19.5558 43.973C19.8476 42.9862 22.6153 32.9935 25.2644 23.4555L16.9879 23.4554Z" fill="var(--fill-0, #F4F3F1)"/>
<path id="Vector_4" d="M31.6386 28.4735C33.3833 28.4735 34.7959 29.8931 34.7959 31.6524C34.7959 33.4289 33.3833 34.8514 31.6386 34.8514C29.874 34.8514 28.4615 33.4293 28.4615 31.6524C28.4614 29.8931 29.8739 28.4735 31.6386 28.4735Z" fill="var(--fill-0, #F4F3F1)"/>
<path id="Vector_5" d="M5.5906 27.1499V23.5152H11.5547C11.5348 23.7329 11.4959 23.9702 11.4959 24.1879C11.4959 24.5018 11.4367 24.938 11.4367 25.3144C11.4367 25.3339 11.4367 25.3339 11.4367 25.3339C11.4367 26.6942 11.6727 28.1569 12.0829 29.4999L8.78752 34.1981L7.76774 34.6336L6.39677 31.2566L8.25959 30.4873C7.92508 29.4011 7.68914 28.2754 7.55143 27.1499H5.5906ZM24.1041 11.4523C24.2223 11.432 24.3598 11.432 24.4779 11.4125L27.1466 7.69875V5.44997H23.517V7.4838C22.3987 7.59996 21.2804 7.81808 20.2214 8.13431L19.438 6.27874L16.1031 7.65935L16.87 9.51718C15.8668 10.0493 14.926 10.6827 14.0436 11.3931L12.6531 9.98987L10.0825 12.5579L11.4759 13.9582C10.7705 14.8494 10.1415 15.7968 9.59368 16.8038L7.76774 16.0514L6.39677 19.409L8.64981 20.3562L13.0043 18.8965C13.1026 18.7183 13.2011 18.5401 13.319 18.3423H13.2989C13.6138 17.8107 13.9454 17.296 14.3191 16.8236C15.0637 15.8762 15.9289 15.005 16.8868 14.2552C17.3589 13.8788 17.8701 13.5453 18.3982 13.2483C18.7916 13.0106 19.2017 12.7956 19.6344 12.6174C19.6541 12.5979 19.674 12.5979 19.6935 12.5784C19.7326 12.5784 19.7717 12.5581 19.7918 12.5382C19.8308 12.5187 19.8704 12.4991 19.9095 12.4991C19.926 12.4788 19.9492 12.4788 19.9881 12.4593C20.0274 12.4393 20.0835 12.4198 20.1231 12.4002C20.1429 12.4002 20.1623 12.3799 20.1822 12.3799C20.2212 12.3604 20.2608 12.3404 20.3195 12.3209C20.3394 12.3209 20.3594 12.3013 20.3787 12.3013C20.4179 12.281 20.4575 12.2614 20.4964 12.2614C20.5359 12.2415 20.5753 12.2218 20.6143 12.2218C20.6342 12.2015 20.6542 12.2015 20.6733 12.182C20.7324 12.182 20.7717 12.1625 20.8113 12.1425C20.8307 12.1425 20.8704 12.1229 20.8899 12.1229C20.9292 12.1027 20.9688 12.0831 21.0079 12.0831C21.0474 12.0636 21.0641 12.0636 21.0865 12.0436C21.3001 11.9842 21.5162 11.9244 21.752 11.865C22.5167 11.6501 23.3004 11.5114 24.1041 11.4523Z" fill="var(--fill-0, #F4F3F1)"/>
<path id="Vector_6" d="M21.0477 43.184C21.0477 43.184 21.8511 41.7611 24.4975 41.7611C27.1466 41.7611 37.0128 41.7611 37.0128 41.7611C37.0128 41.7611 40.8955 41.6827 43.2692 40.339C45.6626 39.0181 46.6209 37.0636 47.3286 34.7529C48.0341 32.442 55.428 5.4502 55.428 5.4502H31.2841L30.0314 10.0694H49.5646C49.5646 10.0694 49.5059 10.3464 49.3684 10.8186H29.9135L29.6776 11.6899H49.1321C49.0537 11.9842 48.9553 12.3403 48.8371 12.7163H29.3831L29.1468 13.5853H48.6038C48.486 14.0376 48.3486 14.5324 48.2109 15.0445H28.7561L28.5006 15.9157H47.9745C47.82 16.4672 47.6626 17.0614 47.4857 17.6524H28.0286L27.7955 18.5006H47.2497C47.0533 19.2105 46.8566 19.9434 46.6624 20.6727H27.1861L26.9497 21.5413H46.4268C45.0332 26.5593 43.6595 31.5144 43.4067 32.3431C42.8755 34.0798 42.1309 35.5817 40.3247 36.5884C38.5214 37.5952 35.5604 37.6744 35.5604 37.6744C35.5604 37.6744 26.9137 37.6744 24.9105 37.6744C22.8905 37.6744 22.2812 38.7412 22.2812 38.7412L21.0477 43.184Z" fill="var(--fill-0, #F4F3F1)"/>
<path id="Vector_7" d="M20.4381 45.3165C20.4381 45.3165 21.2217 43.8941 23.8709 43.8941C26.5202 43.8941 40.1506 43.8941 40.1506 43.8941C40.1506 43.8941 42.1901 43.795 44.5641 42.4715C46.9353 41.1501 48.4859 39.1933 49.1908 36.8854C49.7613 34.9704 54.9392 16.1305 56.6838 9.71282H54.9585C52.9193 17.197 48.4272 33.5083 47.8764 35.2844C47.1708 37.5952 46.25 39.5495 43.8562 40.8734C41.4854 42.2169 39.4062 42.2958 39.4062 42.2958C39.4062 42.2958 27.0483 42.2958 24.3991 42.2958C21.7525 42.2958 20.969 43.7156 20.969 43.7156L20.4381 45.3165Z" fill="var(--fill-0, #F4F3F1)"/>
<path id="Vector_8" d="M19.7328 47.5285C19.7328 47.5285 20.5164 46.1056 23.163 46.1056C25.8152 46.1056 41.328 46.1056 41.328 46.1056C41.328 46.1056 43.9943 46.0267 46.368 44.683C48.7615 43.3621 50.526 41.4053 51.231 39.0973C51.7814 37.2782 56.5658 20.0815 58.5464 12.9116H56.6053C54.4473 20.7519 50.3291 35.7992 49.801 37.4961C49.0933 39.807 47.7192 41.7612 45.3286 43.1047C42.9545 44.426 41.1312 44.505 41.1312 44.505C41.1312 44.505 26.3433 44.505 23.694 44.505C21.0477 44.505 20.2612 45.9276 20.2612 45.9276L19.7328 47.5285Z" fill="var(--fill-0, #F4F3F1)"/>
<path id="Vector_9" d="M1.9438 50.863C1.98361 50.7867 2.06222 50.6482 2.15752 50.4302C2.19947 50.3709 2.23613 50.2718 2.29545 50.1331C2.21977 49.9749 2.10113 49.7571 1.94391 49.5026C1.92429 49.4628 1.76707 49.2256 1.51139 48.7699C1.31492 48.4953 1.19944 48.2778 1.12117 48.1391C1.16041 48.1391 1.21658 48.1391 1.29519 48.1589C1.37391 48.1589 1.43256 48.1589 1.47214 48.1589C1.51139 48.1589 1.5706 48.1589 1.6491 48.1589C1.72771 48.1391 1.78703 48.1391 1.82605 48.1391C1.86507 48.2185 1.94368 48.3369 2.04214 48.5352C2.06222 48.5747 2.17996 48.7501 2.35398 49.0668C2.49192 49.2848 2.57064 49.4232 2.59004 49.4826C2.64925 49.3835 2.7671 49.1657 2.90492 48.849C2.98376 48.6736 3.10128 48.4358 3.23639 48.1391L3.41323 48.1589L3.60959 48.1391C3.53109 48.2778 3.3935 48.5551 3.19726 48.9479C3.00293 49.3242 2.8262 49.6804 2.64925 50.0144C2.45278 50.4302 2.33436 50.7075 2.27549 50.863C2.2588 50.863 2.23624 50.863 2.19947 50.863C2.15752 50.843 2.12098 50.843 2.10124 50.843L1.9438 50.863Z" fill="var(--fill-0, #F4F3F1)"/>
<path id="Vector_10" d="M5.23669 50.863V48.1395C5.27571 48.1395 5.31519 48.1394 5.37699 48.159C5.45549 48.159 5.49214 48.159 5.53432 48.159C5.57109 48.159 5.61023 48.159 5.66932 48.159C5.74816 48.1394 5.78707 48.1395 5.82677 48.1395V49.2256C5.9056 49.2256 6.02323 49.2256 6.18079 49.2256C6.31816 49.2256 6.39699 49.2452 6.43647 49.2452C6.53199 49.2452 6.59098 49.2452 6.65008 49.2256C6.88602 49.2256 7.02372 49.2256 7.04312 49.2256V48.1395C7.06274 48.1395 7.12195 48.1394 7.18117 48.159C7.25977 48.159 7.2988 48.159 7.33861 48.159C7.35801 48.159 7.41722 48.159 7.47305 48.159C7.55165 48.1394 7.59147 48.1395 7.63038 48.1395V50.863C7.59147 50.863 7.55177 50.863 7.49301 50.863C7.41733 50.843 7.37774 50.843 7.33861 50.843C7.29868 50.843 7.25977 50.843 7.18117 50.863C7.12207 50.863 7.08248 50.863 7.04312 50.863V49.5419C6.96451 49.5419 6.84665 49.5419 6.68921 49.5221C6.53188 49.5221 6.43647 49.5221 6.43647 49.5221C6.33541 49.5221 6.23966 49.5221 6.1218 49.5221C6.00395 49.5221 5.9056 49.5419 5.82688 49.5419V50.863C5.80692 50.863 5.7485 50.863 5.68906 50.863C5.61045 50.843 5.57132 50.843 5.53455 50.843C5.49248 50.843 5.45594 50.843 5.39391 50.863C5.3153 50.863 5.27571 50.863 5.23669 50.863Z" fill="var(--fill-0, #F4F3F1)"/>
<path id="Vector_11" d="M9.51541 50.863V48.1395C9.55477 48.1395 9.61094 48.1395 9.67004 48.1395C9.7288 48.159 9.78778 48.159 9.82714 48.159C9.84654 48.159 9.90564 48.159 9.96496 48.1395C10.0241 48.1395 10.0827 48.1395 10.1224 48.1395V49.995C10.3385 49.7572 10.5912 49.4629 10.906 49.0869C11.1811 48.7109 11.4174 48.3965 11.6114 48.1395C11.6506 48.1395 11.69 48.1395 11.7124 48.1395C11.729 48.1395 11.7688 48.1395 11.8078 48.1395C11.8667 48.1395 11.8867 48.1395 11.9061 48.1395V50.863C11.8867 50.863 11.8274 50.863 11.7688 50.863C11.7124 50.843 11.6505 50.843 11.6114 50.843C11.5943 50.843 11.535 50.843 11.4764 50.863C11.4175 50.863 11.3582 50.863 11.319 50.863V48.9874C11.1029 49.2452 10.8273 49.5621 10.552 49.9155C10.2597 50.272 10.0241 50.5886 9.82714 50.863C9.8074 50.863 9.78778 50.863 9.74831 50.863C9.72868 50.863 9.70917 50.863 9.70917 50.863C9.67004 50.863 9.65007 50.863 9.61094 50.863C9.57135 50.863 9.55455 50.863 9.51541 50.863Z" fill="var(--fill-0, #F4F3F1)"/>
<path id="Vector_12" d="M14.7125 49.285C14.7687 49.285 14.8078 49.245 14.8669 49.2056C14.9065 49.1657 14.9458 49.1063 14.9853 49.0272C15.005 48.9482 15.0245 48.8688 15.0245 48.7898C15.0245 48.6544 14.9853 48.5555 14.9065 48.4758C14.8669 48.4166 14.7912 48.3769 14.7125 48.3769V48.1393H14.8279C15.044 48.1393 15.2408 48.1788 15.3782 48.2578C15.5356 48.3769 15.6142 48.5352 15.6142 48.7503C15.6142 48.9281 15.5552 49.0668 15.4177 49.1857C15.2995 49.285 15.1426 49.3442 14.965 49.3835V49.4037C15.1621 49.4432 15.2994 49.4826 15.4373 49.5622C15.5947 49.6806 15.6734 49.8563 15.6734 50.0738C15.6734 50.3316 15.5748 50.5294 15.3782 50.6679C15.2014 50.7868 14.9853 50.8431 14.7125 50.8431V50.6085C14.7911 50.5887 14.8474 50.5489 14.9262 50.4699C15.0244 50.3905 15.0641 50.2521 15.0641 50.0936C15.0641 49.8956 15.0051 49.7372 14.8867 49.6582C14.8476 49.6212 14.7912 49.6015 14.7127 49.5815V49.285H14.7125ZM14.398 48.3769L14.5944 48.3567C14.6336 48.3567 14.6734 48.3567 14.7125 48.3769V48.1393H13.808V50.8432H14.7124V50.6086C14.6732 50.6086 14.6336 50.6284 14.5944 50.6284H14.398V49.5422C14.5158 49.5422 14.6336 49.5624 14.7125 49.5819V49.2855C14.6733 49.305 14.5945 49.305 14.5158 49.305H14.398V48.3769Z" fill="var(--fill-0, #F4F3F1)"/>
<path id="Vector_13" d="M17.3982 48.1395H18.9068C18.9068 48.179 18.8901 48.1988 18.8901 48.2383C18.8901 48.2579 18.8901 48.2975 18.8901 48.3175C18.8901 48.3372 18.8901 48.3568 18.8901 48.3964C18.8901 48.4359 18.9068 48.4562 18.9068 48.4758C18.7721 48.4562 18.6343 48.4562 18.4768 48.4358C18.339 48.4358 18.1823 48.4358 17.9852 48.4358V49.2848H18.3982C18.4768 49.2848 18.5362 49.2848 18.6148 49.2848C18.6735 49.265 18.7721 49.265 18.8899 49.245C18.8899 49.265 18.8899 49.2848 18.8673 49.3242C18.8673 49.3639 18.8673 49.4033 18.8673 49.4231C18.8673 49.4426 18.8673 49.4628 18.8673 49.5022C18.8899 49.5415 18.8899 49.5616 18.8899 49.5811C18.7324 49.5616 18.5752 49.5616 18.3983 49.5616H17.9852V50.5684C18.1823 50.5684 18.3391 50.5482 18.4768 50.5482C18.6343 50.5482 18.772 50.5287 18.9068 50.5092C18.9068 50.5287 18.8901 50.5683 18.8901 50.5881C18.8901 50.6276 18.8901 50.6474 18.8901 50.687C18.8901 50.687 18.8901 50.7265 18.8901 50.7635C18.8901 50.8026 18.9068 50.8227 18.9068 50.8424H17.3982V48.1395Z" fill="var(--fill-0, #F4F3F1)"/>
<path id="Vector_14" d="M21.5165 48.1395H21.5954C22.1628 48.1395 22.4381 48.3568 22.4381 48.8098C22.4381 49.1463 22.3203 49.364 22.1066 49.5027C21.9665 49.5816 21.7722 49.6406 21.5168 49.6584V49.4038C21.6153 49.364 21.6937 49.3047 21.7528 49.226C21.7927 49.1271 21.8317 49.0273 21.8317 48.8888C21.8317 48.7305 21.7926 48.5948 21.7138 48.4954C21.6742 48.4363 21.5956 48.377 21.5168 48.3568L21.5165 48.1395ZM21.2218 49.6805C21.3201 49.6805 21.4183 49.6805 21.5165 49.6584V49.4038C21.4969 49.4235 21.4969 49.4235 21.4775 49.4235C21.3987 49.4431 21.3006 49.4431 21.2217 49.4431V48.3571H21.4579C21.4775 48.3571 21.4969 48.3571 21.5165 48.3571V48.1395L20.6146 48.1396V50.8633C20.6545 50.8633 20.6935 50.8633 20.7721 50.8633C20.8309 50.8433 20.8903 50.8433 20.9295 50.8433C20.9495 50.8433 21.0083 50.8433 21.0645 50.8633C21.1431 50.8633 21.1823 50.8633 21.222 50.8633L21.2218 49.6805Z" fill="var(--fill-0, #F4F3F1)"/>
<path id="Vector_15" d="M26.1073 50.3904L26.1467 50.4104L26.0682 50.7473C25.9499 50.8033 25.8151 50.8433 25.6973 50.8825C25.5593 50.9025 25.419 50.9225 25.2813 50.9225C24.8515 50.9225 24.4976 50.8033 24.2223 50.5488C23.9302 50.3112 23.7923 49.975 23.7923 49.5816C23.7923 49.0869 23.9496 48.7109 24.2615 48.4359C24.5365 48.1988 24.9106 48.06 25.3598 48.06C25.4976 48.06 25.6349 48.08 25.7924 48.1194C25.9303 48.1589 26.0481 48.1985 26.1662 48.2578L26.0877 48.6736H26.0285C25.9499 48.5747 25.8546 48.4758 25.7362 48.416C25.6183 48.3369 25.4976 48.2972 25.3598 48.2972C25.0678 48.2972 24.832 48.4358 24.6549 48.6901C24.5171 48.9279 24.4579 49.1853 24.4579 49.522C24.4579 49.8757 24.5365 50.153 24.6939 50.3707C24.8514 50.5688 25.0845 50.6876 25.3794 50.6876C25.5173 50.6876 25.635 50.6479 25.7758 50.6083C25.8936 50.5487 26.0091 50.47 26.1073 50.3904Z" fill="var(--fill-0, #F4F3F1)"/>
<path id="Vector_16" d="M27.8713 50.863V48.1395C27.9109 48.1395 27.9502 48.1395 28.0288 48.1395C28.0879 48.159 28.1467 48.159 28.1663 48.159C28.2061 48.159 28.265 48.159 28.3237 48.1395C28.3826 48.1395 28.4421 48.1395 28.4812 48.1395V49.995C28.6976 49.7572 28.9504 49.4629 29.2453 49.0869C29.5404 48.7109 29.776 48.3965 29.9697 48.1395C30.0089 48.1395 30.0482 48.1395 30.0679 48.1395C30.0875 48.1395 30.127 48.1395 30.166 48.1395C30.2252 48.1395 30.2447 48.1395 30.2642 48.1395V50.863C30.2447 50.863 30.1857 50.863 30.127 50.863C30.0679 50.843 30.0087 50.843 29.9695 50.843C29.9524 50.843 29.8909 50.843 29.8347 50.863C29.7759 50.863 29.7171 50.863 29.6774 50.863V48.9874C29.4615 49.2452 29.1862 49.5621 28.9106 49.9155C28.6186 50.272 28.3824 50.5886 28.1659 50.863C28.1659 50.863 28.1269 50.863 28.1073 50.863C28.0876 50.863 28.0676 50.863 28.0676 50.863C28.0283 50.863 27.989 50.863 27.9694 50.863C27.933 50.863 27.9108 50.863 27.8713 50.863Z" fill="var(--fill-0, #F4F3F1)"/>
<path id="Vector_17" d="M33.2259 48.4166V50.8632C33.2063 50.8632 33.1472 50.8632 33.0685 50.8632C32.9726 50.8432 32.9335 50.8432 32.9335 50.8432C32.9139 50.8432 32.855 50.8432 32.7956 50.8632C32.7169 50.8632 32.6779 50.8632 32.6385 50.8632V48.4166C32.5006 48.4166 32.3827 48.4361 32.2648 48.4361C32.1665 48.4566 32.0487 48.4566 31.9138 48.4761C31.9138 48.4361 31.9138 48.4167 31.9138 48.3772C31.9335 48.357 31.9335 48.3372 31.9335 48.2978C31.9335 48.2781 31.9138 48.2387 31.9138 48.2189C31.9138 48.1792 31.9138 48.1593 31.9138 48.1398H33.9336C33.9336 48.1992 33.9336 48.2582 33.914 48.298C33.914 48.3377 33.914 48.3571 33.9336 48.3969C33.9336 48.4171 33.9336 48.4567 33.9336 48.4762C33.757 48.4567 33.6383 48.4363 33.5993 48.4363C33.4816 48.4359 33.3436 48.4166 33.2259 48.4166Z" fill="var(--fill-0, #F4F3F1)"/>
<path id="Vector_18" d="M35.5404 48.1395H37.052C37.0322 48.179 37.0322 48.1988 37.0322 48.2383C37.0322 48.2579 37.0322 48.2975 37.0322 48.3175C37.0322 48.3372 37.0322 48.3568 37.0322 48.3964C37.0322 48.4359 37.052 48.4562 37.052 48.4758C36.9142 48.4562 36.7768 48.4562 36.6193 48.4358C36.4814 48.4358 36.3274 48.4358 36.1303 48.4358V49.2848H36.5407C36.6193 49.2848 36.6784 49.2848 36.7572 49.2848C36.816 49.265 36.9144 49.265 37.0322 49.245C37.0322 49.265 37.0126 49.2848 37.0126 49.3242C37.0126 49.3639 37.0126 49.4033 37.0126 49.4231C37.0126 49.4426 37.0126 49.4628 37.0126 49.5022C37.0126 49.5415 37.0322 49.5616 37.0322 49.5811C36.8747 49.5616 36.7175 49.5616 36.5407 49.5616H36.1303V50.5684C36.3274 50.5684 36.4814 50.5482 36.6193 50.5482C36.7767 50.5482 36.9142 50.5287 37.052 50.5092C37.0322 50.5287 37.0322 50.5683 37.0322 50.5881C37.0322 50.6276 37.0322 50.6474 37.0322 50.687C37.0322 50.687 37.0322 50.7265 37.0322 50.7635C37.0322 50.8026 37.052 50.8227 37.052 50.8424H35.5404V48.1395Z" fill="var(--fill-0, #F4F3F1)"/>
<path id="Vector_19" d="M39.836 48.4166V50.8632C39.7968 50.8632 39.7378 50.8632 39.6593 50.8632C39.5805 50.8432 39.5411 50.8432 39.5411 50.8432C39.5014 50.8432 39.4454 50.8432 39.3837 50.8632C39.3275 50.8632 39.2684 50.8632 39.2294 50.8632V48.4166C39.0919 48.4166 38.9736 48.4361 38.8751 48.4361C38.757 48.4566 38.6391 48.4566 38.5014 48.4761C38.5014 48.4361 38.5014 48.4167 38.5215 48.3772C38.5215 48.357 38.5215 48.3372 38.5215 48.2978C38.5215 48.2781 38.5215 48.2387 38.5215 48.2189C38.5014 48.1792 38.5014 48.1593 38.5014 48.1398H40.5413C40.5218 48.1992 40.5218 48.2582 40.5019 48.298C40.5019 48.3377 40.5218 48.3571 40.5218 48.3969C40.5218 48.4171 40.5218 48.4567 40.5413 48.4762C40.3471 48.4567 40.2294 48.4363 40.19 48.4363C40.0719 48.4359 39.9541 48.4166 39.836 48.4166Z" fill="var(--fill-0, #F4F3F1)"/>
<path id="Vector_20" d="M6.2003 37.1428L4.06207 38.2849C4.04256 38.2654 4.02293 38.2259 4.00331 38.1691C3.98346 38.1097 3.98346 38.0704 3.96429 38.0302C3.94432 38.0107 3.9247 37.9712 3.88545 37.9316C3.84609 37.8722 3.82658 37.8522 3.80684 37.8127L5.27583 37.0239C5.00357 36.9645 4.64977 36.885 4.21703 36.7861C3.82647 36.727 3.47222 36.667 3.18023 36.628C3.1606 36.5878 3.14098 36.5681 3.14098 36.5286C3.1209 36.5286 3.1209 36.4889 3.10128 36.4692C3.08165 36.4292 3.06226 36.3898 3.06226 36.3898L5.19711 35.2246C5.21966 35.2646 5.2368 35.304 5.25902 35.344C5.27571 35.403 5.2985 35.4429 5.3153 35.4824C5.33786 35.5024 5.35466 35.5418 5.3771 35.5815C5.41353 35.6406 5.43338 35.68 5.4556 35.6999L3.96417 36.4892C4.2785 36.5681 4.63015 36.6476 5.04259 36.727C5.43338 36.8059 5.78718 36.8656 6.08244 36.905C6.08244 36.9245 6.10207 36.9445 6.10207 36.9445C6.12169 36.9645 6.12169 36.984 6.14132 37.0039C6.14132 37.0239 6.16071 37.0439 6.1809 37.0633C6.18056 37.0829 6.2003 37.1228 6.2003 37.1428Z" fill="var(--fill-0, #F4F3F1)"/>
<path id="Vector_21" d="M4.45263 33.5873C4.49222 33.6862 4.53124 33.7656 4.57083 33.8416L3.53109 34.2577L4.84613 34.5346L4.96387 34.8318L5.08207 35.0861L5.04237 35.1056L3.3935 34.7129C3.31477 34.8513 3.23616 35.0267 3.16038 35.205C3.02256 35.4623 2.92432 35.7197 2.8262 35.9375H2.80647C2.80647 35.9175 2.7865 35.8781 2.7865 35.8586C2.76699 35.8186 2.76699 35.7987 2.74737 35.7588C2.72774 35.6997 2.70789 35.6403 2.66876 35.6008C2.7865 35.3828 2.90492 35.185 3.02278 34.9698C3.1209 34.7723 3.2365 34.554 3.35414 34.3367L2.31496 34.7521C2.31496 34.6734 2.27526 34.5736 2.23613 34.4948C2.21966 34.4156 2.17996 34.3366 2.12086 34.2572L3.1606 33.8412C2.94417 33.7651 2.66898 33.6857 2.31507 33.5664C2.14094 33.5274 1.96387 33.468 1.78703 33.4085C1.78703 33.3491 1.76684 33.2894 1.74722 33.2304C1.72771 33.2102 1.70797 33.171 1.68812 33.1513C1.68812 33.1115 1.66861 33.0917 1.64898 33.0526H1.6685C1.84534 33.1315 2.00289 33.1906 2.15729 33.2699C2.27504 33.3097 2.43248 33.3688 2.62917 33.4285C2.74737 33.468 2.8456 33.5074 2.92444 33.5469L3.82635 32.1045L3.86538 32.0848L3.96406 32.3617L4.10154 32.6391L3.33451 33.7648L4.37368 33.349C4.39669 33.3685 4.39669 33.4081 4.43289 33.4874C4.45263 33.5474 4.45263 33.5873 4.45263 33.5873Z" fill="var(--fill-0, #F4F3F1)"/>
<path id="Vector_22" d="M1.51128 32.6595L1.13774 31.3359C1.17688 31.3359 1.19932 31.3359 1.21635 31.3359C1.25571 31.3359 1.27511 31.3159 1.29496 31.3159C1.3147 31.3159 1.3341 31.3159 1.37368 31.2964C1.39331 31.2764 1.41293 31.2764 1.43233 31.2564C1.45229 31.3755 1.47203 31.514 1.51117 31.6327C1.53113 31.7711 1.57038 31.9068 1.60974 32.0655L2.35387 31.8505L2.25846 31.4939C2.23601 31.4345 2.21955 31.3754 2.19936 31.3158C2.17996 31.2564 2.14071 31.177 2.10113 31.0781C2.12086 31.0781 2.14083 31.0781 2.17996 31.0781C2.19936 31.0781 2.23613 31.0585 2.23613 31.0585C2.25857 31.0585 2.27538 31.0383 2.31496 31.0383C2.35398 31.0188 2.37395 30.9983 2.39357 30.9983C2.41308 31.1372 2.43271 31.276 2.47207 31.4341L2.58981 31.7908L3.45214 31.533C3.39338 31.3751 3.35391 31.2366 3.31466 31.1177C3.25568 30.9983 3.21632 30.8799 3.18 30.764C3.19714 30.764 3.21632 30.764 3.25568 30.744C3.2753 30.744 3.2947 30.744 3.31466 30.744C3.33451 30.7245 3.35391 30.7245 3.39338 30.7049C3.41312 30.7049 3.45214 30.6845 3.45214 30.6845L3.84575 31.9859L1.51128 32.6595Z" fill="var(--fill-0, #F4F3F1)"/>
<path id="Vector_23" d="M2.53083 30.5271V29.992L3.02267 29.8736L2.98353 29.6953C2.96391 29.5992 2.9047 29.4999 2.78639 29.4412C2.72763 29.401 2.62895 29.3618 2.5306 29.3818V28.8471C2.64902 28.8671 2.76688 28.9067 2.865 29.0056C3.00282 29.124 3.10105 29.3021 3.16026 29.5401L3.3344 30.3491L2.53083 30.5271ZM1.45241 30.2298V30.7815L2.53083 30.5271V29.992L2.08173 30.0909C2.04226 29.8931 2.04226 29.7351 2.08173 29.6387C2.14094 29.5203 2.25868 29.4412 2.43293 29.3815C2.47241 29.3815 2.51154 29.3815 2.53105 29.3815V28.8468C2.45301 28.8272 2.37417 28.8272 2.29556 28.8468C2.10124 28.9064 1.96398 29.0053 1.90477 29.1837C1.8653 29.3021 1.84579 29.4412 1.8653 29.6162H1.82628C1.76707 29.4607 1.68823 29.3423 1.5706 29.2629C1.53124 29.2429 1.49177 29.2229 1.45252 29.2035V29.6788C1.47226 29.6788 1.49188 29.6788 1.53135 29.6788C1.59011 29.6788 1.64921 29.7154 1.7082 29.7356C1.74744 29.7751 1.78703 29.8145 1.80643 29.854C1.82628 29.8935 1.84568 29.9529 1.86519 30.0323L1.88526 30.1312L1.45241 30.2298ZM1.08147 30.3289L1.45241 30.2298V30.7815L0.983346 30.8804L0.786879 29.992C0.74718 29.7942 0.74718 29.616 0.786879 29.4999C0.845526 29.3223 0.963609 29.2229 1.16041 29.1837C1.25594 29.1634 1.35406 29.1634 1.45263 29.2032V29.6787C1.41316 29.6787 1.35406 29.6787 1.31492 29.6787C1.19955 29.715 1.1012 29.775 1.05914 29.8539C1.00297 29.9333 1.00297 30.0322 1.02293 30.1511L1.08147 30.3289Z" fill="var(--fill-0, #F4F3F1)"/>
<path id="Vector_24" d="M2.27526 26.4992L2.29534 26.4594L2.60966 26.4992C2.66876 26.5986 2.70801 26.6943 2.74748 26.8135C2.78662 26.9319 2.82632 27.0507 2.84571 27.1696C2.8853 27.566 2.82632 27.8999 2.62929 28.1764C2.45289 28.4536 2.18008 28.6093 1.80632 28.649C1.37391 28.7081 1.02282 28.609 0.747067 28.3746C0.511015 28.1369 0.353684 27.8204 0.314436 27.4076C0.294812 27.2884 0.294812 27.1695 0.314436 27.0307C0.314436 26.8928 0.353797 26.7735 0.393271 26.6746L0.766917 26.7142V26.7536C0.688308 26.8329 0.609474 26.9318 0.570225 27.0506C0.530865 27.1498 0.51124 27.2687 0.51124 27.3875C0.550939 27.6646 0.688308 27.8595 0.944323 27.9786C1.16041 28.0773 1.41316 28.117 1.68835 28.0773C2.00323 28.0378 2.23624 27.9384 2.41342 27.7607C2.57086 27.5853 2.64947 27.3675 2.60989 27.11C2.60989 26.9915 2.57075 26.8926 2.49203 26.7734C2.43271 26.6748 2.35399 26.5757 2.27526 26.4992Z" fill="var(--fill-0, #F4F3F1)"/>
<path id="Vector_25" d="M2.62917 26.0638H0.196692C0.196692 26.0244 0.196691 25.9844 0.219248 25.925C0.219248 25.866 0.219248 25.8261 0.219248 25.7866C0.219248 25.7666 0.219248 25.7077 0.219248 25.6478C0.196691 25.5885 0.196692 25.5489 0.196692 25.5294H1.31481C0.963609 25.2151 0.589737 24.8986 0.196692 24.6007C0.196692 24.5812 0.219248 24.5413 0.219248 24.5018C0.219248 24.4424 0.219248 24.4226 0.219248 24.4029C0.219248 24.3826 0.219248 24.3462 0.219248 24.3063C0.219248 24.2868 0.196692 24.2473 0.196692 24.2074H0.236052C0.353797 24.3462 0.491616 24.462 0.609586 24.6006C0.688421 24.68 0.806391 24.7796 0.963834 24.918C1.05936 25.0169 1.13797 25.0762 1.21669 25.136L2.59038 24.1479H2.62962L2.61 24.4422L2.62962 24.7397L1.51162 25.5293H2.62962C2.62962 25.5488 2.62962 25.5883 2.62962 25.6477C2.61 25.7075 2.61 25.7665 2.61 25.7865C2.61 25.826 2.61 25.8658 2.62962 25.9249C2.62917 25.9844 2.62917 26.0244 2.62917 26.0638Z" fill="var(--fill-0, #F4F3F1)"/>
<path id="Vector_26" d="M2.59004 23.9897L0.179662 23.7329C0.179662 23.7134 0.179662 23.6536 0.196692 23.6141C0.219248 23.5547 0.219248 23.4954 0.219248 23.4758C0.235939 23.4359 0.235939 23.3965 0.219248 23.3371C0.219248 23.2803 0.219248 23.2409 0.219248 23.2009L1.88515 23.3761C1.68823 23.1615 1.43256 22.9042 1.13786 22.5873C0.845413 22.2934 0.589962 22.0557 0.353909 21.8575C0.373872 21.8181 0.373872 21.7782 0.373872 21.7586C0.373872 21.7386 0.373872 21.719 0.373872 21.6796C0.393496 21.6397 0.393496 21.6003 0.393496 21.5803L2.80658 21.8375C2.80658 21.8773 2.80658 21.9168 2.78662 21.9762C2.78662 22.0359 2.76711 22.0755 2.76711 22.1145C2.76711 22.1348 2.76711 22.1744 2.76711 22.2337C2.76711 22.2931 2.7671 22.3522 2.74748 22.3725L1.10109 22.1939C1.29507 22.4288 1.55075 22.686 1.84556 22.9835C2.14083 23.2801 2.39357 23.5151 2.60966 23.7328C2.60966 23.7328 2.60966 23.7528 2.60966 23.7723C2.60966 23.8121 2.60966 23.8121 2.60966 23.8317C2.60966 23.8517 2.58992 23.8911 2.58992 23.911C2.59004 23.9308 2.59004 23.9702 2.59004 23.9897Z" fill="var(--fill-0, #F4F3F1)"/>
<path id="Vector_27" d="M2.86523 21.3658L0.629323 20.8111V20.2768C0.629323 20.2565 0.629323 20.2565 0.648722 20.2565L2.25846 20.6527C2.10101 20.4147 1.88481 20.1211 1.62936 19.7647C1.37368 19.4478 1.16008 19.1706 0.963496 18.936C0.963496 18.8962 0.983233 18.8767 0.983233 18.8567C1.00286 18.8371 1.00286 18.7973 1.00286 18.7578C1.02282 18.7178 1.02282 18.6984 1.02282 18.6784L3.37376 19.2694C3.37376 19.2893 3.35413 19.3291 3.35413 19.3882C3.33474 19.4477 3.31489 19.4875 3.29492 19.527C3.29492 19.5466 3.29492 19.5861 3.27553 19.6458C3.27553 19.7052 3.2559 19.7646 3.2559 19.7841L1.62959 19.3686C1.80632 19.6258 2.02263 19.9232 2.27538 20.2562C2.51154 20.5931 2.74771 20.8703 2.92466 21.1075C2.92466 21.1279 2.92466 21.1475 2.92466 21.1673C2.90504 21.1869 2.90504 21.1869 2.90504 21.2073C2.90504 21.2268 2.88541 21.2663 2.88541 21.2862C2.88519 21.3063 2.86523 21.3428 2.86523 21.3658ZM0.629323 19.9625C0.668458 19.8836 0.708157 19.8042 0.727556 19.7248C0.766917 19.5664 0.766917 19.3883 0.74718 19.2303C0.727556 19.1143 0.688308 18.9951 0.629323 18.8765V19.9625ZM0.629323 20.8111V20.2768C0.629323 20.2963 0.629323 20.3359 0.609361 20.3952C0.609361 20.4546 0.60936 20.4941 0.589736 20.5144C0.589736 20.5535 0.570113 20.5934 0.550714 20.6527C0.530865 20.7122 0.511015 20.7516 0.511015 20.7716L0.629323 20.8111ZM0.629323 18.8767C0.609361 18.8371 0.589737 18.7773 0.570226 18.7384L0.353797 18.8373C0.530864 19.1144 0.570225 19.3884 0.51124 19.646C0.471992 19.7843 0.412782 19.9032 0.334173 20.0025C0.236165 20.1212 0.140639 20.2171 0 20.2964L0.15733 20.4747C0.29515 20.3953 0.432406 20.2769 0.53109 20.1604C0.570451 20.1014 0.609586 20.042 0.629548 19.9626L0.629323 18.8767Z" fill="var(--fill-0, #F4F3F1)"/>
<path id="Vector_28" d="M2.14071 16.3281L4.13808 17.1399C4.13808 17.1567 4.12117 17.1966 4.08169 17.2557C4.06184 17.3155 4.04233 17.3546 4.04233 17.3744C4.02282 17.4144 4.00297 17.4538 3.98323 17.5132C3.96406 17.5727 3.96406 17.6121 3.9441 17.6316L1.68801 16.7239L2.19925 15.4599C2.21955 15.4795 2.25835 15.4795 2.27526 15.4993C2.29534 15.5193 2.31496 15.5193 2.33425 15.5393C2.35376 15.5393 2.37395 15.5393 2.41297 15.5587C2.43259 15.5587 2.47195 15.5587 2.49158 15.5783C2.41297 15.717 2.35365 15.8359 2.29511 15.9351C2.25857 16.0112 2.19936 16.15 2.14071 16.3281Z" fill="var(--fill-0, #F4F3F1)"/>
<path id="Vector_29" d="M4.68868 13.2679C5.00346 13.4462 5.1971 13.6837 5.29838 14.0177C5.39357 14.3738 5.33786 14.7497 5.14083 15.1035C4.94436 15.4601 4.6888 15.6976 4.37391 15.7965C4.25628 15.836 4.16075 15.836 4.04256 15.836V15.3013C4.16075 15.3408 4.29519 15.3612 4.41361 15.3408C4.64977 15.3213 4.8265 15.2024 4.94447 14.9846C5.08229 14.77 5.08229 14.532 4.94447 14.2943C4.82662 14.077 4.63026 13.8983 4.335 13.7431C4.23959 13.6837 4.13831 13.6439 4.04267 13.6239V13.0697C4.25617 13.0698 4.47271 13.1487 4.68868 13.2679ZM4.04244 15.836V15.3013C3.94421 15.2818 3.86538 15.2419 3.76714 15.1826C3.43286 14.9848 3.19726 14.7897 3.10128 14.5716C3.00305 14.3539 3.00304 14.1362 3.1209 13.9184C3.23639 13.7034 3.43297 13.5851 3.68853 13.5648C3.80673 13.5648 3.92459 13.5851 4.04256 13.6241V13.0699C3.96429 13.0699 3.88534 13.0898 3.82647 13.0898C3.47222 13.1692 3.18023 13.4068 2.94417 13.8023C2.74759 14.1761 2.68838 14.552 2.78673 14.8885C2.86534 15.2223 3.06237 15.4796 3.39395 15.6577C3.6097 15.777 3.82635 15.836 4.04244 15.836Z" fill="var(--fill-0, #F4F3F1)"/>
<path id="Vector_30" d="M6.63 11.7886L6.66947 11.769L6.88568 12.0036C6.86594 12.1227 6.82647 12.2413 6.78744 12.36C6.72857 12.4589 6.66936 12.5782 6.59075 12.677C6.37432 12.991 6.10195 13.1887 5.78707 13.2681C5.47241 13.3474 5.15797 13.2876 4.86575 13.0898C4.4921 12.8326 4.29507 12.5183 4.25628 12.1622C4.23959 11.8253 4.33489 11.4919 4.57094 11.1553C4.63026 11.0365 4.72782 10.9572 4.82662 10.8578C4.92485 10.782 5.02308 10.7026 5.12154 10.6432L5.37722 10.9173L5.35477 10.977C5.23692 10.977 5.12165 10.9966 5.00368 11.056C4.88538 11.0955 4.80665 11.1747 4.74789 11.2736C4.59045 11.4917 4.55143 11.7293 4.66929 11.9839C4.74789 12.2012 4.92496 12.3998 5.1582 12.5779C5.41376 12.7557 5.65004 12.8324 5.9056 12.8125C6.14132 12.8125 6.3353 12.6965 6.4756 12.4783C6.55432 12.3794 6.59086 12.2805 6.6106 12.1421C6.64974 12.023 6.64974 11.9046 6.63 11.7886Z" fill="var(--fill-0, #F4F3F1)"/>
<path id="Vector_31" d="M7.51218 11.3531C7.49256 11.2737 7.4365 11.1553 7.33827 10.9572C7.31831 10.8978 7.27906 10.7989 7.23947 10.6827C7.08203 10.6432 6.86583 10.6035 6.59075 10.564C6.55421 10.564 6.29842 10.5244 5.84617 10.4651C5.53421 10.4057 5.31519 10.3858 5.18041 10.3463C5.19699 10.3263 5.2368 10.2869 5.29838 10.2275C5.33786 10.1876 5.37699 10.1482 5.41353 10.1091C5.43327 10.0891 5.4556 10.0494 5.49214 9.98987C5.53421 9.93083 5.57098 9.89098 5.5906 9.85158C5.66921 9.87099 5.78695 9.91062 5.98398 9.93083C6.02301 9.95036 6.20019 9.96989 6.53154 10.0297C6.74797 10.0692 6.88556 10.0891 6.94444 10.1091C6.92481 10.0099 6.82624 9.81161 6.70838 9.5173C6.62977 9.37889 6.53154 9.16122 6.39654 8.88417L6.51169 8.76528L6.60992 8.62653C6.66891 8.76528 6.76714 9.00294 6.92459 9.37889C7.08169 9.73269 7.2194 10.0493 7.35722 10.3663C7.51173 10.7423 7.62959 10.9968 7.7082 11.1157C7.6888 11.1356 7.6888 11.1555 7.64921 11.1751C7.62959 11.1946 7.60996 11.2149 7.59056 11.2344L7.51218 11.3531Z" fill="var(--fill-0, #F4F3F1)"/>
<path id="Vector_32" d="M8.6894 7.97625C8.70913 7.99544 8.72876 7.99544 8.76801 8.01565C9.10184 8.17405 9.45327 8.31235 9.82692 8.47063L9.94523 8.35232C9.96485 8.39172 9.98447 8.4117 10.004 8.43157C10.0436 8.47063 10.0436 8.49062 10.063 8.50787C10.0825 8.53047 10.1026 8.54727 10.1416 8.56726C10.1807 8.58679 10.2007 8.60666 10.2202 8.6263L10.1806 8.66582C10.1218 8.64663 10.0432 8.68614 9.945 8.74519C9.86639 8.80457 9.76759 8.88394 9.66981 8.98272L8.94496 9.73247C8.82677 9.85135 8.74793 9.9306 8.68917 10.0096V9.63629C8.70891 9.59644 8.74793 9.55704 8.80692 9.51707C8.88575 9.43849 8.96436 9.37866 9.00338 9.31927C9.06259 9.26023 9.14132 9.18097 9.21981 9.10183C9.27902 9.04211 9.35774 8.96308 9.39677 8.90324C9.18034 8.78493 8.94474 8.68591 8.70868 8.56714C8.68895 8.56714 8.68895 8.56715 8.68895 8.54716V7.97625H8.6894ZM8.2985 10.0096C8.31812 10.0295 8.33786 10.0491 8.35771 10.069C8.39413 10.0889 8.41376 10.1089 8.43372 10.1479C8.47263 10.1678 8.49248 10.1873 8.51222 10.2273C8.53477 10.2467 8.55147 10.2667 8.57086 10.2867L8.59116 10.2467C8.59116 10.1873 8.61056 10.1088 8.66966 10.0294C8.68928 10.0294 8.68929 10.0095 8.68929 10.0095V9.63618C8.6497 9.65298 8.63019 9.67251 8.61056 9.69295C8.51233 9.4779 8.39413 9.24036 8.27921 8.96319C8.18098 8.72554 8.08274 8.49062 7.96432 8.23298C8.20038 8.33233 8.43383 8.4511 8.6894 8.54728V7.97625C8.33797 7.81797 8.00402 7.67922 7.70876 7.54308C7.68936 7.54308 7.66906 7.56033 7.64977 7.57986C7.63015 7.61938 7.61053 7.63925 7.61053 7.65923C7.59113 7.65923 7.57094 7.67922 7.55154 7.69875C7.51229 7.71828 7.49278 7.7386 7.49278 7.7386C7.61064 8.01565 7.72838 8.25342 7.80733 8.47063C7.90556 8.66582 8.00413 8.90347 8.12199 9.18097C8.22023 9.41851 8.31835 9.67263 8.39436 9.91028L8.2985 10.0096Z" fill="var(--fill-0, #F4F3F1)"/>
<path id="Vector_33" d="M10.7092 7.12727L10.1417 7.59996V7.32552L10.5122 7.00896L10.1417 6.79095V6.19983L11.8467 7.14771C11.8271 7.16724 11.7687 7.20675 11.7123 7.26614C11.6504 7.30565 11.6112 7.32552 11.5941 7.34551C11.5717 7.36504 11.5349 7.40455 11.4761 7.46393C11.4173 7.50379 11.3781 7.54319 11.3781 7.54319C11.2207 7.44429 11.1223 7.36503 11.0435 7.32552C10.9253 7.24649 10.8076 7.16712 10.7092 7.12727ZM10.1418 7.81797C10.1808 7.93628 10.2203 8.05483 10.2398 8.11455C10.2795 8.21345 10.3158 8.31235 10.3383 8.37173L10.2009 8.47063L10.1419 8.54727L10.1418 7.81797ZM10.1418 7.59985V7.32541L10.0239 7.42431L9.7482 6.55648L10.1418 6.79072V6.1996L9.53211 5.86271L9.43658 5.94208L9.31827 6.02145L10.0825 8.58679L10.1417 8.54727V7.81797C10.1221 7.75813 10.1024 7.69875 10.0825 7.63925L10.1418 7.59985Z" fill="var(--fill-0, #F4F3F1)"/>
<path id="Vector_34" d="M11.9255 5.84318L12.5155 6.73168C12.4762 6.75121 12.4367 6.77119 12.3977 6.79083C12.3386 6.83069 12.2993 6.85022 12.2792 6.87009C12.2402 6.89007 12.2206 6.91006 12.1614 6.949C12.1224 6.98897 12.0829 7.00884 12.0633 7.02837L11.6897 6.47722V5.48721L11.8271 5.66503C11.8863 5.62597 11.9451 5.58611 12.0039 5.52661C12.0827 5.44997 12.1223 5.35107 12.1023 5.2323C12.1023 5.15328 12.063 5.05449 12.0039 4.95548C11.9253 4.83626 11.8465 4.75689 11.7511 4.71783C11.7288 4.69784 11.7121 4.69784 11.6896 4.69784V4.38094C12.0039 4.24525 12.2597 4.32417 12.4366 4.59861C12.594 4.83626 12.6135 5.07391 12.5154 5.29191C12.4172 5.4703 12.2207 5.6455 11.9255 5.84318ZM11.6899 6.47722V5.48721L11.2994 4.85669L11.476 4.73747C11.5348 4.67763 11.611 4.67763 11.6899 4.69796V4.38105C11.6336 4.40092 11.5549 4.44078 11.476 4.49982L10.7315 4.97512L11.6899 6.47722Z" fill="var(--fill-0, #F4F3F1)"/>
<path id="Vector_35" d="M15.0638 4.757H15.1226L15.1817 5.05449C15.1226 5.15328 15.0439 5.25218 14.9456 5.31167C14.8474 5.39104 14.752 5.4703 14.6335 5.52673C14.2797 5.705 13.9651 5.7444 13.6309 5.66514C13.3189 5.58623 13.0632 5.37083 12.906 5.0546C12.7093 4.65822 12.6729 4.28533 12.8077 3.94833C12.945 3.65129 13.1811 3.39411 13.5546 3.19893C13.6533 3.15907 13.7711 3.10014 13.9061 3.0797C14.0239 3.04064 14.1617 3.02066 14.2797 3.04064L14.3583 3.39411L14.3192 3.41409C14.2206 3.3546 14.1025 3.33473 13.9847 3.33473C13.8665 3.31474 13.7487 3.33473 13.6534 3.39411C13.3976 3.51288 13.2795 3.71068 13.2403 3.98784C13.2206 4.22549 13.2795 4.47995 13.3977 4.73759C13.5547 5.01464 13.7293 5.21289 13.9454 5.31179C14.1617 5.41068 14.3779 5.41068 14.6335 5.29226C14.7293 5.23253 14.8076 5.1535 14.8863 5.05472C14.965 4.97512 15.0242 4.85669 15.0638 4.757Z" fill="var(--fill-0, #F4F3F1)"/>
<path id="Vector_36" d="M15.7521 2.58532L16.516 4.63857C16.4966 4.63857 16.4374 4.6581 16.3782 4.67763C16.2996 4.69796 16.28 4.71783 16.2606 4.71783C16.2404 4.73736 16.2015 4.73736 16.1428 4.77721C16.1031 4.79674 16.0439 4.81673 16.0243 4.83637L15.2407 2.78312C15.1224 2.82298 15.0241 2.88202 14.9456 2.92187C14.8668 2.96139 14.7687 3.00079 14.6536 3.06029C14.6335 3.04076 14.6335 3.0009 14.6335 2.98092C14.6335 2.9615 14.6111 2.94186 14.6111 2.92187C14.5944 2.88202 14.5944 2.86249 14.5749 2.84251C14.5553 2.82298 14.5553 2.80311 14.5351 2.78312L16.2403 2.13262C16.2605 2.17213 16.2604 2.23186 16.28 2.27103C16.28 2.2909 16.2996 2.32769 16.3192 2.34767C16.3192 2.3672 16.3392 2.38719 16.3588 2.40706C16.1818 2.44646 16.0837 2.48643 16.0439 2.48643C15.9458 2.52549 15.8504 2.54536 15.7521 2.58532Z" fill="var(--fill-0, #F4F3F1)"/>
<path id="Vector_37" d="M17.5164 2.76348H17.536C17.595 2.74349 17.6536 2.70364 17.6933 2.68411C17.7326 2.66424 17.7521 2.62472 17.7916 2.58521C17.8308 2.52537 17.8507 2.46599 17.8507 2.38696C17.8507 2.32757 17.8507 2.25093 17.8111 2.19189C17.772 2.05314 17.7129 1.97377 17.6342 1.93425C17.595 1.91472 17.5554 1.89485 17.5164 1.89485V1.6572C17.6931 1.61769 17.8307 1.59782 17.9657 1.63722C18.1229 1.67718 18.2412 1.79561 18.2999 1.97377C18.359 2.13239 18.3391 2.2708 18.2607 2.40683C18.1823 2.52526 18.0839 2.6245 17.9264 2.68388V2.7234C18.1034 2.68388 18.2412 2.68388 18.3786 2.7234C18.5556 2.78278 18.6735 2.902 18.7326 3.07948C18.7917 3.2976 18.7722 3.49312 18.6344 3.67094C18.5167 3.82922 18.3392 3.94799 18.1229 4.00748L17.5165 4.22515V3.05995L17.7915 3.90859L17.946 3.8492C18.0639 3.82922 18.1427 3.74985 18.1823 3.65095C18.2412 3.53252 18.2607 3.41375 18.2017 3.27807C18.1427 3.09991 18.0639 3.00056 17.9459 2.96105C17.8306 2.92153 17.6931 2.92153 17.5162 2.98046L17.5164 2.76348ZM17.1624 1.9942L17.3394 1.93437C17.3982 1.91484 17.4572 1.89497 17.5164 1.89497V1.6572C17.4969 1.67719 17.4767 1.6773 17.4767 1.6773L16.5947 1.95435L17.3394 4.26523L17.5164 4.22538V3.06017L17.4969 3.00079C17.4969 2.9808 17.4969 2.9808 17.5164 2.9808V2.76348L17.4182 2.80299L17.1624 1.9942Z" fill="var(--fill-0, #F4F3F1)"/>
<path id="Vector_38" d="M18.8114 1.32383L20.1235 1.06631C20.1235 1.08618 20.1432 1.12535 20.1432 1.14568C20.1432 1.18519 20.1432 1.20472 20.1432 1.22493C20.1432 1.24446 20.1626 1.26445 20.1626 1.28409C20.1827 1.32394 20.1827 1.34075 20.1827 1.36028C20.0644 1.38026 19.9495 1.38026 19.8116 1.40013C19.6939 1.41966 19.5365 1.43965 19.379 1.47916L19.5168 2.23186L19.8875 2.15249C19.9497 2.15249 20.0053 2.13262 20.0645 2.11263C20.1236 2.0931 20.2023 2.07312 20.3005 2.05325C20.3005 2.05325 20.3005 2.07312 20.3199 2.11263C20.3199 2.15249 20.3199 2.17202 20.3199 2.192C20.3199 2.21153 20.3199 2.23186 20.3399 2.27092C20.3598 2.29079 20.3598 2.32757 20.3598 2.34756C20.2217 2.34756 20.084 2.36709 19.9265 2.38707L19.5758 2.46599L19.7331 3.35448C19.9101 3.31463 20.0452 3.29771 20.1829 3.25559C20.3006 3.21834 20.4185 3.17894 20.5366 3.13943C20.5366 3.17894 20.5366 3.19881 20.5366 3.23833C20.5366 3.25558 20.5366 3.27818 20.5565 3.29771C20.5565 3.31452 20.5565 3.3345 20.5761 3.37401C20.5761 3.394 20.5957 3.43374 20.5957 3.45338L19.2611 3.71056L18.8114 1.32383Z" fill="var(--fill-0, #F4F3F1)"/>
<path id="Vector_39" d="M20.9295 3.31463L20.7134 0.887588C20.7524 0.887588 20.792 0.887588 20.8509 0.887588C20.9099 0.887588 20.9495 0.887588 20.9886 0.887588C21.0083 0.887588 21.0645 0.868057 21.1264 0.868057C21.1824 0.848527 21.222 0.848527 21.2415 0.848527L21.3398 1.79561C21.3988 1.79561 21.5167 1.79561 21.6348 1.77608C21.7723 1.77608 21.8511 1.77608 21.8711 1.77608C21.9492 1.75655 22.0281 1.75655 22.0676 1.75655C22.2814 1.7167 22.3989 1.7167 22.4187 1.7167L22.3205 0.749628C22.3596 0.749628 22.3991 0.749628 22.4583 0.749628C22.517 0.749628 22.5565 0.749628 22.5959 0.749628C22.6157 0.749628 22.6746 0.729759 22.7337 0.729759C22.7924 0.709889 22.8319 0.709887 22.8515 0.689903L23.068 3.13954C23.0483 3.13954 22.9894 3.13954 22.9301 3.13954C22.8712 3.13954 22.8319 3.13954 22.7922 3.13954C22.7728 3.13954 22.7335 3.15907 22.6746 3.15907C22.6157 3.17905 22.5762 3.17906 22.537 3.17906L22.4383 1.9942C22.3797 1.9942 22.2616 2.01374 22.1241 2.01374C21.9892 2.01374 21.9103 2.03326 21.8909 2.03326C21.8123 2.03326 21.714 2.03326 21.6156 2.05325C21.517 2.07312 21.4188 2.07312 21.3595 2.0931L21.4583 3.27829C21.4383 3.27829 21.3797 3.27829 21.3204 3.27829C21.2613 3.27829 21.2222 3.27829 21.2027 3.27829C21.1631 3.27829 21.1268 3.29782 21.0648 3.29782C21.0082 3.31463 20.9691 3.31463 20.9295 3.31463Z" fill="var(--fill-0, #F4F3F1)"/>
<path id="Vector_40" d="M23.5759 3.06017V0.61099C23.5956 0.61099 23.6548 0.630973 23.7135 0.630973C23.7724 0.630973 23.8122 0.630973 23.8317 0.630973C23.871 0.630973 23.9103 0.630973 23.9695 0.630973C24.0283 0.630973 24.0651 0.61099 24.1041 0.61099V1.5784C24.1826 1.5784 24.2811 1.5784 24.4188 1.59793C24.5365 1.59793 24.6151 1.59793 24.6549 1.59793C24.7335 1.59793 24.7924 1.59793 24.8514 1.59793C25.0452 1.59793 25.1635 1.5784 25.1857 1.5784V0.61099C25.2251 0.61099 25.2645 0.630973 25.3207 0.630973C25.3794 0.630973 25.4189 0.630973 25.4583 0.630973C25.4777 0.630973 25.5171 0.630973 25.5786 0.630973C25.6349 0.630973 25.6971 0.61099 25.7137 0.61099V3.06017C25.6971 3.06017 25.6573 3.06017 25.5986 3.06017C25.5368 3.04064 25.4776 3.04064 25.458 3.04064C25.4187 3.04064 25.3792 3.04064 25.3203 3.06017C25.2643 3.06017 25.2248 3.06017 25.1855 3.06017V1.87498C25.1235 1.87498 25.028 1.87498 24.8708 1.85545C24.7333 1.85545 24.6547 1.85545 24.6547 1.85545C24.5564 1.85545 24.4777 1.85545 24.3595 1.85545C24.2613 1.85545 24.1657 1.87498 24.1039 1.87498V3.06017C24.0872 3.06017 24.0282 3.06017 23.9693 3.06017C23.9102 3.04064 23.8706 3.04064 23.8315 3.04064C23.8118 3.04064 23.7723 3.04064 23.7133 3.06017C23.6549 3.06017 23.5957 3.06017 23.5759 3.06017Z" fill="var(--fill-0, #F4F3F1)"/>
<path id="Vector_41" d="M27.0288 1.6773H27.0875C27.5993 1.6773 27.855 1.87509 27.855 2.27103C27.855 2.56534 27.7563 2.76348 27.5597 2.90234C27.4223 2.9808 27.2448 3.04064 27.0289 3.04064V2.80311C27.1074 2.78312 27.1863 2.72374 27.2254 2.64448C27.2648 2.56557 27.3041 2.46621 27.3041 2.3278C27.3041 2.19223 27.2647 2.09333 27.2058 1.99432C27.1468 1.93448 27.0873 1.89508 27.0289 1.87509L27.0288 1.6773ZM28.1663 3.06017V0.61099C28.1862 0.61099 28.2449 0.630973 28.3041 0.630973C28.3633 0.630973 28.4023 0.630973 28.4221 0.630973C28.4617 0.630973 28.5008 0.630973 28.5599 0.630973C28.619 0.630973 28.6581 0.61099 28.6977 0.61099V3.06017C28.6776 3.06017 28.6191 3.06017 28.5599 3.06017C28.5009 3.04064 28.4617 3.04064 28.4221 3.04064C28.4023 3.04064 28.3633 3.04064 28.3041 3.06017C28.2449 3.06017 28.1862 3.06017 28.1663 3.06017ZM26.7563 0.61099C26.7169 0.61099 26.6777 0.61099 26.6187 0.61099C26.5595 0.61099 26.5202 0.61099 26.4805 0.61099C26.4609 0.61099 26.402 0.61099 26.343 0.61099C26.2841 0.61099 26.2444 0.61099 26.225 0.61099V3.04064H26.9303C26.9497 3.04064 26.9918 3.04064 27.0285 3.04064V2.80311C27.0091 2.82298 26.9918 2.82298 26.9918 2.82298C26.9497 2.82298 26.9137 2.84251 26.8741 2.84251C26.8349 2.84251 26.7954 2.84251 26.7562 2.84251V1.87509H26.9694C26.9919 1.87509 27.0094 1.87509 27.0286 1.87509V1.6773H26.7562V0.61099H26.7563Z" fill="var(--fill-0, #F4F3F1)"/>
<path id="Vector_42" d="M29.1863 3.06017V0.61099C29.206 0.61099 29.2649 0.630973 29.3239 0.630973C29.3831 0.630973 29.4221 0.630973 29.4618 0.630973C29.4813 0.630973 29.5208 0.630973 29.5795 0.630973C29.6385 0.630973 29.6979 0.61099 29.7174 0.61099V2.2909C29.9136 2.07323 30.147 1.79573 30.4221 1.45963C30.6776 1.14568 30.8944 0.868285 31.0682 0.61099C31.108 0.61099 31.1304 0.61099 31.147 0.61099C31.1666 0.61099 31.2091 0.61099 31.2452 0.61099C31.2845 0.61099 31.3044 0.61099 31.3238 0.61099V3.06017C31.3044 3.06017 31.2648 3.06017 31.2089 3.06017C31.1468 3.04064 31.0906 3.04064 31.0679 3.04064C31.0288 3.04064 30.9895 3.04064 30.9333 3.06017C30.8717 3.06017 30.8322 3.06017 30.7959 3.06017V1.38026C30.5988 1.61791 30.3632 1.89508 30.1075 2.21165C29.8546 2.5256 29.6385 2.82298 29.4615 3.06029C29.4418 3.06029 29.4218 3.06029 29.4026 3.06029C29.383 3.06029 29.3633 3.06029 29.3434 3.06029C29.3238 3.06029 29.2847 3.06029 29.2649 3.06029C29.2453 3.06017 29.2059 3.06017 29.1863 3.06017ZM29.3831 0.195072L29.5209 2.70714e-08C29.6386 0.118428 29.7566 0.195071 29.874 0.254569C30.0089 0.313953 30.1272 0.333484 30.2645 0.333484C30.5402 0.333484 30.796 0.234586 31.0289 2.70714e-08L31.1665 0.175087C31.0289 0.31384 30.8942 0.412738 30.7367 0.472122C30.5792 0.531507 30.422 0.571362 30.245 0.571362C30.0875 0.571362 29.9303 0.531507 29.7958 0.472122C29.6385 0.412738 29.5009 0.313841 29.3831 0.195072Z" fill="var(--fill-0, #F4F3F1)"/>
<path id="Vector_43" d="M33.9732 0.868171V3.06017C33.9532 3.06017 33.8945 3.06017 33.8353 3.06017C33.7569 3.04064 33.7171 3.04064 33.7171 3.04064C33.6778 3.04064 33.6382 3.04064 33.5796 3.06017C33.5204 3.06017 33.4814 3.06017 33.4418 3.06017V0.868171C33.3238 0.868171 33.2061 0.868171 33.1296 0.8877C33.0314 0.8877 32.9136 0.908026 32.7953 0.927669C32.7953 0.887701 32.7953 0.868284 32.7953 0.82877C32.8154 0.809241 32.8154 0.788916 32.8154 0.769387C32.8154 0.729873 32.8154 0.710002 32.7953 0.690018C32.7953 0.650844 32.7953 0.630973 32.7953 0.611102H34.6188C34.5991 0.670487 34.5991 0.710002 34.5991 0.769387C34.5991 0.788916 34.5991 0.80924 34.5991 0.848754C34.5991 0.868284 34.6188 0.908138 34.6188 0.927782C34.4418 0.908252 34.3436 0.887815 34.3039 0.887815C34.1865 0.868171 34.0881 0.868171 33.9732 0.868171Z" fill="var(--fill-0, #F4F3F1)"/>
<path id="Vector_44" d="M34.8549 0.61099H36.2092C36.1869 0.650844 36.1869 0.670374 36.1869 0.709888C36.1869 0.729759 36.1869 0.749742 36.1869 0.769272C36.1869 0.788802 36.1869 0.809127 36.1869 0.848641C36.1869 0.887701 36.1869 0.908026 36.2092 0.927669C36.069 0.908139 35.9534 0.8877 35.8159 0.8877C35.698 0.8877 35.5406 0.868171 35.3833 0.868171V1.63733H35.757C35.8157 1.63733 35.8749 1.63733 35.9338 1.63733C35.9929 1.63733 36.0687 1.6178 36.1867 1.6178C36.1867 1.6178 36.1867 1.65731 36.1702 1.67707C36.1702 1.71658 36.1702 1.75644 36.1702 1.75644C36.1702 1.77597 36.1702 1.7955 36.1702 1.83535C36.1867 1.87487 36.1867 1.89474 36.1867 1.91461C36.0517 1.89474 35.8942 1.89474 35.7567 1.89474H35.3831V2.78278C35.5404 2.78278 35.6977 2.78278 35.8157 2.78278C35.9534 2.76325 36.0687 2.76325 36.209 2.74327C36.1867 2.76325 36.1867 2.80276 36.1867 2.82263C36.1867 2.84216 36.1867 2.88179 36.1867 2.902C36.1867 2.902 36.1867 2.94152 36.1867 2.96105C36.1867 3.00045 36.1867 3.02043 36.209 3.0403H34.8547L34.8549 0.61099Z" fill="var(--fill-0, #F4F3F1)"/>
<path id="Vector_45" d="M38.3077 0.65073L37.9736 1.14556L37.5606 1.73657L37.6 1.81594C37.7178 2.01362 37.8359 2.23174 37.9543 2.44634C38.072 2.64414 38.1901 2.86226 38.308 3.09991C38.2689 3.09991 38.2097 3.09991 38.1311 3.09991C38.0526 3.07948 37.9933 3.07948 37.9933 3.07948C37.9543 3.07948 37.8951 3.07948 37.8165 3.09991C37.7379 3.09991 37.6984 3.09991 37.6984 3.09991C37.6199 2.94152 37.5218 2.76336 37.4036 2.52526C37.3476 2.42636 37.2856 2.30759 37.2292 2.19177L36.895 2.70341C36.8753 2.76325 36.8163 2.82264 36.7772 2.902C36.7375 2.98046 36.6983 3.0403 36.6787 3.0998L36.502 3.07936L36.328 3.0998C36.4235 2.96105 36.5216 2.82264 36.5807 2.7234C36.7181 2.52526 36.7968 2.40683 36.8364 2.34733C36.9149 2.2507 36.9938 2.11241 37.0915 1.97365L36.3671 0.650503C36.4062 0.650503 36.4458 0.650504 36.5216 0.670034C36.5807 0.670034 36.6395 0.670034 36.6789 0.670034C36.7183 0.670034 36.7578 0.670034 36.8364 0.670034C36.8951 0.650504 36.9544 0.650503 36.9938 0.650503C37.0526 0.788574 37.1511 0.966729 37.269 1.18485C37.325 1.30101 37.3644 1.39991 37.4259 1.51833C37.6005 1.2247 37.7774 0.947198 37.974 0.650503L38.1314 0.670034L38.3077 0.65073Z" fill="var(--fill-0, #F4F3F1)"/>
<path id="Vector_46" d="M38.6002 3.10003V0.65073C38.6199 0.65073 38.6589 0.650731 38.7179 0.670261C38.777 0.670261 38.8357 0.670261 38.856 0.670261C38.895 0.670261 38.9345 0.670261 38.9935 0.670261C39.0523 0.650731 39.0921 0.65073 39.1314 0.65073V1.6178C39.21 1.6178 39.3054 1.6178 39.4232 1.63733C39.5611 1.63733 39.6396 1.63733 39.6595 1.63733C39.7574 1.63733 39.8169 1.63733 39.876 1.63733C40.0722 1.6178 40.1902 1.6178 40.2103 1.6178V0.65073C40.2299 0.65073 40.2861 0.650731 40.3475 0.670261C40.4039 0.670261 40.4436 0.670261 40.4659 0.670261C40.5024 0.670261 40.5417 0.670261 40.6005 0.670261C40.6594 0.650731 40.7187 0.65073 40.7383 0.65073V3.10003C40.7187 3.10003 40.6596 3.10003 40.6005 3.10003C40.5417 3.07959 40.5024 3.07959 40.4659 3.07959C40.4436 3.07959 40.4039 3.07959 40.3475 3.10003C40.2861 3.10003 40.2495 3.10003 40.2103 3.10003V1.91484C40.1511 1.91484 40.0329 1.89497 39.8955 1.89497C39.7574 1.89497 39.6796 1.89497 39.6595 1.89497C39.5807 1.89497 39.4825 1.89497 39.3841 1.89497C39.2887 1.89497 39.1901 1.89497 39.1316 1.91484V3.10003C39.0924 3.10003 39.0528 3.10003 38.9937 3.10003C38.9349 3.07959 38.8952 3.07959 38.8562 3.07959C38.8359 3.07959 38.797 3.07959 38.7378 3.10003C38.6786 3.10003 38.6198 3.10003 38.6002 3.10003Z" fill="var(--fill-0, #F4F3F1)"/>
<path id="Vector_47" d="M41.2492 3.10003V0.65073C41.2687 0.65073 41.3084 0.650731 41.3671 0.670261C41.4261 0.670261 41.4629 0.670261 41.5021 0.670261C41.5245 0.670261 41.5806 0.670261 41.6399 0.670261C41.6991 0.650731 41.7381 0.65073 41.7775 0.65073V2.32769C41.9742 2.11263 42.2099 1.83558 42.466 1.49903C42.7182 1.16521 42.9348 0.8877 43.1119 0.65073C43.1515 0.65073 43.1905 0.65073 43.2101 0.65073C43.23 0.65073 43.2497 0.65073 43.2888 0.65073C43.3283 0.65073 43.3674 0.65073 43.3874 0.65073V3.10003C43.3476 3.10003 43.3088 3.10003 43.2495 3.10003C43.1905 3.07959 43.1513 3.07959 43.1117 3.07959C43.092 3.07959 43.0528 3.07959 42.9937 3.10003C42.9348 3.10003 42.8755 3.10003 42.8559 3.10003V1.40002C42.6398 1.63722 42.4259 1.93437 42.151 2.25093C41.8951 2.56523 41.6788 2.86226 41.5018 3.10003C41.4851 3.10003 41.4625 3.10003 41.4454 3.10003C41.4257 3.10003 41.4063 3.10003 41.4063 3.10003C41.3666 3.10003 41.3472 3.10003 41.3276 3.10003C41.2885 3.10003 41.2686 3.10003 41.2492 3.10003Z" fill="var(--fill-0, #F4F3F1)"/>
<path id="Vector_48" d="M43.7774 1.5784V0.650844C43.8173 0.650844 43.8562 0.650844 43.9155 0.670374C43.9747 0.670374 44.0137 0.670374 44.0534 0.670374C44.0732 0.670374 44.1122 0.670374 44.1712 0.670374C44.2299 0.650844 44.2891 0.650844 44.3088 0.650844V1.5784C44.3088 1.6773 44.3675 1.75667 44.4466 1.79573C44.5252 1.83558 44.6206 1.85545 44.7192 1.85545C44.8176 1.85545 44.8958 1.83558 44.9946 1.79573C45.0928 1.75667 45.191 1.69683 45.3089 1.61791V0.650844C45.3289 0.650844 45.3677 0.650844 45.427 0.670374C45.4861 0.670374 45.5224 0.670374 45.5614 0.670374C45.5841 0.670374 45.64 0.670374 45.7022 0.670374C45.7586 0.650844 45.7977 0.650844 45.8371 0.650844V3.10014C45.7975 3.10014 45.7586 3.10014 45.7022 3.10014C45.64 3.0797 45.6011 3.0797 45.5614 3.0797C45.545 3.0797 45.4861 3.0797 45.427 3.10014C45.3679 3.10014 45.3289 3.10014 45.3089 3.10014V1.91495C45.1515 1.99432 45.0336 2.05336 44.9353 2.09322C44.7974 2.13273 44.6603 2.17213 44.5054 2.17213C44.3286 2.17213 44.1513 2.11275 44.0138 2.01374C43.8562 1.89497 43.7774 1.75655 43.7774 1.5784Z" fill="var(--fill-0, #F4F3F1)"/>
<path id="Vector_49" d="M46.289 0.65073H47.6403C47.6403 0.689903 47.6403 0.709889 47.6403 0.729759C47.6236 0.769273 47.6236 0.788802 47.6236 0.809127C47.6236 0.828656 47.6236 0.848641 47.6403 0.8877C47.6403 0.908025 47.6403 0.947426 47.6403 0.96707C47.5252 0.94754 47.4069 0.927669 47.2696 0.927669C47.1514 0.908139 46.9946 0.90814 46.8169 0.90814V1.67741H47.1907C47.2694 1.67741 47.3283 1.67741 47.387 1.67741C47.4462 1.67741 47.5252 1.65743 47.6234 1.65743C47.6234 1.65743 47.6234 1.67741 47.6234 1.71681C47.6234 1.75667 47.6234 1.7762 47.6234 1.79573C47.6234 1.81605 47.6234 1.83558 47.6234 1.87509C47.6234 1.91495 47.6234 1.93448 47.6234 1.95446C47.4855 1.93448 47.3482 1.91495 47.1907 1.91495H46.8169V2.82298C46.9943 2.82298 47.1514 2.82298 47.2696 2.82298C47.4069 2.80311 47.5255 2.78312 47.6403 2.78312C47.6403 2.80311 47.6403 2.82298 47.6403 2.86249C47.6236 2.88202 47.6236 2.90235 47.6236 2.92187C47.6236 2.94186 47.6236 2.96139 47.6403 3.00079C47.6403 3.04064 47.6403 3.06017 47.6403 3.0797H46.289V0.65073Z" fill="var(--fill-0, #F4F3F1)"/>
<path id="Vector_50" d="M49.8399 2.66424L49.8796 2.68411L49.8011 3.00068C49.7029 3.04053 49.5847 3.07959 49.4666 3.11944C49.3483 3.13943 49.2304 3.13943 49.1128 3.13943C48.722 3.13943 48.4073 3.04053 48.1517 2.82275C47.8991 2.60463 47.7813 2.3077 47.7813 1.95424C47.7813 1.49892 47.9157 1.16498 48.1914 0.927442C48.4472 0.689791 48.7814 0.590892 49.191 0.590892C49.3095 0.590892 49.4274 0.610876 49.5647 0.630861C49.6828 0.670261 49.8011 0.709775 49.919 0.76916L49.8179 1.12524H49.7787C49.7029 1.04632 49.6241 0.966956 49.5258 0.887588C49.4077 0.828544 49.3095 0.809014 49.191 0.809014C48.9159 0.809014 48.7026 0.927441 48.5649 1.14556C48.4273 1.36016 48.3683 1.59782 48.3683 1.89497C48.3683 2.21153 48.4469 2.46599 48.5843 2.64425C48.7223 2.84239 48.9357 2.94174 49.2113 2.94174C49.3095 2.94174 49.4274 2.90223 49.5456 2.86238C49.6631 2.80299 49.7612 2.74349 49.8399 2.66424Z" fill="var(--fill-0, #F4F3F1)"/>
<path id="Vector_51" d="M50.2306 3.10003V0.65073C50.2697 0.65073 50.3093 0.650731 50.3684 0.670261C50.4272 0.670261 50.4866 0.670261 50.506 0.670261C50.5261 0.670261 50.5849 0.670261 50.6438 0.670261C50.7026 0.650731 50.7421 0.65073 50.7618 0.65073V1.77608C51.0735 1.41966 51.3885 1.04632 51.6832 0.65073C51.723 0.65073 51.7424 0.670261 51.7815 0.670261C51.8406 0.670261 51.8603 0.670261 51.8802 0.670261C51.9193 0.670261 51.936 0.670261 51.9756 0.670261C51.9953 0.670261 52.0378 0.65073 52.0738 0.65073V0.689903C51.936 0.809126 51.8212 0.927555 51.6832 1.06631C51.6046 1.14568 51.5064 1.26445 51.3685 1.41966C51.2702 1.51856 51.2116 1.59793 51.1524 1.6773L52.1328 3.06017V3.10014L51.8406 3.0797L51.5458 3.10014L50.7618 1.97399V3.10014C50.7421 3.10014 50.7027 3.10014 50.6438 3.10014C50.5851 3.0797 50.5457 3.0797 50.506 3.0797C50.4866 3.0797 50.4274 3.0797 50.3685 3.10014C50.3094 3.10003 50.2696 3.10003 50.2306 3.10003Z" fill="var(--fill-0, #F4F3F1)"/>
<path id="Vector_52" d="M52.2898 3.10003V0.65073C52.3294 0.65073 52.3684 0.650731 52.4275 0.670261C52.4867 0.670261 52.5257 0.670261 52.5654 0.670261C52.585 0.670261 52.6245 0.670261 52.6833 0.670261C52.7424 0.650731 52.8015 0.65073 52.8213 0.65073V2.32769C53.0177 2.11263 53.2315 1.83558 53.5066 1.49903C53.7623 1.16521 53.9757 0.8877 54.1527 0.65073C54.1918 0.65073 54.2115 0.65073 54.2309 0.65073C54.2509 0.65073 54.2901 0.65073 54.3297 0.65073C54.3688 0.65073 54.4083 0.65073 54.4083 0.65073V3.10003C54.3882 3.10003 54.3492 3.10003 54.2901 3.10003C54.2309 3.07959 54.1722 3.07959 54.1525 3.07959C54.1128 3.07959 54.074 3.07959 54.0176 3.10003C53.9585 3.10003 53.9194 3.10003 53.8798 3.10003V1.40002C53.6832 1.63722 53.447 1.93437 53.1914 2.25093C52.9582 2.56523 52.7421 2.86226 52.565 3.10003C52.5453 3.10003 52.5253 3.10003 52.5061 3.10003C52.4865 3.10003 52.4667 3.10003 52.447 3.10003C52.4273 3.10003 52.408 3.10003 52.3684 3.10003C52.349 3.10003 52.3097 3.10003 52.2898 3.10003Z" fill="var(--fill-0, #F4F3F1)"/>
<path id="Vector_53" d="M54.9197 3.10003V0.65073C54.9394 0.65073 54.998 0.650731 55.0542 0.670261C55.1161 0.670261 55.1529 0.670261 55.1725 0.670261C55.2115 0.670261 55.2513 0.670261 55.31 0.670261C55.3689 0.650731 55.4085 0.65073 55.4479 0.65073V2.32769C55.6446 2.11263 55.8803 1.83558 56.153 1.49903C56.4085 1.18508 56.625 0.8877 56.802 0.65073C56.8413 0.65073 56.8608 0.65073 56.8806 0.65073C56.9002 0.65073 56.9393 0.65073 56.9788 0.65073C57.0184 0.65073 57.0378 0.65073 57.0548 0.65073V3.10003C57.038 3.10003 56.9989 3.10003 56.9395 3.10003C56.8808 3.07959 56.8215 3.07959 56.802 3.07959C56.7626 3.07959 56.7235 3.07959 56.664 3.10003C56.6053 3.10003 56.5658 3.10003 56.5265 3.10003V1.40002C56.3296 1.63722 56.0965 1.93437 55.8411 2.25093C55.5854 2.56523 55.3494 2.86226 55.1725 3.10003C55.1725 3.10003 55.1529 3.10003 55.1327 3.10003C55.0935 3.10003 55.0935 3.10003 55.0764 3.10003C55.0542 3.10003 55.0149 3.10003 54.998 3.10003C54.9757 3.10003 54.9392 3.10003 54.9197 3.10003ZM55.1161 0.234585L55.2513 0.0398544C55.3689 0.158283 55.4871 0.234585 55.6052 0.29431C55.7227 0.353354 55.8607 0.373224 55.9957 0.373224C56.2707 0.373224 56.5265 0.254455 56.7425 0.03974L56.8806 0.214829C56.7626 0.333257 56.6248 0.432495 56.4673 0.511523C56.3104 0.571248 56.136 0.610875 55.9785 0.610875C55.8212 0.610875 55.6639 0.571361 55.5068 0.511523C55.3689 0.452706 55.2314 0.353354 55.1161 0.234585Z" fill="var(--fill-0, #F4F3F1)"/>
<g id="Group_2">
<path id="Vector_54" d="M1.21816 53.4648H1.64447V54.525L2.32624 53.4648H2.76203V55.1528H2.33583V54.0735L1.64447 55.1528H1.21816V53.4648Z" fill="var(--fill-0, #F4F3F1)"/>
<path id="Vector_55" d="M3.2294 53.4648H3.77887L4.19549 54.6407L4.61571 53.4648H5.16327V55.1528H4.78601V54.0416L4.37718 55.1528H3.99812L3.60823 54.0416V55.1528H3.2294V53.4648Z" fill="var(--fill-0, #F4F3F1)"/>
<path id="Vector_56" d="M6.57959 54.6155L7.02192 54.6902C6.96474 54.8535 6.87508 54.9776 6.75248 55.0626C6.62989 55.1482 6.4765 55.1908 6.29222 55.1908C6.00079 55.1908 5.78504 55.0949 5.64508 54.9034C5.53444 54.7495 5.47917 54.5556 5.47917 54.3215C5.47917 54.0416 5.5518 53.8224 5.69718 53.6641C5.84244 53.5057 6.02617 53.4264 6.24812 53.4264C6.49759 53.4264 6.69451 53.5091 6.83853 53.6751C6.98267 53.841 7.0518 54.0952 7.04549 54.4376H5.93391C5.93695 54.5698 5.97282 54.6729 6.04128 54.7466C6.10951 54.8199 6.19489 54.8568 6.29718 54.8568C6.36643 54.8568 6.42496 54.8377 6.47233 54.7998C6.51981 54.7619 6.55534 54.7002 6.57959 54.6155ZM6.60496 54.164C6.60169 54.0346 6.56865 53.9362 6.50549 53.8692C6.4421 53.8015 6.36553 53.7683 6.27507 53.7683C6.17808 53.7683 6.09812 53.8036 6.03485 53.8748C5.97169 53.9457 5.9409 54.0422 5.94192 54.164H6.60496Z" fill="var(--fill-0, #F4F3F1)"/>
<path id="Vector_57" d="M7.3897 53.4648H7.83327V54.083H8.46801V53.4648H8.91305V55.1528H8.46801V54.4436H7.83327V55.1528H7.3897V53.4648Z" fill="var(--fill-0, #F4F3F1)"/>
<path id="Vector_58" d="M9.34872 53.4648H9.77504V54.525L10.4573 53.4648H10.8928V55.1528H10.4667V54.0735L9.77504 55.1528H9.34872V53.4648Z" fill="var(--fill-0, #F4F3F1)"/>
<path id="Vector_59" d="M12.2428 55.1528V52.8225H12.9421L13.3622 54.4122L13.7776 52.8225H14.4784V55.1528H14.0444V53.3184L13.5849 55.1528H13.1349L12.677 53.3184V55.1528H12.2428Z" fill="var(--fill-0, #F4F3F1)"/>
<path id="Vector_60" d="M14.9393 55.1528V54.7059H15.3832V55.1528H14.9393Z" fill="var(--fill-0, #F4F3F1)"/>
<path id="Vector_61" d="M16.3618 55.1528V53.2168H15.6751V52.8224H17.5146V53.2168H16.8293V55.1528H16.3618Z" fill="var(--fill-0, #F4F3F1)"/>
<path id="Vector_62" d="M17.4482 55.1528V54.7059H17.8918V55.1528H17.4482Z" fill="var(--fill-0, #F4F3F1)"/>
<path id="Vector_63" d="M19.2558 52.8225H19.7232V53.8142C19.8274 53.8036 19.8981 53.7768 19.9349 53.7331C19.9717 53.6898 20.0286 53.569 20.1054 53.371C20.2022 53.1185 20.2996 52.962 20.3974 52.9002C20.4942 52.839 20.6506 52.8083 20.8665 52.8083C20.877 52.8083 20.8996 52.8079 20.9342 52.8065V53.1547L20.868 53.1531C20.7723 53.1531 20.7023 53.1649 20.658 53.1886C20.6136 53.2123 20.5779 53.2487 20.5507 53.2975C20.5234 53.3461 20.4827 53.4466 20.4291 53.5979C20.4008 53.6784 20.3699 53.7454 20.3368 53.7997C20.3038 53.8534 20.2449 53.9044 20.1606 53.9523C20.2648 53.9818 20.3509 54.0417 20.4187 54.1317C20.4868 54.222 20.5615 54.349 20.6423 54.5133L20.958 55.1525H20.4087L20.1323 54.5499C20.1282 54.5415 20.1193 54.5248 20.1055 54.5002C20.1002 54.492 20.0807 54.4553 20.047 54.3904C19.9871 54.2764 19.9377 54.2045 19.8995 54.1759C19.861 54.1475 19.8024 54.1324 19.7232 54.1313V55.152H19.2558V52.8225Z" fill="var(--fill-0, #F4F3F1)"/>
<path id="Vector_64" d="M21.5893 53.9795L21.1867 53.9062C21.2319 53.7434 21.3098 53.6221 21.4205 53.5441C21.5309 53.4659 21.6952 53.4264 21.913 53.4264C22.1109 53.4264 22.2584 53.4499 22.355 53.4973C22.4518 53.5446 22.5199 53.6042 22.5594 53.6767C22.5989 53.7498 22.6185 53.8827 22.6185 54.0765L22.6138 54.5979C22.6138 54.7463 22.6209 54.8558 22.635 54.9264C22.6493 54.9965 22.6757 55.0721 22.7148 55.1531H22.2759C22.2642 55.1231 22.2501 55.079 22.2333 55.0207C22.2261 54.9943 22.2208 54.977 22.2173 54.9685C22.1416 55.0426 22.0604 55.0981 21.9742 55.1353C21.8877 55.1726 21.7958 55.191 21.6981 55.191C21.5255 55.191 21.3894 55.1438 21.29 55.0495C21.1904 54.9553 21.1405 54.8359 21.1405 54.6921C21.1405 54.5965 21.1634 54.5113 21.2086 54.4366C21.2535 54.3619 21.3171 54.3049 21.3988 54.2649C21.4803 54.2254 21.5979 54.1907 21.7517 54.1611C21.959 54.1218 22.1027 54.0853 22.1826 54.0516V54.0069C22.1826 53.9211 22.1614 53.8597 22.1192 53.8233C22.0772 53.7865 21.9979 53.7686 21.8809 53.7686C21.8021 53.7686 21.7404 53.7839 21.6962 53.8154C21.6524 53.8466 21.6167 53.9014 21.5893 53.9795ZM22.183 54.3421C22.126 54.361 22.036 54.384 21.9129 54.4105C21.7897 54.4369 21.7092 54.4633 21.6711 54.4886C21.6134 54.5298 21.5841 54.5824 21.5841 54.6461C21.5841 54.7086 21.6073 54.7625 21.6536 54.8082C21.7 54.8539 21.7589 54.8766 21.8304 54.8766C21.9103 54.8766 21.9867 54.8502 22.0594 54.7972C22.113 54.757 22.1482 54.7076 22.1652 54.6493C22.1767 54.6113 22.1825 54.5383 22.1825 54.4315V54.3423H22.183V54.3421Z" fill="var(--fill-0, #F4F3F1)"/>
<path id="Vector_65" d="M23.1761 53.4648H24.6616V55.1528H24.2197V53.8268H23.6151V54.5851C23.6151 54.7778 23.593 54.9134 23.5488 54.9914C23.5046 55.0693 23.4557 55.1202 23.4019 55.1449C23.3482 55.1688 23.2621 55.181 23.1429 55.181C23.0724 55.181 22.9791 55.1715 22.8636 55.1528V54.8236C22.873 54.8236 22.8977 54.8247 22.9376 54.8266C22.9841 54.8299 23.0197 54.8315 23.0451 54.8315C23.1049 54.8315 23.1418 54.8115 23.1555 54.7719C23.1692 54.7324 23.1761 54.622 23.1761 54.4406V53.4648Z" fill="var(--fill-0, #F4F3F1)"/>
<path id="Vector_66" d="M25.4415 53.9795L25.0389 53.9062C25.0841 53.7434 25.1621 53.6221 25.2725 53.5441C25.3832 53.4659 25.5474 53.4264 25.7651 53.4264C25.963 53.4264 26.1104 53.4499 26.2071 53.4973C26.3038 53.5446 26.3721 53.6042 26.4116 53.6767C26.4513 53.7498 26.4707 53.8827 26.4707 54.0765L26.466 54.5979C26.466 54.7463 26.4731 54.8558 26.4873 54.9264C26.5015 54.9965 26.5279 55.0721 26.567 55.1531H26.128C26.1164 55.1231 26.1023 55.079 26.0853 55.0207C26.0781 54.9943 26.0729 54.977 26.0695 54.9685C25.9938 55.0426 25.9126 55.0981 25.8264 55.1353C25.7402 55.1726 25.6479 55.191 25.5502 55.191C25.3775 55.191 25.2416 55.1438 25.1423 55.0495C25.0426 54.9553 24.9929 54.8359 24.9929 54.6921C24.9929 54.5965 25.0156 54.5113 25.0607 54.4366C25.1062 54.3619 25.1694 54.3049 25.2511 54.2649C25.3329 54.2254 25.4503 54.1907 25.604 54.1611C25.8113 54.1218 25.9551 54.0853 26.0349 54.0516V54.0069C26.0349 53.9211 26.0137 53.8597 25.9717 53.8233C25.9295 53.7865 25.8502 53.7686 25.7333 53.7686C25.6544 53.7686 25.5928 53.7839 25.5485 53.8154C25.5047 53.8466 25.469 53.9014 25.4415 53.9795ZM26.0353 54.3421C25.9784 54.361 25.8882 54.384 25.7651 54.4105C25.642 54.4368 25.5615 54.4633 25.5236 54.4886C25.4654 54.5298 25.4366 54.5824 25.4366 54.6461C25.4366 54.7086 25.4598 54.7625 25.5063 54.8082C25.5526 54.8539 25.6114 54.8766 25.6829 54.8766C25.7629 54.8766 25.8394 54.8502 25.9119 54.7972C25.9657 54.757 26.0008 54.7076 26.0177 54.6493C26.0294 54.6113 26.035 54.5383 26.035 54.4315V54.3421H26.0353Z" fill="var(--fill-0, #F4F3F1)"/>
<path id="Vector_67" d="M26.8971 53.4648H27.3045V54.7919H27.8191V53.4648H28.228V54.7919H28.7411V53.4648H29.1501V55.1528H26.897L26.8971 53.4648Z" fill="var(--fill-0, #F4F3F1)"/>
<path id="Vector_68" d="M29.586 53.4648H30.0295V54.083H30.6644V53.4648H31.1094V55.1528H30.6644V54.4436H30.0295V55.1528H29.586V53.4648Z" fill="var(--fill-0, #F4F3F1)"/>
<path id="Vector_69" d="M31.5451 53.4648H31.9715V54.525L32.6535 53.4648H33.0891V55.1528H32.663V54.0735L31.9715 55.1528H31.5451V53.4648Z" fill="var(--fill-0, #F4F3F1)"/>
<path id="Vector_70" d="M33.5265 53.4648H33.9687V54.1542C34.0422 54.1458 34.0944 54.1234 34.125 54.0861C34.1554 54.0488 34.1924 53.9679 34.2354 53.8424C34.2924 53.6761 34.3544 53.5701 34.4216 53.5232C34.4888 53.4763 34.5773 53.4534 34.6871 53.4534C34.7206 53.4534 34.7788 53.4558 34.8623 53.4611L34.8638 53.7569C34.7469 53.7569 34.6724 53.768 34.6396 53.7902C34.607 53.8132 34.5717 53.8828 34.5338 53.9984C34.4823 54.1539 34.4081 54.2497 34.3113 54.2858C34.4511 54.3253 34.5697 54.4475 34.6664 54.6532C34.6715 54.6637 34.6773 54.6746 34.6836 54.6867L34.9314 55.1525H34.4544L34.2336 54.6644C34.1883 54.5659 34.1489 54.5022 34.1159 54.4743C34.0827 54.4464 34.0334 54.4322 33.9682 54.4322V55.1525H33.526V53.4646H33.5265V53.4648Z" fill="var(--fill-0, #F4F3F1)"/>
<path id="Vector_71" d="M35.017 54.2847C35.017 54.1363 35.0532 53.9931 35.1259 53.8538C35.1987 53.7151 35.3014 53.6094 35.4346 53.5362C35.5678 53.4628 35.7162 53.4264 35.8802 53.4264C36.1343 53.4264 36.3421 53.5091 36.504 53.6751C36.6662 53.841 36.7472 54.0504 36.7472 54.3036C36.7472 54.5589 36.6651 54.7709 36.5015 54.9388C36.3379 55.1067 36.1322 55.1908 35.8835 55.1908C35.73 55.1908 35.5833 55.1557 35.444 55.0856C35.3047 55.016 35.1985 54.913 35.1259 54.7782C35.0532 54.6435 35.017 54.4787 35.017 54.2847ZM35.4716 54.3088C35.4716 54.4763 35.5112 54.6043 35.59 54.6934C35.6689 54.7821 35.7663 54.8267 35.8821 54.8267C35.998 54.8267 36.095 54.7821 36.1733 54.6934C36.2517 54.6043 36.2911 54.4752 36.2911 54.3053C36.2911 54.1403 36.2517 54.0131 36.1733 53.9242C36.095 53.8355 35.9979 53.7906 35.8821 53.7906C35.7665 53.7906 35.6689 53.8355 35.59 53.9242C35.5112 54.0129 35.4716 54.1414 35.4716 54.3088Z" fill="var(--fill-0, #F4F3F1)"/>
<path id="Vector_72" d="M37.0994 53.4648H38.0702C38.2693 53.4648 38.4179 53.5011 38.5173 53.5745C38.6161 53.6473 38.6654 53.7575 38.6654 53.9047C38.6654 53.9992 38.6383 54.0815 38.5841 54.1514C38.53 54.2214 38.4616 54.2677 38.3796 54.291C38.4952 54.3199 38.5818 54.3731 38.6384 54.4516C38.6955 54.5298 38.7239 54.6157 38.7239 54.7093C38.7239 54.8404 38.6759 54.9473 38.5802 55.0293C38.4846 55.1113 38.3429 55.1528 38.1557 55.1528H37.0993L37.0994 53.4648ZM37.5464 54.1656H37.832C37.9699 54.1656 38.0693 54.1483 38.1308 54.1132C38.1925 54.0779 38.2234 54.0232 38.2234 53.9478C38.2234 53.8768 38.1946 53.8263 38.1373 53.7958C38.0799 53.7659 37.9781 53.7507 37.8318 53.7507H37.5461L37.5464 54.1656ZM37.5464 54.8666H37.8968C38.023 54.8666 38.1153 54.8513 38.1729 54.8205C38.2307 54.7898 38.2598 54.7346 38.2598 54.6553C38.2598 54.5725 38.2264 54.5156 38.1603 54.4845C38.0937 54.4531 37.965 54.4377 37.7733 54.4377H37.546L37.5464 54.8666Z" fill="var(--fill-0, #F4F3F1)"/>
<path id="Vector_73" d="M39.3713 53.9795L38.9688 53.9062C39.0138 53.7434 39.092 53.6221 39.2022 53.5441C39.3127 53.4659 39.4771 53.4264 39.6948 53.4264C39.8928 53.4264 40.0403 53.4499 40.1368 53.4973C40.2337 53.5446 40.3018 53.6042 40.3414 53.6767C40.3809 53.7498 40.4003 53.8827 40.4003 54.0765L40.3957 54.5979C40.3957 54.7463 40.4028 54.8558 40.417 54.9264C40.4311 54.9965 40.4577 55.0721 40.4965 55.1531H40.0574C40.0459 55.1231 40.0317 55.079 40.015 55.0207C40.0077 54.9943 40.0026 54.977 39.9991 54.9685C39.9233 55.0426 39.8423 55.0981 39.7559 55.1353C39.6696 55.1726 39.5776 55.191 39.4797 55.191C39.3072 55.191 39.1711 55.1438 39.0717 55.0495C38.972 54.9553 38.9224 54.8359 38.9224 54.6921C38.9224 54.5965 38.9451 54.5113 38.9905 54.4366C39.036 54.3619 39.0992 54.3049 39.1808 54.2649C39.2626 54.2254 39.3802 54.1907 39.5337 54.1611C39.741 54.1218 39.8848 54.0853 39.9647 54.0516V54.0069C39.9647 53.9211 39.9436 53.8597 39.9014 53.8233C39.8593 53.7865 39.7799 53.7686 39.663 53.7686C39.5841 53.7686 39.5225 53.7839 39.4784 53.8154C39.4344 53.8466 39.3986 53.9014 39.3713 53.9795ZM39.965 54.3421C39.9079 54.361 39.818 54.384 39.6948 54.4105C39.5716 54.4368 39.4912 54.4633 39.4533 54.4886C39.3952 54.5298 39.3663 54.5824 39.3663 54.6461C39.3663 54.7086 39.3892 54.7625 39.4357 54.8082C39.4819 54.8539 39.5408 54.8766 39.6125 54.8766C39.6925 54.8766 39.7688 54.8502 39.8412 54.7972C39.895 54.757 39.9302 54.7076 39.947 54.6493C39.9588 54.6113 39.9644 54.5383 39.9644 54.4315V54.3423H39.965V54.3421Z" fill="var(--fill-0, #F4F3F1)"/>
</g>
</g>
</svg>
