<svg preserveAspectRatio="none" width="100%" height="100%" overflow="visible" style="display: block;" viewBox="0 0 105.383 98.7628" fill="none" xmlns="http://www.w3.org/2000/svg">
<g id="Group">
<path id="Vector" d="M55.0778 7.24301L38.8717 29.786L5.75506 40.8098H45.8249L55.0778 7.24301Z" fill="var(--fill-0, #F4F3F1)"/>
<path id="Vector_2" d="M40.6719 67.2751L51.5844 50.528C68.5644 44.4484 75.624 42.0094 75.624 42.0094L47.4179 41.973L40.6719 67.2751Z" fill="var(--fill-0, #F4F3F1)"/>
<path id="Vector_3" d="M30.5782 41.9728L29.3746 43.8803H42.2952C41.4862 44.6258 36.3984 44.5553 36.3984 44.5553H28.8788L27.8224 46.1089H41.9062C41.0252 47.4554 35.4132 47.3483 35.4132 47.3483H26.9371L25.7389 49.0453H41.2385C40.2117 51.1296 33.5421 51.0242 33.5421 51.0242H24.3637L23.0186 52.9315H39.6813C38.4466 55.7911 30.3663 55.6142 30.3663 55.6142H21.1122L19.2461 58.3369H38.0278C36.7531 61.197 28.7028 61.0192 28.7028 61.0192H17.3352L14.8677 64.5166H35.8379C34.2453 68.5812 24.0099 68.3693 24.0099 68.3693H12.1817L9.1122 72.752H33.0817C31.4946 77.3117 21.2238 77.0647 21.2238 77.0647H6.07256L1.69958 83.3547C1.69958 83.3547 21.0823 83.3547 25.5268 83.3547C29.9767 83.3547 34.1034 82.3634 35.2005 78.6885C35.7257 76.9226 40.7075 59.0409 45.4759 41.973L30.5782 41.9728Z" fill="var(--fill-0, #F4F3F1)"/>
<path id="Vector_4" d="M56.9495 50.9527C60.09 50.9527 62.6327 53.4929 62.6327 56.6411C62.6327 59.8202 60.09 62.3657 56.9495 62.3657C53.7732 62.3657 51.2308 59.8208 51.2308 56.6411C51.2306 53.4929 53.773 50.9527 56.9495 50.9527Z" fill="var(--fill-0, #F4F3F1)"/>
<path id="Vector_5" d="M10.0631 48.5841V42.0799H20.7985C20.7626 42.4694 20.6926 42.894 20.6926 43.2836C20.6926 43.8454 20.586 44.6258 20.586 45.2994C20.586 45.3343 20.586 45.3343 20.586 45.3343C20.586 47.7685 21.0109 50.386 21.7492 52.7893L15.8175 61.1965L13.9819 61.976L11.5142 55.9328L14.8673 54.5562C14.2651 52.6125 13.8404 50.5981 13.5926 48.5841H10.0631ZM43.3874 20.4937C43.6001 20.4573 43.8476 20.4573 44.0601 20.4224L48.8639 13.7767V9.75258H42.3305V13.3921C40.3177 13.5999 38.3047 13.9903 36.3984 14.5561L34.9883 11.2356L28.9856 13.7062L30.3661 17.0307C28.5603 17.9829 26.8668 19.1165 25.2785 20.3876L22.7756 17.8766L18.1485 22.4721L20.6566 24.9778C19.3868 26.5726 18.2546 28.268 17.2686 30.0699L13.9819 28.7236L11.5142 34.7318L15.5697 36.4268L23.4078 33.8148C23.5846 33.4958 23.762 33.177 23.9742 32.8231H23.938C24.5048 31.8717 25.1017 30.9507 25.7744 30.1054C27.1147 28.41 28.672 26.851 30.3963 25.5093C31.2461 24.8358 32.1661 24.239 33.1168 23.7075C33.8249 23.2822 34.563 22.8974 35.342 22.5786C35.3773 22.5436 35.4132 22.5436 35.4484 22.5087C35.5186 22.5087 35.589 22.4723 35.6252 22.4367C35.6954 22.4018 35.7667 22.3668 35.8371 22.3668C35.8668 22.3305 35.9086 22.3305 35.9786 22.2955C36.0493 22.2598 36.1504 22.2248 36.2216 22.1899C36.2571 22.1899 36.2921 22.1535 36.328 22.1535C36.3982 22.1186 36.4695 22.0828 36.575 22.0479C36.611 22.0479 36.6469 22.0129 36.6816 22.0129C36.7523 21.9765 36.8235 21.9414 36.8936 21.9414C36.9646 21.9058 37.0355 21.8707 37.1057 21.8707C37.1416 21.8343 37.1776 21.8343 37.2119 21.7993C37.3183 21.7993 37.3891 21.7644 37.4604 21.7286C37.4953 21.7286 37.5667 21.6937 37.6019 21.6937C37.6725 21.6575 37.7438 21.6224 37.8142 21.6224C37.8853 21.5874 37.9153 21.5874 37.9557 21.5517C38.3402 21.4454 38.7292 21.3383 39.1537 21.2321C40.53 20.8476 41.9407 20.5993 43.3874 20.4937Z" fill="var(--fill-0, #F4F3F1)"/>
<path id="Vector_6" d="M37.8859 77.2766C37.8859 77.2766 39.3319 74.7304 44.0955 74.7304C48.8639 74.7304 66.623 74.7304 66.623 74.7304C66.623 74.7304 73.6119 74.5901 77.8846 72.1855C82.1927 69.8219 83.9176 66.3244 85.1915 62.1893C86.4613 58.0541 99.7705 9.75299 99.7705 9.75299H56.3114L54.0564 18.0189H89.2163C89.2163 18.0189 89.1106 18.5146 88.8631 19.3597H53.8443L53.4196 20.9187H88.4378C88.2967 21.4454 88.1195 22.0826 87.9067 22.7555H52.8896L52.4643 24.3105H87.4869C87.2748 25.1198 87.0275 26.0053 86.7796 26.9217H51.761L51.301 28.4808H86.3541C86.076 29.4676 85.7926 30.5309 85.4743 31.5885H50.4514L50.0318 33.1063H85.0494C84.696 34.3766 84.3419 35.6882 83.9923 36.9933H48.935L48.5095 38.5477H83.5683C81.0597 47.5271 78.5871 56.3942 78.1321 57.8771C77.1759 60.9848 75.8357 63.6726 72.5845 65.474C69.3384 67.2757 64.0087 67.4173 64.0087 67.4173C64.0087 67.4173 48.4447 67.4173 44.8389 67.4173C41.2028 67.4173 40.1062 69.3263 40.1062 69.3263L37.8859 77.2766Z" fill="var(--fill-0, #F4F3F1)"/>
<path id="Vector_7" d="M36.7886 81.0926C36.7886 81.0926 38.1991 78.5473 42.9676 78.5473C47.7364 78.5473 72.2711 78.5473 72.2711 78.5473C72.2711 78.5473 75.9423 78.3699 80.2154 76.0016C84.4836 73.6371 87.2746 70.1354 88.5433 66.0054C89.5704 62.5786 98.8906 28.8652 102.031 17.3808H98.9254C95.2548 30.7735 87.169 59.9622 86.1775 63.1404C84.9075 67.2757 83.2499 70.7728 78.9411 73.1419C74.6737 75.546 70.9312 75.6872 70.9312 75.6872C70.9312 75.6872 48.6869 75.6872 43.9184 75.6872C39.1545 75.6872 37.7442 78.2279 37.7442 78.2279L36.7886 81.0926Z" fill="var(--fill-0, #F4F3F1)"/>
<path id="Vector_8" d="M35.519 85.0509C35.519 85.0509 36.9295 82.5048 41.6935 82.5048C46.4674 82.5048 74.3905 82.5048 74.3905 82.5048C74.3905 82.5048 79.1898 82.3636 83.4625 79.9591C87.7707 77.5954 90.9468 74.0937 92.2158 69.9637C93.2064 66.7084 101.818 35.9353 105.383 23.105H101.889C98.0051 37.1349 90.5923 64.0617 89.6418 67.0983C88.368 71.2336 85.8945 74.7306 81.5916 77.1347C77.3181 79.4992 74.0362 79.6405 74.0362 79.6405C74.0362 79.6405 47.4179 79.6405 42.6492 79.6405C37.8859 79.6405 36.4701 82.1862 36.4701 82.1862L35.519 85.0509Z" fill="var(--fill-0, #F4F3F1)"/>
<path id="Vector_9" d="M3.49883 91.0179C3.5705 90.8814 3.71199 90.6337 3.88353 90.2436C3.95905 90.1373 4.02503 89.9601 4.13181 89.7118C3.99559 89.4288 3.78203 89.0391 3.49904 88.5835C3.46371 88.5124 3.18072 88.088 2.7205 87.2724C2.36686 86.7811 2.15898 86.3918 2.0181 86.1437C2.08874 86.1437 2.18984 86.1437 2.33134 86.179C2.47304 86.179 2.5786 86.179 2.64986 86.179C2.7205 86.179 2.82708 86.179 2.96838 86.179C3.10987 86.1437 3.21665 86.1437 3.28689 86.1437C3.35714 86.2857 3.49863 86.4976 3.67586 86.8524C3.71199 86.9231 3.92393 87.237 4.23717 87.8037C4.48545 88.1938 4.62715 88.4415 4.66207 88.5478C4.76865 88.3704 4.98079 87.9807 5.22886 87.414C5.37077 87.1001 5.5823 86.6746 5.8255 86.1437L6.14382 86.179L6.49726 86.1437C6.35596 86.3918 6.10829 86.8881 5.75506 87.591C5.40528 88.2643 5.08717 88.9017 4.76865 89.4995C4.41501 90.2436 4.20185 90.7398 4.09588 91.0179C4.06583 91.0179 4.02523 91.0179 3.95905 91.0179C3.88353 90.9822 3.81776 90.9822 3.78223 90.9822L3.49883 91.0179Z" fill="var(--fill-0, #F4F3F1)"/>
<path id="Vector_10" d="M9.42605 91.0179V86.1443C9.49629 86.1443 9.56734 86.1443 9.67859 86.1792C9.81988 86.1792 9.88586 86.1792 9.96178 86.1792C10.028 86.1792 10.0984 86.1792 10.2048 86.1792C10.3467 86.1443 10.4167 86.1443 10.4882 86.1443V88.088C10.6301 88.088 10.8418 88.088 11.1254 88.088C11.3727 88.088 11.5146 88.1229 11.5856 88.1229C11.7576 88.1229 11.8638 88.1229 11.9701 88.088C12.3948 88.088 12.6427 88.088 12.6776 88.088V86.1443C12.7129 86.1443 12.8195 86.1443 12.9261 86.1792C13.0676 86.1792 13.1378 86.1792 13.2095 86.1792C13.2444 86.1792 13.351 86.1792 13.4515 86.1792C13.593 86.1443 13.6646 86.1443 13.7347 86.1443V91.0179C13.6646 91.0179 13.5932 91.0179 13.4874 91.0179C13.3512 90.9822 13.2799 90.9822 13.2095 90.9822C13.1376 90.9822 13.0676 90.9822 12.9261 91.0179C12.8197 91.0179 12.7485 91.0179 12.6776 91.0179V88.6538C12.5361 88.6538 12.324 88.6538 12.0406 88.6185C11.7574 88.6185 11.5856 88.6185 11.5856 88.6185C11.4037 88.6185 11.2314 88.6185 11.0192 88.6185C10.8071 88.6185 10.6301 88.6538 10.4884 88.6538V91.0179C10.4525 91.0179 10.3473 91.0179 10.2403 91.0179C10.0988 90.9822 10.0284 90.9822 9.96219 90.9822C9.88647 90.9822 9.82069 90.9822 9.70904 91.0179C9.56754 91.0179 9.49629 91.0179 9.42605 91.0179Z" fill="var(--fill-0, #F4F3F1)"/>
<path id="Vector_11" d="M17.1277 91.0179V86.1443C17.1986 86.1443 17.2997 86.1443 17.4061 86.1443C17.5118 86.1792 17.618 86.1792 17.6889 86.1792C17.7238 86.1792 17.8301 86.1792 17.9369 86.1443C18.0433 86.1443 18.1489 86.1443 18.2203 86.1443V89.4648C18.6093 89.0393 19.0642 88.5126 19.6308 87.8397C20.126 87.1669 20.5513 86.6043 20.9004 86.1443C20.9711 86.1443 21.0419 86.1443 21.0823 86.1443C21.1122 86.1443 21.1838 86.1443 21.2541 86.1443C21.36 86.1443 21.396 86.1443 21.4309 86.1443V91.0179C21.396 91.0179 21.2894 91.0179 21.1838 91.0179C21.0823 90.9822 20.9709 90.9822 20.9004 90.9822C20.8698 90.9822 20.763 90.9822 20.6574 91.0179C20.5515 91.0179 20.4447 91.0179 20.3742 91.0179V87.6617C19.9853 88.1229 19.4891 88.69 18.9936 89.3225C18.4674 89.9603 18.0433 90.527 17.6889 91.0179C17.6533 91.0179 17.618 91.0179 17.547 91.0179C17.5116 91.0179 17.4765 91.0179 17.4765 91.0179C17.4061 91.0179 17.3701 91.0179 17.2997 91.0179C17.2284 91.0179 17.1982 91.0179 17.1277 91.0179Z" fill="var(--fill-0, #F4F3F1)"/>
<path id="Vector_12" d="M26.4825 88.1942C26.5836 88.1942 26.6541 88.1227 26.7605 88.0522C26.8317 87.9807 26.9024 87.8744 26.9736 87.7328C27.0089 87.5916 27.0441 87.4494 27.0441 87.3081C27.0441 87.0657 26.9736 86.8888 26.8317 86.7461C26.7605 86.6403 26.6242 86.5691 26.4825 86.5691V86.1441H26.6902C27.0792 86.1441 27.4334 86.2148 27.6807 86.356C27.9641 86.5691 28.1056 86.8524 28.1056 87.2374C28.1056 87.5556 27.9994 87.8037 27.7519 88.0164C27.5392 88.1942 27.2566 88.3001 26.9371 88.3704V88.4066C27.2917 88.4773 27.539 88.5478 27.7871 88.6902C28.0705 88.9021 28.2122 89.2165 28.2122 89.6058C28.2122 90.067 28.0347 90.421 27.6807 90.6689C27.3626 90.8816 26.9736 90.9824 26.4825 90.9824V90.5626C26.624 90.5272 26.7253 90.4559 26.8672 90.3145C27.0438 90.1725 27.1153 89.9248 27.1153 89.6411C27.1153 89.2868 27.0091 89.0033 26.796 88.8621C26.7257 88.7959 26.6242 88.7605 26.4829 88.7248V88.1942H26.4825ZM25.9163 86.5691L26.27 86.533C26.3404 86.533 26.4121 86.533 26.4825 86.5691V86.1441H24.8544V90.9826H26.4823V90.5628C26.4117 90.5628 26.3404 90.5981 26.27 90.5981H25.9163V88.6545C26.1285 88.6545 26.3404 88.6906 26.4825 88.7256V88.1951C26.4119 88.23 26.2702 88.23 26.1285 88.23H25.9163V86.5691Z" fill="var(--fill-0, #F4F3F1)"/>
<path id="Vector_13" d="M31.3168 86.1443H34.0322C34.0322 86.215 34.0021 86.2505 34.0021 86.3212C34.0021 86.3562 34.0021 86.4271 34.0021 86.4629C34.0021 86.4982 34.0021 86.5332 34.0021 86.6041C34.0021 86.6748 34.0322 86.7112 34.0322 86.7461C33.7898 86.7112 33.5417 86.7112 33.2583 86.6746C33.0102 86.6746 32.7281 86.6746 32.3734 86.6746V88.1938H33.1168C33.2583 88.1938 33.3651 88.1938 33.5066 88.1938C33.6124 88.1585 33.7898 88.1585 34.0017 88.1227C34.0017 88.1585 34.0017 88.1938 33.9611 88.2643C33.9611 88.3355 33.9611 88.406 33.9611 88.4413C33.9611 88.4763 33.9611 88.5124 33.9611 88.5829C34.0017 88.6532 34.0017 88.6892 34.0017 88.7242C33.7183 88.6892 33.4353 88.6892 33.117 88.6892H32.3734V90.4909C32.7281 90.4909 33.0104 90.4547 33.2583 90.4547C33.5417 90.4547 33.7896 90.4197 34.0322 90.3848C34.0322 90.4197 34.0021 90.4907 34.0021 90.526C34.0021 90.5967 34.0021 90.6323 34.0021 90.703C34.0021 90.703 34.0021 90.7737 34.0021 90.8399C34.0021 90.9098 34.0322 90.9458 34.0322 90.9812H31.3168V86.1443Z" fill="var(--fill-0, #F4F3F1)"/>
<path id="Vector_14" d="M38.7298 86.1443H38.8717C39.893 86.1443 40.3885 86.5332 40.3885 87.3439C40.3885 87.9459 40.1766 88.3357 39.7919 88.5837C39.5398 88.725 39.19 88.8306 38.7302 88.8623V88.4068C38.9076 88.3357 39.0487 88.2294 39.1551 88.0886C39.2269 87.9116 39.297 87.733 39.297 87.4853C39.297 87.2019 39.2267 86.9591 39.0848 86.7813C39.0136 86.6754 38.8721 86.5693 38.7302 86.5332L38.7298 86.1443ZM38.1993 88.9019C38.3761 88.9019 38.5529 88.9019 38.7298 88.8623V88.4068C38.6944 88.4421 38.6944 88.4421 38.6595 88.4421C38.5176 88.4771 38.341 88.4771 38.1991 88.4771V86.5338H38.6242C38.6595 86.5338 38.6944 86.5338 38.7298 86.5338V86.1443L37.1063 86.1445V91.0185C37.1782 91.0185 37.2482 91.0185 37.3897 91.0185C37.4957 90.9828 37.6025 90.9828 37.6731 90.9828C37.7091 90.9828 37.815 90.9828 37.9161 91.0185C38.0576 91.0185 38.1281 91.0185 38.1995 91.0185L38.1993 88.9019Z" fill="var(--fill-0, #F4F3F1)"/>
<path id="Vector_15" d="M46.9932 90.1723L47.064 90.208L46.9228 90.8109C46.7098 90.9113 46.4672 90.9828 46.2551 91.0529C46.0068 91.0886 45.7542 91.1244 45.5064 91.1244C44.7327 91.1244 44.0957 90.9113 43.6001 90.4557C43.0743 90.0306 42.8261 89.429 42.8261 88.725C42.8261 87.8397 43.1093 87.1669 43.6708 86.6748C44.1657 86.2505 44.8391 86.002 45.6477 86.002C45.8957 86.002 46.1428 86.0378 46.4264 86.1083C46.6745 86.179 46.8866 86.2499 47.0992 86.356L46.9579 87.1001H46.8513C46.7098 86.9231 46.5383 86.7461 46.3251 86.6392C46.113 86.4976 45.8957 86.4265 45.6477 86.4265C45.1221 86.4265 44.6976 86.6746 44.3789 87.1297C44.1308 87.5552 44.0242 88.0158 44.0242 88.6183C44.0242 89.2512 44.1657 89.7474 44.4491 90.1371C44.7325 90.4915 45.1521 90.7042 45.683 90.7042C45.9311 90.7042 46.143 90.6331 46.3964 90.5622C46.6085 90.4555 46.8164 90.3147 46.9932 90.1723Z" fill="var(--fill-0, #F4F3F1)"/>
<path id="Vector_16" d="M50.1684 91.0179V86.1443C50.2397 86.1443 50.3103 86.1443 50.4518 86.1443C50.5582 86.1792 50.664 86.1792 50.6993 86.1792C50.771 86.1792 50.8769 86.1792 50.9827 86.1443C51.0887 86.1443 51.1959 86.1443 51.2661 86.1443V89.4648C51.6557 89.0393 52.1108 88.5126 52.6415 87.8397C53.1727 87.1669 53.5968 86.6043 53.9454 86.1443C54.016 86.1443 54.0867 86.1443 54.1222 86.1443C54.1575 86.1443 54.2286 86.1443 54.2988 86.1443C54.4054 86.1443 54.4405 86.1443 54.4756 86.1443V91.0179C54.4405 91.0179 54.3343 91.0179 54.2286 91.0179C54.1222 90.9822 54.0156 90.9822 53.9452 90.9822C53.9143 90.9822 53.8037 90.9822 53.7024 91.0179C53.5966 91.0179 53.4909 91.0179 53.4194 91.0179V87.6617C53.0306 88.1229 52.5351 88.69 52.0391 89.3225C51.5136 89.9603 51.0883 90.527 50.6987 91.0179C50.6987 91.0179 50.6284 91.0179 50.5931 91.0179C50.5576 91.0179 50.5217 91.0179 50.5217 91.0179C50.451 91.0179 50.3802 91.0179 50.3448 91.0179C50.2795 91.0179 50.2395 91.0179 50.1684 91.0179Z" fill="var(--fill-0, #F4F3F1)"/>
<path id="Vector_17" d="M59.8066 86.6403V91.0183C59.7713 91.0183 59.6649 91.0183 59.5232 91.0183C59.3507 90.9826 59.2802 90.9826 59.2802 90.9826C59.2451 90.9826 59.1389 90.9826 59.0322 91.0183C58.8905 91.0183 58.8202 91.0183 58.7494 91.0183V86.6403C58.5011 86.6403 58.2889 86.6752 58.0766 86.6752C57.8998 86.7118 57.6876 86.7118 57.4448 86.7467C57.4448 86.6752 57.4448 86.6405 57.4448 86.5698C57.4804 86.5336 57.4804 86.4982 57.4804 86.4277C57.4804 86.3924 57.4448 86.3219 57.4448 86.2865C57.4448 86.2154 57.4448 86.1798 57.4448 86.1449H61.0805C61.0805 86.2512 61.0805 86.3568 61.0452 86.4279C61.0452 86.499 61.0452 86.5338 61.0805 86.6049C61.0805 86.6411 61.0805 86.712 61.0805 86.7469C60.7626 86.712 60.549 86.6754 60.4788 86.6754C60.2668 86.6748 60.0186 86.6403 59.8066 86.6403Z" fill="var(--fill-0, #F4F3F1)"/>
<path id="Vector_18" d="M63.9727 86.1443H66.6937C66.6579 86.215 66.6579 86.2505 66.6579 86.3212C66.6579 86.3562 66.6579 86.4271 66.6579 86.4629C66.6579 86.4982 66.6579 86.5332 66.6579 86.6041C66.6579 86.6748 66.6937 86.7112 66.6937 86.7461C66.4456 86.7112 66.1983 86.7112 65.9147 86.6746C65.6664 86.6746 65.3893 86.6746 65.0345 86.6746V88.1938H65.7732C65.9147 88.1938 66.0211 88.1938 66.163 88.1938C66.2688 88.1585 66.446 88.1585 66.6579 88.1227C66.6579 88.1585 66.6226 88.1938 66.6226 88.2643C66.6226 88.3355 66.6226 88.406 66.6226 88.4413C66.6226 88.4763 66.6226 88.5124 66.6226 88.5829C66.6226 88.6532 66.6579 88.6892 66.6579 88.7242C66.3745 88.6892 66.0915 88.6892 65.7732 88.6892H65.0345V90.4909C65.3893 90.4909 65.6664 90.4547 65.9147 90.4547C66.1981 90.4547 66.4456 90.4197 66.6937 90.3848C66.6579 90.4197 66.6579 90.4907 66.6579 90.526C66.6579 90.5967 66.6579 90.6323 66.6579 90.703C66.6579 90.703 66.6579 90.7737 66.6579 90.8399C66.6579 90.9098 66.6937 90.9458 66.6937 90.9812H63.9727V86.1443Z" fill="var(--fill-0, #F4F3F1)"/>
<path id="Vector_19" d="M71.7049 86.6403V91.0183C71.6342 91.0183 71.5281 91.0183 71.3868 91.0183C71.2449 90.9826 71.174 90.9826 71.174 90.9826C71.1026 90.9826 71.0017 90.9826 70.8906 91.0183C70.7895 91.0183 70.6831 91.0183 70.6129 91.0183V86.6403C70.3654 86.6403 70.1525 86.6752 69.9753 86.6752C69.7625 86.7118 69.5504 86.7118 69.3025 86.7467C69.3025 86.6752 69.3025 86.6405 69.3386 86.5698C69.3386 86.5336 69.3386 86.4982 69.3386 86.4277C69.3386 86.3924 69.3386 86.3219 69.3386 86.2865C69.3025 86.2154 69.3025 86.1798 69.3025 86.1449H72.9743C72.9392 86.2512 72.9392 86.3568 72.9034 86.4279C72.9034 86.499 72.9392 86.5338 72.9392 86.6049C72.9392 86.6411 72.9392 86.712 72.9743 86.7469C72.6247 86.712 72.413 86.6754 72.3419 86.6754C72.1294 86.6748 71.9174 86.6403 71.7049 86.6403Z" fill="var(--fill-0, #F4F3F1)"/>
<path id="Vector_20" d="M11.1605 66.466L7.31172 68.5099C7.2766 68.4749 7.24128 68.4042 7.20595 68.3026C7.17022 68.1963 7.17023 68.1261 7.13571 68.0541C7.09978 68.0192 7.06446 67.9485 6.99381 67.8775C6.92296 67.7713 6.88784 67.7355 6.85232 67.6648L9.49649 66.2533C9.00643 66.147 8.36959 66.0048 7.59065 65.8278C6.88764 65.7219 6.24999 65.6147 5.72441 65.5448C5.68908 65.4728 5.65376 65.4377 5.65376 65.367C5.61762 65.367 5.61762 65.2959 5.5823 65.2607C5.54698 65.1892 5.51206 65.1187 5.51206 65.1187L9.35479 63.0336C9.39539 63.1051 9.42625 63.1756 9.46624 63.2471C9.49629 63.3528 9.53729 63.4241 9.56754 63.4948C9.60814 63.5306 9.63839 63.6011 9.67879 63.6722C9.74436 63.7778 9.78009 63.8483 9.82008 63.8841L7.13551 65.2965C7.70129 65.4377 8.33427 65.5799 9.07667 65.7219C9.78009 65.8631 10.4169 65.97 10.9484 66.0405C10.9484 66.0755 10.9837 66.1112 10.9837 66.1112C11.019 66.147 11.019 66.1819 11.0544 66.2175C11.0544 66.2533 11.0893 66.289 11.1256 66.3238C11.125 66.3589 11.1605 66.4302 11.1605 66.466Z" fill="var(--fill-0, #F4F3F1)"/>
<path id="Vector_21" d="M8.01474 60.1036C8.08599 60.2806 8.15623 60.4226 8.22749 60.5587L6.35596 61.3032L8.72303 61.7988L8.93497 62.3305L9.14772 62.7857L9.07626 62.8206L6.10829 62.1178C5.96659 62.3655 5.8251 62.6794 5.68868 62.9984C5.4406 63.4588 5.26378 63.9195 5.08716 64.3092H5.05164C5.05164 64.2734 5.01571 64.2029 5.01571 64.168C4.98059 64.0964 4.98059 64.0609 4.94526 63.9894C4.90994 63.8837 4.87421 63.7774 4.80377 63.7067C5.01571 63.3166 5.22886 62.9626 5.44101 62.5776C5.61762 62.2241 5.82571 61.8335 6.03744 61.4446L4.16693 62.1879C4.16693 62.0471 4.09547 61.8685 4.02503 61.7275C3.99539 61.5858 3.92393 61.4444 3.81756 61.3024L5.68908 60.5579C5.29951 60.4218 4.80417 60.2798 4.16713 60.0662C3.85369 59.9963 3.53497 59.89 3.21665 59.7836C3.21665 59.6773 3.18032 59.5704 3.14499 59.465C3.10987 59.4288 3.07435 59.3587 3.03862 59.3234C3.03862 59.2522 3.0035 59.2167 2.96817 59.1468H3.00329C3.32161 59.288 3.60521 59.3937 3.88313 59.5357C4.09507 59.6068 4.37847 59.7127 4.73251 59.8193C4.94526 59.89 5.12208 59.9606 5.26398 60.0313L6.88743 57.4502L6.95768 57.4148L7.13531 57.9104L7.38277 58.4068L6.00212 60.4212L7.87263 59.6771C7.91404 59.7121 7.91405 59.783 7.97921 59.9248C8.01474 60.0323 8.01474 60.1036 8.01474 60.1036Z" fill="var(--fill-0, #F4F3F1)"/>
<path id="Vector_22" d="M2.7203 58.4434L2.04794 56.0748C2.11838 56.0748 2.15878 56.0748 2.18944 56.0748C2.26029 56.0748 2.2952 56.039 2.33093 56.039C2.36646 56.039 2.40138 56.039 2.47263 56.0041C2.50795 55.9683 2.54328 55.9683 2.57819 55.9326C2.61413 56.1457 2.64965 56.3934 2.7201 56.6059C2.75603 56.8536 2.82668 57.0964 2.89753 57.3803L4.23697 56.9957L4.06523 56.3574C4.02483 56.2512 3.99519 56.1455 3.95885 56.0388C3.92393 55.9326 3.85329 55.7903 3.78203 55.6134C3.81756 55.6134 3.85349 55.6134 3.92393 55.6134C3.95885 55.6134 4.02503 55.5784 4.02503 55.5784C4.06543 55.5784 4.09568 55.5422 4.16693 55.5422C4.23717 55.5073 4.27311 55.4707 4.30843 55.4707C4.34355 55.7192 4.37887 55.9675 4.44972 56.2506L4.66166 56.8888L6.21386 56.4275C6.10809 56.1449 6.03704 55.897 5.96639 55.6843C5.86022 55.4707 5.78937 55.2588 5.724 55.0514C5.75486 55.0514 5.78937 55.0514 5.86022 55.0156C5.89554 55.0156 5.93046 55.0156 5.96639 55.0156C6.00212 54.9806 6.03704 54.9806 6.10809 54.9457C6.14362 54.9457 6.21386 54.9091 6.21386 54.9091L6.92235 57.2378L2.7203 58.4434Z" fill="var(--fill-0, #F4F3F1)"/>
<path id="Vector_23" d="M4.55549 54.6275V53.6699L5.4408 53.4579L5.37036 53.1389C5.33504 52.9671 5.22846 52.7893 5.0155 52.6842C4.90974 52.6123 4.73211 52.5422 4.55508 52.5779V51.6211C4.76824 51.6569 4.98038 51.7278 5.157 51.9048C5.40508 52.1167 5.58189 52.4353 5.68847 52.8612L6.00192 54.3089L4.55549 54.6275ZM2.61433 54.0954V55.0826L4.55549 54.6275V53.6699L3.74711 53.8468C3.67606 53.4929 3.67606 53.2103 3.74711 53.0378C3.85369 52.8258 4.06563 52.6842 4.37928 52.5773C4.45033 52.5773 4.52077 52.5773 4.55589 52.5773V51.6205C4.41541 51.5856 4.27351 51.5856 4.13201 51.6205C3.78223 51.7272 3.53517 51.9042 3.42859 52.2234C3.35754 52.4353 3.32242 52.6842 3.35754 52.9973H3.2873C3.18072 52.7192 3.03882 52.5072 2.82708 52.3652C2.75623 52.3294 2.68518 52.2937 2.61453 52.2589V53.1095C2.65006 53.1095 2.68538 53.1095 2.75644 53.1095C2.8622 53.1095 2.96858 53.1749 3.07475 53.2111C3.1454 53.2818 3.21665 53.3523 3.25157 53.423C3.2873 53.4937 3.32222 53.6 3.35734 53.742L3.39347 53.919L2.61433 54.0954ZM1.94664 54.2727L2.61433 54.0954V55.0826L1.77002 55.2596L1.41638 53.6699C1.34492 53.3159 1.34492 52.9971 1.41638 52.7893C1.52195 52.4715 1.7345 52.2937 2.08874 52.2234C2.26069 52.1872 2.43731 52.1872 2.61474 52.2583V53.1093C2.54368 53.1093 2.43731 53.1093 2.36686 53.1093C2.15919 53.1743 1.98217 53.2816 1.90644 53.4228C1.80535 53.5648 1.80535 53.7418 1.84128 53.9545L1.94664 54.2727Z" fill="var(--fill-0, #F4F3F1)"/>
<path id="Vector_24" d="M4.09547 47.4196L4.13161 47.3483L4.69739 47.4196C4.80377 47.5974 4.87441 47.7687 4.94547 47.9821C5.01591 48.194 5.08737 48.4065 5.12229 48.6193C5.19354 49.3286 5.08737 49.9262 4.73271 50.4209C4.41521 50.9169 3.92414 51.1957 3.25137 51.2666C2.47304 51.3724 1.84107 51.1951 1.34472 50.7757C0.919826 50.3502 0.636631 49.7839 0.565984 49.0451C0.530661 48.8318 0.530661 48.6191 0.565984 48.3708C0.565984 48.1239 0.636834 47.9105 0.707887 47.7336L1.38045 47.8043V47.8748C1.23895 48.0168 1.09705 48.1938 1.02641 48.4063C0.955556 48.5839 0.920232 48.7966 0.920232 49.0092C0.991691 49.5052 1.23895 49.8538 1.69978 50.067C2.08874 50.2435 2.54368 50.3147 3.03902 50.2435C3.60582 50.1728 4.02523 49.995 4.34416 49.677C4.62756 49.3631 4.76905 48.9734 4.6978 48.5126C4.6978 48.3007 4.62735 48.1237 4.48565 47.9103C4.37887 47.7338 4.23717 47.5566 4.09547 47.4196Z" fill="var(--fill-0, #F4F3F1)"/>
<path id="Vector_25" d="M4.73251 46.6404H0.354045C0.354045 46.5699 0.354044 46.4984 0.394646 46.3921C0.394646 46.2865 0.394646 46.2151 0.394646 46.1444C0.394646 46.1087 0.394646 46.0032 0.394646 45.8961C0.354044 45.7899 0.354045 45.7192 0.354045 45.6842H2.36666C1.7345 45.1218 1.06153 44.5553 0.354045 44.0223C0.354045 43.9874 0.394646 43.9161 0.394646 43.8454C0.394646 43.7391 0.394646 43.7035 0.394646 43.6684C0.394646 43.632 0.394646 43.5668 0.394646 43.4955C0.394646 43.4605 0.354045 43.3898 0.354045 43.3185H0.424894C0.636834 43.5668 0.88491 43.774 1.09726 44.0221C1.23916 44.1642 1.4515 44.3424 1.7349 44.5901C1.90685 44.767 2.04835 44.8733 2.19004 44.9802L4.66268 43.212H4.73332L4.698 43.7387L4.73332 44.271L2.72091 45.684H4.73332C4.73332 45.719 4.73332 45.7897 4.73332 45.8959C4.698 46.0028 4.698 46.1085 4.698 46.1442C4.698 46.2149 4.698 46.2863 4.73332 46.3919C4.73251 46.4984 4.73251 46.5699 4.73251 46.6404Z" fill="var(--fill-0, #F4F3F1)"/>
<path id="Vector_26" d="M4.66207 42.929L0.323391 42.4694C0.323391 42.4344 0.323391 42.3276 0.354045 42.2569C0.394647 42.1506 0.394646 42.0443 0.394646 42.0094C0.424691 41.9378 0.424691 41.8673 0.394646 41.7611C0.394646 41.6595 0.394646 41.589 0.394646 41.5175L3.39327 41.831C3.03882 41.4469 2.5786 40.9865 2.04814 40.4194C1.52174 39.8934 1.06193 39.4681 0.637037 39.1133C0.672969 39.0428 0.67297 38.9715 0.67297 38.9364C0.67297 38.9006 0.67297 38.8657 0.67297 38.7951C0.708293 38.7236 0.708293 38.6531 0.708293 38.6174L5.05184 39.0776C5.05184 39.1489 5.05184 39.2196 5.01591 39.3259C5.01591 39.4327 4.98079 39.5035 4.98079 39.5734C4.98079 39.6097 4.98079 39.6804 4.98079 39.7867C4.98079 39.893 4.98079 39.9986 4.94547 40.035L1.98196 39.7154C2.33113 40.1358 2.79135 40.596 3.32201 41.1283C3.85349 41.6591 4.30843 42.0797 4.69739 42.4692C4.69739 42.4692 4.69739 42.5049 4.69739 42.5399C4.69739 42.6112 4.69739 42.6112 4.69739 42.6462C4.69739 42.6819 4.66186 42.7524 4.66186 42.7882C4.66207 42.8235 4.66207 42.894 4.66207 42.929Z" fill="var(--fill-0, #F4F3F1)"/>
<path id="Vector_27" d="M5.15741 38.2335L1.13278 37.241V36.2848C1.13278 36.2484 1.13278 36.2484 1.1677 36.2484L4.06523 36.9575C3.78183 36.5316 3.39266 36.0062 2.93285 35.3684C2.47263 34.8013 2.08814 34.3053 1.73429 33.8855C1.73429 33.8142 1.76982 33.7793 1.76982 33.7435C1.80514 33.7086 1.80514 33.6372 1.80514 33.5665C1.84107 33.495 1.84107 33.4603 1.84107 33.4245L6.07277 34.4821C6.07277 34.5177 6.03744 34.589 6.03744 34.6946C6.00253 34.8011 5.9668 34.8724 5.93086 34.9431C5.93086 34.9781 5.93086 35.0488 5.89595 35.1557C5.89595 35.2619 5.86062 35.3682 5.86062 35.4031L2.93326 34.6597C3.25137 35.1199 3.64074 35.652 4.09568 36.248C4.52077 36.8509 4.94587 37.3468 5.26439 37.7713C5.26439 37.8079 5.26439 37.8428 5.26439 37.8784C5.22907 37.9133 5.22907 37.9133 5.22907 37.9499C5.22907 37.9848 5.19374 38.0555 5.19374 38.0911C5.19334 38.1271 5.15741 38.1923 5.15741 38.2335ZM1.13278 35.7223C1.20323 35.5811 1.27468 35.4391 1.3096 35.2971C1.38045 35.0136 1.38045 34.6948 1.34492 34.4122C1.3096 34.2045 1.23895 33.9912 1.13278 33.7791V35.7223ZM1.13278 37.241V36.2848C1.13278 36.3197 1.13278 36.3906 1.09685 36.4967C1.09685 36.603 1.09685 36.6737 1.06153 36.71C1.06153 36.7799 1.0262 36.8513 0.991286 36.9575C0.955556 37.064 0.919827 37.1345 0.919827 37.1703L1.13278 37.241ZM1.13278 33.7793C1.09685 33.7086 1.06153 33.6015 1.02641 33.5318L0.636834 33.7088C0.955556 34.2047 1.02641 34.695 0.920233 35.1561C0.849586 35.4035 0.743007 35.6163 0.601511 35.7939C0.425097 36.0064 0.25315 36.1779 2.68893e-09 36.3199L0.283195 36.6389C0.53127 36.4969 0.778331 36.285 0.955962 36.0765C1.02681 35.9708 1.09726 35.8646 1.13319 35.7226L1.13278 33.7793Z" fill="var(--fill-0, #F4F3F1)"/>
<path id="Vector_28" d="M3.85329 29.2187L7.44855 30.6713C7.44855 30.7014 7.4181 30.7729 7.34705 30.8786C7.31132 30.9857 7.27619 31.0555 7.27619 31.0911C7.24107 31.1626 7.20535 31.2331 7.16982 31.3394C7.13531 31.4459 7.13531 31.5164 7.09938 31.5513L3.03841 29.927L3.95865 27.6652C3.99519 27.7001 4.06502 27.7001 4.09547 27.7357C4.13161 27.7714 4.16693 27.7714 4.20165 27.8072C4.23677 27.8072 4.2731 27.8072 4.34335 27.8419C4.37867 27.8419 4.44952 27.8419 4.48484 27.8769C4.34335 28.1252 4.23656 28.3379 4.1312 28.5155C4.06543 28.6516 3.95885 28.8999 3.85329 29.2187Z" fill="var(--fill-0, #F4F3F1)"/>
<path id="Vector_29" d="M8.43963 23.7426C9.00623 24.0616 9.35479 24.4867 9.53709 25.0843C9.70843 25.7215 9.60814 26.3942 9.25349 27.0274C8.89985 27.6654 8.43983 28.0904 7.87304 28.2674C7.6613 28.3381 7.48935 28.3381 7.2766 28.3381V27.3813C7.48935 27.452 7.73134 27.4884 7.9445 27.452C8.36959 27.4171 8.68771 27.2043 8.90005 26.8146C9.14813 26.4306 9.14813 26.0047 8.90005 25.5792C8.68791 25.1903 8.33447 24.8707 7.803 24.593C7.63125 24.4867 7.44896 24.4154 7.2768 24.3796V23.3879C7.6611 23.3881 8.05087 23.5293 8.43963 23.7426ZM7.2764 28.3381V27.3813C7.09958 27.3464 6.95768 27.275 6.78086 27.1688C6.17914 26.8148 5.75506 26.4657 5.5823 26.0754C5.40548 25.6859 5.40548 25.2964 5.61762 24.9067C5.8255 24.5219 6.17935 24.3101 6.63936 24.2738C6.85211 24.2738 7.06426 24.3101 7.2766 24.38V23.3883C7.13571 23.3883 6.99361 23.4238 6.88764 23.4238C6.24999 23.5659 5.72441 23.9911 5.29951 24.6988C4.94567 25.3677 4.83909 26.0405 5.01611 26.6425C5.15761 27.2399 5.51226 27.7003 6.1091 28.0191C6.49746 28.2325 6.88743 28.3381 7.2764 28.3381Z" fill="var(--fill-0, #F4F3F1)"/>
<path id="Vector_30" d="M11.934 21.0953L12.0051 21.0604L12.3942 21.4801C12.3587 21.6933 12.2876 21.9054 12.2174 22.1179C12.1114 22.2949 12.0048 22.5083 11.8634 22.6852C11.4738 23.2471 10.9835 23.6008 10.4167 23.7428C9.85033 23.8849 9.28434 23.7778 8.75835 23.4238C8.08579 22.9636 7.73113 22.4012 7.6613 21.764C7.63125 21.1611 7.8028 20.5644 8.22769 19.9621C8.33447 19.7496 8.51007 19.6076 8.68791 19.4298C8.86473 19.2941 9.04155 19.152 9.21877 19.0458L9.67899 19.5362L9.63859 19.6431C9.42645 19.6431 9.21898 19.6781 9.00663 19.7843C8.79368 19.8551 8.65198 19.9969 8.54621 20.1738C8.26281 20.5642 8.19257 20.9892 8.40471 21.4448C8.54621 21.8337 8.86493 22.1891 9.28475 22.5079C9.74477 22.8261 10.1701 22.9632 10.6301 22.9276C11.0544 22.9276 11.4035 22.72 11.6561 22.3297C11.7978 22.1527 11.8636 21.9757 11.8991 21.728C11.9695 21.5149 11.9695 21.303 11.934 21.0953Z" fill="var(--fill-0, #F4F3F1)"/>
<path id="Vector_31" d="M13.5219 20.3161C13.4866 20.1741 13.3857 19.9621 13.2089 19.6076C13.173 19.5013 13.1023 19.3243 13.0311 19.1165C12.7477 19.0458 12.3585 18.9746 11.8634 18.9039C11.7976 18.9039 11.3372 18.8332 10.5231 18.727C9.96158 18.6207 9.56734 18.5851 9.32474 18.5144C9.35459 18.4787 9.42625 18.4082 9.53709 18.3019C9.60814 18.2304 9.67859 18.1599 9.74436 18.09C9.77989 18.0542 9.82008 17.9831 9.88586 17.8766C9.96158 17.771 10.0278 17.6996 10.0631 17.6291C10.2046 17.6639 10.4165 17.7348 10.7712 17.771C10.8414 17.8059 11.1603 17.8409 11.7568 17.9479C12.1463 18.0186 12.394 18.0542 12.5 18.09C12.4647 17.9124 12.2872 17.5576 12.0751 17.031C11.9336 16.7833 11.7568 16.3938 11.5138 15.898L11.721 15.6852L11.8979 15.4369C12.004 15.6852 12.1809 16.1105 12.4643 16.7833C12.747 17.4164 12.9949 17.9829 13.243 18.5502C13.5211 19.2231 13.7333 19.6785 13.8748 19.8912C13.8398 19.9268 13.8398 19.9625 13.7686 19.9975C13.7333 20.0324 13.6979 20.0688 13.663 20.1038L13.5219 20.3161Z" fill="var(--fill-0, #F4F3F1)"/>
<path id="Vector_32" d="M15.6409 14.2733C15.6764 14.3076 15.7118 14.3076 15.7824 14.3438C16.3833 14.6272 17.0159 14.8747 17.6884 15.158L17.9014 14.9462C17.9367 15.0168 17.9721 15.0525 18.0072 15.0881C18.0784 15.158 18.0784 15.1937 18.1133 15.2246C18.1485 15.2651 18.1846 15.2951 18.2548 15.3309C18.3253 15.3658 18.3612 15.4014 18.3963 15.4365L18.3251 15.5073C18.2193 15.4729 18.0778 15.5436 17.901 15.6493C17.7595 15.7555 17.5817 15.8976 17.4057 16.0743L16.1009 17.416C15.8882 17.6287 15.7463 17.7706 15.6405 17.912V17.2439C15.676 17.1726 15.7463 17.1021 15.8525 17.0305C15.9944 16.8899 16.1358 16.7829 16.2061 16.6766C16.3127 16.5709 16.4544 16.4291 16.5957 16.2875C16.7022 16.1806 16.8439 16.0392 16.9142 15.9321C16.5246 15.7204 16.1005 15.5432 15.6756 15.3307C15.6401 15.3307 15.6401 15.3307 15.6401 15.2949V14.2733H15.6409ZM14.9373 17.912C14.9726 17.9475 15.0081 17.9827 15.0439 18.0182C15.1094 18.0538 15.1448 18.0896 15.1807 18.1595C15.2507 18.195 15.2865 18.23 15.322 18.3015C15.3626 18.3362 15.3926 18.372 15.4276 18.4078L15.4641 18.3362C15.4641 18.23 15.499 18.0894 15.6054 17.9473C15.6407 17.9473 15.6407 17.9118 15.6407 17.9118V17.2437C15.5695 17.2738 15.5343 17.3087 15.499 17.3453C15.3222 16.9604 15.1094 16.5354 14.9026 16.0394C14.7258 15.6141 14.5489 15.1937 14.3358 14.7327C14.7607 14.9105 15.1809 15.123 15.6409 15.2951V14.2733C15.0083 13.9901 14.4072 13.7418 13.8758 13.4981C13.8408 13.4981 13.8043 13.529 13.7696 13.564C13.7343 13.6347 13.6989 13.6702 13.6989 13.706C13.664 13.706 13.6277 13.7418 13.5928 13.7767C13.5221 13.8117 13.487 13.848 13.487 13.848C13.6991 14.3438 13.9111 14.7693 14.0532 15.158C14.23 15.5073 14.4074 15.9325 14.6196 16.4291C14.7964 16.8542 14.973 17.3089 15.1098 17.7342L14.9373 17.912Z" fill="var(--fill-0, #F4F3F1)"/>
<path id="Vector_33" d="M19.2766 12.7541L18.255 13.5999V13.1088L18.9219 12.5423L18.255 12.1522V11.0944L21.3241 12.7906C21.2888 12.8256 21.1836 12.8963 21.0821 13.0026C20.9707 13.0733 20.9002 13.1088 20.8694 13.1446C20.829 13.1795 20.7628 13.2502 20.657 13.3565C20.5511 13.4278 20.4806 13.4983 20.4806 13.4983C20.1972 13.3214 20.0202 13.1795 19.8783 13.1088C19.6655 12.9674 19.4536 12.8254 19.2766 12.7541ZM18.2552 13.9901C18.3255 14.2018 18.3965 14.4139 18.4317 14.5208C18.5031 14.6978 18.5685 14.8747 18.6089 14.981L18.3616 15.158L18.2555 15.2951L18.2552 13.9901ZM18.2552 13.5997V13.1086L18.0431 13.2856L17.5468 11.7326L18.2552 12.1518V11.094L17.1578 10.4912L16.9858 10.6332L16.7729 10.7752L18.1485 15.3658L18.255 15.2951V13.9901C18.2197 13.883 18.1844 13.7767 18.1485 13.6702L18.2552 13.5997Z" fill="var(--fill-0, #F4F3F1)"/>
<path id="Vector_34" d="M21.4658 10.4562L22.5279 12.0462C22.4571 12.0811 22.386 12.1169 22.3158 12.152C22.2094 12.2233 22.1388 12.2583 22.1026 12.2938C22.0324 12.3296 21.9971 12.3654 21.8905 12.4351C21.8203 12.5066 21.7492 12.5421 21.7139 12.5771L21.0415 11.5908V9.81922L21.2888 10.1374C21.3954 10.0675 21.5011 9.9962 21.6071 9.88973C21.7488 9.75258 21.8201 9.5756 21.7841 9.36307C21.7841 9.22165 21.7135 9.04488 21.6071 8.8677C21.4656 8.65435 21.3237 8.51232 21.152 8.44243C21.1118 8.40667 21.0817 8.40667 21.0413 8.40667V7.83957C21.6071 7.59676 22.0675 7.73798 22.3858 8.22908C22.6692 8.65435 22.7044 9.07962 22.5277 9.46974C22.3509 9.78895 21.9973 10.1025 21.4658 10.4562ZM21.0417 11.5908V9.81922L20.3389 8.69093L20.6568 8.47758C20.7626 8.3705 20.8998 8.3705 21.0417 8.40687V7.83978C20.9404 7.87533 20.7987 7.94665 20.6568 8.05231L19.3168 8.90285L21.0417 11.5908Z" fill="var(--fill-0, #F4F3F1)"/>
<path id="Vector_35" d="M27.1149 8.51253H27.2207L27.327 9.04488C27.2207 9.22165 27.079 9.39863 26.9022 9.5051C26.7253 9.64713 26.5536 9.78895 26.3402 9.88994C25.7034 10.2089 25.1372 10.2794 24.5357 10.1376C23.974 9.9964 23.5138 9.61096 23.2308 9.04508C22.8767 8.33576 22.8111 7.66849 23.0539 7.06543C23.301 6.53389 23.7259 6.07367 24.3983 5.72439C24.5759 5.65307 24.788 5.54762 25.031 5.51105C25.243 5.44115 25.491 5.40539 25.7034 5.44115L25.8449 6.07367L25.7746 6.10943C25.597 6.00296 25.3845 5.9674 25.1725 5.9674C24.9598 5.93164 24.7476 5.96741 24.5761 6.07367C24.1157 6.28621 23.9031 6.64016 23.8325 7.13614C23.7972 7.56141 23.9031 8.01675 24.1159 8.47778C24.3985 8.97356 24.7127 9.32832 25.1017 9.5053C25.491 9.68228 25.8802 9.68228 26.3402 9.47035C26.5128 9.36348 26.6537 9.22206 26.7954 9.04529C26.9371 8.90285 27.0436 8.69093 27.1149 8.51253Z" fill="var(--fill-0, #F4F3F1)"/>
<path id="Vector_36" d="M28.3539 4.62637L29.7288 8.3006C29.6939 8.3006 29.5873 8.33555 29.4807 8.3705C29.3393 8.40687 29.3039 8.44243 29.269 8.44243C29.2327 8.47738 29.1626 8.47738 29.0571 8.5487C28.9856 8.58365 28.879 8.61941 28.8437 8.65456L27.4332 4.98032C27.2203 5.05164 27.0434 5.1573 26.9021 5.22862C26.7602 5.29933 26.5836 5.36983 26.3766 5.4763C26.3402 5.44135 26.3402 5.37003 26.3402 5.33427C26.3402 5.29953 26.3 5.26438 26.3 5.22862C26.27 5.1573 26.27 5.12235 26.2349 5.08659C26.1995 5.05164 26.1995 5.01608 26.1632 4.98032L29.2325 3.81626C29.2688 3.88697 29.2688 3.99385 29.3039 4.06395C29.3039 4.0995 29.3393 4.16534 29.3746 4.2011C29.3746 4.23605 29.4105 4.27181 29.4458 4.30736C29.1273 4.37787 28.9507 4.44939 28.879 4.44939C28.7024 4.51929 28.5307 4.55485 28.3539 4.62637Z" fill="var(--fill-0, #F4F3F1)"/>
<path id="Vector_37" d="M31.5295 4.94517H31.5648C31.671 4.90941 31.7766 4.83809 31.848 4.80314C31.9187 4.76758 31.9538 4.69687 32.0248 4.62617C32.0955 4.51909 32.1312 4.41282 32.1312 4.2714C32.1312 4.16513 32.1312 4.02798 32.06 3.92233C31.9895 3.67403 31.8831 3.532 31.7416 3.46129C31.671 3.42634 31.5997 3.39079 31.5295 3.39079V2.96552C31.8476 2.89481 32.0953 2.85925 32.3383 2.92976C32.6213 3.00128 32.8342 3.2132 32.9398 3.532C33.0462 3.81586 33.0104 4.06354 32.8693 4.30696C32.7281 4.51888 32.551 4.69647 32.2674 4.80274V4.87345C32.5862 4.80274 32.8342 4.80274 33.0815 4.87345C33.4 4.97971 33.6124 5.19306 33.7187 5.51064C33.8251 5.90096 33.79 6.25085 33.5419 6.56904C33.33 6.85229 33.0106 7.06482 32.6213 7.17129L31.5297 7.5608V5.47569L32.0246 6.99431L32.3028 6.88805C32.5151 6.85229 32.6568 6.71026 32.7281 6.53328C32.8342 6.32136 32.8693 6.10882 32.763 5.86601C32.6568 5.54721 32.5151 5.36942 32.3026 5.29871C32.0951 5.22801 31.8476 5.22801 31.5291 5.33346L31.5295 4.94517ZM30.8923 3.56858L31.211 3.4615C31.3167 3.42655 31.4229 3.39099 31.5295 3.39099V2.96552C31.4944 3.00128 31.458 3.00148 31.458 3.00148L29.8705 3.49726L31.211 7.63252L31.5295 7.56121V5.4761L31.4944 5.36983C31.4944 5.33407 31.4944 5.33407 31.5295 5.33407V4.94517L31.3527 5.01588L30.8923 3.56858Z" fill="var(--fill-0, #F4F3F1)"/>
<path id="Vector_38" d="M33.8604 2.36896L36.2222 1.90813C36.2222 1.94369 36.2578 2.01379 36.2578 2.05016C36.2578 2.12087 36.2578 2.15582 36.2578 2.19198C36.2578 2.22693 36.2927 2.26269 36.2927 2.29784C36.3288 2.36916 36.3288 2.39923 36.3288 2.43418C36.1158 2.46994 35.9092 2.46994 35.6609 2.5055C35.449 2.54045 35.1658 2.57621 34.8822 2.64692L35.1302 3.99385L35.7975 3.85182C35.9094 3.85182 36.0095 3.81626 36.1161 3.7805C36.2224 3.74555 36.3641 3.70979 36.5409 3.67423C36.5409 3.67423 36.5409 3.70979 36.5759 3.7805C36.5759 3.85182 36.5759 3.88677 36.5759 3.92253C36.5759 3.95748 36.5759 3.99385 36.6118 4.06375C36.6477 4.0993 36.6477 4.16513 36.6477 4.20089C36.399 4.20089 36.1512 4.23584 35.8678 4.2716L35.2364 4.41282L35.5196 6.00276C35.8381 5.93144 36.0813 5.90117 36.3292 5.82578C36.5411 5.75914 36.7533 5.68863 36.9658 5.61792C36.9658 5.68863 36.9658 5.72419 36.9658 5.7949C36.9658 5.82578 36.9658 5.86622 37.0018 5.90117C37.0018 5.93124 37.0018 5.967 37.0369 6.03771C37.0369 6.07347 37.0722 6.14459 37.0722 6.17974L34.67 6.63996L33.8604 2.36896Z" fill="var(--fill-0, #F4F3F1)"/>
<path id="Vector_39" d="M37.6731 5.93144L37.2842 1.58832C37.3544 1.58832 37.4257 1.58832 37.5316 1.58832C37.6378 1.58832 37.709 1.58832 37.7795 1.58832C37.815 1.58832 37.9161 1.55336 38.0276 1.55336C38.1283 1.51842 38.1995 1.51842 38.2346 1.51842L38.4117 3.2132C38.5178 3.2132 38.73 3.2132 38.9427 3.17825C39.1902 3.17825 39.3319 3.17825 39.368 3.17825C39.5085 3.14331 39.6506 3.14331 39.7217 3.14331C40.1066 3.07199 40.3181 3.07199 40.3536 3.07199L40.1768 1.34144C40.2473 1.34144 40.3183 1.34144 40.4249 1.34144C40.5307 1.34144 40.6017 1.34144 40.6726 1.34144C40.7083 1.34144 40.8143 1.30588 40.9206 1.30588C41.0264 1.27033 41.0974 1.27032 41.1328 1.23456L41.5223 5.61813C41.487 5.61813 41.3808 5.61813 41.2743 5.61813C41.1681 5.61813 41.0974 5.61813 41.026 5.61813C40.9911 5.61813 40.9202 5.65307 40.8143 5.65307C40.7083 5.68883 40.6372 5.68884 40.5666 5.68884L40.389 3.56858C40.2834 3.56858 40.0708 3.60353 39.8234 3.60353C39.5806 3.60353 39.4385 3.63847 39.4036 3.63847C39.2621 3.63847 39.0852 3.63847 38.908 3.67423C38.7306 3.70979 38.5538 3.70979 38.4472 3.74555L38.625 5.86642C38.5889 5.86642 38.4835 5.86642 38.3767 5.86642C38.2704 5.86642 38.1999 5.86642 38.1648 5.86642C38.0935 5.86642 38.0282 5.90137 37.9167 5.90137C37.8148 5.93144 37.7444 5.93144 37.6731 5.93144Z" fill="var(--fill-0, #F4F3F1)"/>
<path id="Vector_40" d="M42.4367 5.4761V1.09335C42.472 1.09335 42.5786 1.12911 42.6844 1.12911C42.7903 1.12911 42.862 1.12911 42.8971 1.12911C42.9678 1.12911 43.0386 1.12911 43.1452 1.12911C43.251 1.12911 43.3171 1.09335 43.3874 1.09335V2.82451C43.5287 2.82451 43.7059 2.82451 43.9538 2.85945C44.1657 2.85945 44.3072 2.85945 44.3789 2.85945C44.5204 2.85945 44.6263 2.85945 44.7325 2.85945C45.0813 2.85945 45.2942 2.82451 45.3342 2.82451V1.09335C45.4053 1.09335 45.4761 1.12911 45.5772 1.12911C45.683 1.12911 45.754 1.12911 45.8249 1.12911C45.8598 1.12911 45.9309 1.12911 46.0415 1.12911C46.1428 1.12911 46.2549 1.09335 46.2847 1.09335V5.4761C46.2549 5.4761 46.1832 5.4761 46.0774 5.4761C45.9662 5.44115 45.8596 5.44115 45.8245 5.44115C45.7536 5.44115 45.6826 5.44115 45.5766 5.4761C45.4757 5.4761 45.4047 5.4761 45.3338 5.4761V3.35523C45.2224 3.35523 45.0504 3.35523 44.7674 3.32028C44.52 3.32028 44.3785 3.32028 44.3785 3.32028C44.2014 3.32028 44.0599 3.32028 43.8472 3.32028C43.6704 3.32028 43.4982 3.35523 43.387 3.35523V5.4761C43.3569 5.4761 43.2507 5.4761 43.1448 5.4761C43.0384 5.44115 42.9671 5.44115 42.8967 5.44115C42.8612 5.44115 42.7901 5.44115 42.684 5.4761C42.5788 5.4761 42.4722 5.4761 42.4367 5.4761Z" fill="var(--fill-0, #F4F3F1)"/>
<path id="Vector_41" d="M48.6518 3.00148H48.7575C49.6788 3.00148 50.139 3.35543 50.139 4.06395C50.139 4.59061 49.9614 4.94517 49.6075 5.19367C49.3601 5.33407 49.0407 5.44115 48.652 5.44115V5.01608C48.7933 4.98032 48.9354 4.87405 49.0058 4.73223C49.0767 4.59101 49.1473 4.41323 49.1473 4.16554C49.1473 3.92293 49.0765 3.74596 48.9705 3.56878C48.8643 3.4617 48.7571 3.39119 48.652 3.35543L48.6518 3.00148ZM50.6993 5.4761V1.09335C50.7352 1.09335 50.8408 1.12911 50.9474 1.12911C51.054 1.12911 51.1242 1.12911 51.1597 1.12911C51.231 1.12911 51.3014 1.12911 51.4078 1.12911C51.5142 1.12911 51.5846 1.09335 51.6559 1.09335V5.4761C51.6197 5.4761 51.5144 5.4761 51.4078 5.4761C51.3016 5.44115 51.231 5.44115 51.1597 5.44115C51.1242 5.44115 51.054 5.44115 50.9474 5.4761C50.8408 5.4761 50.7352 5.4761 50.6993 5.4761ZM48.1613 1.09335C48.0904 1.09335 48.0198 1.09335 47.9136 1.09335C47.807 1.09335 47.7364 1.09335 47.6649 1.09335C47.6296 1.09335 47.5237 1.09335 47.4175 1.09335C47.3113 1.09335 47.2398 1.09335 47.2049 1.09335V5.44115H48.4745C48.5095 5.44115 48.5852 5.44115 48.6514 5.44115V5.01608C48.6164 5.05164 48.5852 5.05164 48.5852 5.05164C48.5095 5.05164 48.4447 5.08659 48.3734 5.08659C48.3028 5.08659 48.2317 5.08659 48.1611 5.08659V3.35543H48.545C48.5854 3.35543 48.6168 3.35543 48.6516 3.35543V3.00148H48.1611V1.09335H48.1613Z" fill="var(--fill-0, #F4F3F1)"/>
<path id="Vector_42" d="M52.5353 5.4761V1.09335C52.5708 1.09335 52.6768 1.12911 52.783 1.12911C52.8895 1.12911 52.9598 1.12911 53.0312 1.12911C53.0664 1.12911 53.1374 1.12911 53.2432 1.12911C53.3494 1.12911 53.4561 1.09335 53.4913 1.09335V4.09951C53.8445 3.71 54.2645 3.21341 54.7599 2.61197C55.2197 2.05016 55.6098 1.55377 55.9227 1.09335C55.9943 1.09335 56.0347 1.09335 56.0646 1.09335C56.0999 1.09335 56.1764 1.09335 56.2414 1.09335C56.312 1.09335 56.348 1.09335 56.3829 1.09335V5.4761C56.348 5.4761 56.2767 5.4761 56.176 5.4761C56.0642 5.44115 55.9631 5.44115 55.9223 5.44115C55.8518 5.44115 55.7812 5.44115 55.6799 5.4761C55.569 5.4761 55.498 5.4761 55.4326 5.4761V2.46994C55.0778 2.89521 54.6537 3.39119 54.1935 3.95768C53.7383 4.51949 53.3494 5.05164 53.0306 5.4763C52.9953 5.4763 52.9592 5.4763 52.9247 5.4763C52.8893 5.4763 52.854 5.4763 52.8181 5.4763C52.7828 5.4763 52.7125 5.4763 52.6768 5.4763C52.6415 5.4761 52.5706 5.4761 52.5353 5.4761ZM52.8895 0.349076L53.1376 4.84436e-08C53.3496 0.211924 53.5619 0.349074 53.7732 0.455544C54.016 0.561811 54.229 0.59676 54.4761 0.59676C54.9724 0.59676 55.4328 0.419785 55.852 4.84436e-08L56.0997 0.313313C55.852 0.561608 55.6096 0.738584 55.326 0.844851C55.0426 0.951117 54.7597 1.02244 54.4409 1.02244C54.1575 1.02244 53.8745 0.951117 53.6324 0.844851C53.3494 0.738584 53.1017 0.56161 52.8895 0.349076Z" fill="var(--fill-0, #F4F3F1)"/>
<path id="Vector_43" d="M61.1518 1.55357V5.4761C61.1158 5.4761 61.0101 5.4761 60.9035 5.4761C60.7624 5.44115 60.6907 5.44115 60.6907 5.44115C60.6201 5.44115 60.5488 5.44115 60.4433 5.4761C60.3367 5.4761 60.2664 5.4761 60.1952 5.4761V1.55357C59.9828 1.55357 59.7709 1.55357 59.6333 1.58852C59.4564 1.58852 59.2445 1.62489 59.0315 1.66004C59.0315 1.58852 59.0315 1.55377 59.0315 1.48306C59.0677 1.44811 59.0677 1.41175 59.0677 1.3768C59.0677 1.30609 59.0677 1.27053 59.0315 1.23477C59.0315 1.16467 59.0315 1.12911 59.0315 1.09355H62.3138C62.2784 1.19982 62.2784 1.27053 62.2784 1.3768C62.2784 1.41175 62.2784 1.44811 62.2784 1.51882C62.2784 1.55377 62.3138 1.62509 62.3138 1.66024C61.9953 1.62529 61.8184 1.58872 61.747 1.58872C61.5356 1.55357 61.3586 1.55357 61.1518 1.55357Z" fill="var(--fill-0, #F4F3F1)"/>
<path id="Vector_44" d="M62.7389 1.09335H65.1766C65.1364 1.16467 65.1364 1.19962 65.1364 1.27033C65.1364 1.30588 65.1364 1.34164 65.1364 1.37659C65.1364 1.41154 65.1364 1.44791 65.1364 1.51862C65.1364 1.58852 65.1364 1.62489 65.1766 1.66004C64.9242 1.62509 64.7162 1.58852 64.4687 1.58852C64.2563 1.58852 63.9732 1.55357 63.69 1.55357V2.92996H64.3625C64.4683 2.92996 64.5749 2.92996 64.6808 2.92996C64.7872 2.92996 64.9236 2.89501 65.136 2.89501C65.136 2.89501 65.136 2.96572 65.1063 3.00107C65.1063 3.07178 65.1063 3.1431 65.1063 3.1431C65.1063 3.17805 65.1063 3.213 65.1063 3.28432C65.136 3.35503 65.136 3.39059 65.136 3.42614C64.893 3.39059 64.6096 3.39058 64.3621 3.39058H63.6895V4.97971C63.9727 4.97971 64.2559 4.97971 64.4683 4.97971C64.7162 4.94476 64.9236 4.94476 65.1762 4.909C65.136 4.94476 65.136 5.01547 65.136 5.05103C65.136 5.08598 65.136 5.15689 65.136 5.19306C65.136 5.19306 65.136 5.26377 65.136 5.29871C65.136 5.36922 65.136 5.40498 65.1762 5.44054H62.7385L62.7389 1.09335Z" fill="var(--fill-0, #F4F3F1)"/>
<path id="Vector_45" d="M68.9539 1.16446L68.3524 2.04995L67.609 3.10754L67.6801 3.24957C67.892 3.60332 68.1045 3.99364 68.3177 4.37767C68.5296 4.73162 68.7422 5.12194 68.9543 5.54721C68.8841 5.54721 68.7775 5.54721 68.636 5.54721C68.4947 5.51064 68.388 5.51064 68.388 5.51064C68.3177 5.51064 68.2111 5.51064 68.0696 5.54721C67.9281 5.54721 67.8571 5.54721 67.8571 5.54721C67.7158 5.26377 67.5392 4.94497 67.3264 4.51888C67.2257 4.34191 67.1141 4.12937 67.0126 3.92212L66.4111 4.83768C66.3755 4.94476 66.2694 5.05103 66.1989 5.19306C66.1275 5.33346 66.057 5.44054 66.0217 5.54701L65.7036 5.51044L65.3903 5.54701C65.5623 5.29871 65.7389 5.05103 65.8453 4.87345C66.0925 4.51888 66.2342 4.30696 66.3055 4.20049C66.4468 4.02758 66.5889 3.78009 66.7647 3.5318L65.4608 1.16406C65.5312 1.16406 65.6025 1.16406 65.7389 1.19901C65.8453 1.19901 65.951 1.19901 66.0221 1.19901C66.093 1.19901 66.164 1.19901 66.3055 1.19901C66.4113 1.16406 66.5178 1.16406 66.5889 1.16406C66.6947 1.41113 66.8719 1.72994 67.0842 2.12026C67.1849 2.32812 67.256 2.50509 67.3666 2.71702C67.6809 2.19158 67.9994 1.69499 68.3532 1.16406L68.6364 1.19901L68.9539 1.16446Z" fill="var(--fill-0, #F4F3F1)"/>
<path id="Vector_46" d="M69.4803 5.54742V1.16446C69.5159 1.16446 69.5861 1.16447 69.6923 1.19941C69.7986 1.19941 69.9042 1.19941 69.9408 1.19941C70.011 1.19941 70.0821 1.19941 70.1882 1.19941C70.2942 1.16447 70.3659 1.16446 70.4365 1.16446V2.89501C70.578 2.89501 70.7497 2.89501 70.9617 2.92996C71.21 2.92996 71.3513 2.92996 71.3872 2.92996C71.5634 2.92996 71.6704 2.92996 71.7768 2.92996C72.13 2.89501 72.3423 2.89501 72.3785 2.89501V1.16446C72.4138 1.16446 72.5149 1.16447 72.6255 1.19941C72.727 1.19941 72.7985 1.19941 72.8387 1.19941C72.9043 1.19941 72.9751 1.19941 73.0809 1.19941C73.1868 1.16447 73.2936 1.16446 73.329 1.16446V5.54742C73.2936 5.54742 73.1873 5.54742 73.0809 5.54742C72.9751 5.51084 72.9043 5.51084 72.8387 5.51084C72.7985 5.51084 72.727 5.51084 72.6255 5.54742C72.5149 5.54742 72.4491 5.54742 72.3785 5.54742V3.42655C72.2719 3.42655 72.0591 3.39099 71.8119 3.39099C71.5634 3.39099 71.4233 3.39099 71.3872 3.39099C71.2453 3.39099 71.0685 3.39099 70.8914 3.39099C70.7197 3.39099 70.5423 3.39099 70.4369 3.42655V5.54742C70.3663 5.54742 70.295 5.54742 70.1886 5.54742C70.0829 5.51084 70.0114 5.51084 69.9412 5.51084C69.9046 5.51084 69.8346 5.51084 69.728 5.54742C69.6214 5.54742 69.5157 5.54742 69.4803 5.54742Z" fill="var(--fill-0, #F4F3F1)"/>
<path id="Vector_47" d="M74.2486 5.54742V1.16446C74.2837 1.16446 74.3552 1.16447 74.4607 1.19941C74.5669 1.19941 74.6333 1.19941 74.7037 1.19941C74.7441 1.19941 74.845 1.19941 74.9518 1.19941C75.0584 1.16447 75.1286 1.16446 75.1995 1.16446V4.16534C75.5535 3.7805 75.9778 3.28472 76.4388 2.68248C76.8927 2.08511 77.2827 1.58852 77.6014 1.16446C77.6727 1.16446 77.7429 1.16446 77.7783 1.16446C77.814 1.16446 77.8495 1.16446 77.9198 1.16446C77.991 1.16446 78.0613 1.16446 78.0974 1.16446V5.54742C78.0257 5.54742 77.9559 5.54742 77.8491 5.54742C77.7429 5.51084 77.6723 5.51084 77.601 5.51084C77.5655 5.51084 77.4951 5.51084 77.3887 5.54742C77.2827 5.54742 77.1759 5.54742 77.1406 5.54742V2.5053C76.7517 2.92976 76.3666 3.4615 75.8718 4.02798C75.4112 4.5904 75.0218 5.12194 74.7033 5.54742C74.6733 5.54742 74.6325 5.54742 74.6018 5.54742C74.5663 5.54742 74.5314 5.54742 74.5314 5.54742C74.4599 5.54742 74.425 5.54742 74.3897 5.54742C74.3192 5.54742 74.2835 5.54742 74.2486 5.54742Z" fill="var(--fill-0, #F4F3F1)"/>
<path id="Vector_48" d="M78.7994 2.82451V1.16467C78.8711 1.16467 78.9411 1.16467 79.0479 1.19962C79.1545 1.19962 79.2247 1.19962 79.2962 1.19962C79.3317 1.19962 79.4019 1.19962 79.5081 1.19962C79.6139 1.16467 79.7204 1.16467 79.7558 1.16467V2.82451C79.7558 3.00148 79.8615 3.14351 80.0038 3.21341C80.1453 3.28473 80.3171 3.32028 80.4945 3.32028C80.6717 3.32028 80.8124 3.28473 80.9903 3.21341C81.1671 3.14351 81.3439 3.03643 81.556 2.89521V1.16467C81.592 1.16467 81.6618 1.16467 81.7686 1.19962C81.875 1.19962 81.9403 1.19962 82.0106 1.19962C82.0514 1.19962 82.1521 1.19962 82.2639 1.19962C82.3654 1.16467 82.4359 1.16467 82.5067 1.16467V5.54762C82.4355 5.54762 82.3654 5.54762 82.2639 5.54762C82.1521 5.51105 82.082 5.51105 82.0106 5.51105C81.9809 5.51105 81.875 5.51105 81.7686 5.54762C81.6622 5.54762 81.592 5.54762 81.556 5.54762V3.42675C81.2726 3.56878 81.0605 3.67444 80.8835 3.74576C80.6354 3.81647 80.3885 3.88697 80.1098 3.88697C79.7915 3.88697 79.4724 3.78071 79.2249 3.60353C78.9411 3.39099 78.7994 3.14331 78.7994 2.82451Z" fill="var(--fill-0, #F4F3F1)"/>
<path id="Vector_49" d="M83.3202 1.16446H85.7526C85.7526 1.23456 85.7526 1.27033 85.7526 1.30588C85.7226 1.37659 85.7226 1.41154 85.7226 1.44791C85.7226 1.48286 85.7226 1.51862 85.7526 1.58852C85.7526 1.62489 85.7526 1.69539 85.7526 1.73055C85.5453 1.6956 85.3324 1.66004 85.0853 1.66004C84.8726 1.62509 84.5902 1.62509 84.2705 1.62509V3.00168H84.9432C85.0849 3.00168 85.1909 3.00168 85.2967 3.00168C85.4032 3.00168 85.5453 2.96592 85.7222 2.96592C85.7222 2.96592 85.7222 3.00168 85.7222 3.07219C85.7222 3.14351 85.7222 3.17846 85.7222 3.21341C85.7222 3.24978 85.7222 3.28472 85.7222 3.35543C85.7222 3.42675 85.7222 3.4617 85.7222 3.49746C85.4739 3.4617 85.2268 3.42675 84.9432 3.42675H84.2705V5.05164C84.5898 5.05164 84.8726 5.05164 85.0853 5.05164C85.3324 5.01608 85.5459 4.98032 85.7526 4.98032C85.7526 5.01608 85.7526 5.05164 85.7526 5.12235C85.7226 5.1573 85.7226 5.19367 85.7226 5.22862C85.7226 5.26438 85.7226 5.29933 85.7526 5.36983C85.7526 5.44115 85.7526 5.4761 85.7526 5.51105H83.3202V1.16446Z" fill="var(--fill-0, #F4F3F1)"/>
<path id="Vector_50" d="M89.7119 4.76758L89.7833 4.80314L89.642 5.36963C89.4652 5.44095 89.2525 5.51084 89.0399 5.58216C88.827 5.61792 88.6148 5.61792 88.4031 5.61792C87.6996 5.61792 87.1331 5.44095 86.673 5.05124C86.2183 4.66091 86.0064 4.12958 86.0064 3.49706C86.0064 2.68227 86.2484 2.0847 86.7445 1.65963C87.2049 1.23436 87.8064 1.05739 88.5438 1.05739C88.7571 1.05739 88.9693 1.09315 89.2165 1.12891C89.4291 1.19941 89.642 1.27012 89.8542 1.37639L89.6723 2.01358H89.6016C89.4652 1.87237 89.3233 1.73034 89.1465 1.58832C88.9339 1.48266 88.7571 1.44771 88.5438 1.44771C88.0486 1.44771 87.6647 1.65963 87.4169 2.04995C87.1692 2.43398 87.063 2.85925 87.063 3.39099C87.063 3.95748 87.2045 4.41282 87.4518 4.73182C87.7001 5.08639 88.0844 5.26417 88.5803 5.26417C88.7571 5.26417 88.9693 5.19347 89.182 5.12215C89.3935 5.01588 89.5702 4.90941 89.7119 4.76758Z" fill="var(--fill-0, #F4F3F1)"/>
<path id="Vector_51" d="M90.4151 5.54742V1.16446C90.4855 1.16446 90.5568 1.16447 90.6632 1.19941C90.7689 1.19941 90.8759 1.19941 90.9108 1.19941C90.947 1.19941 91.0527 1.19941 91.1589 1.19941C91.2647 1.16447 91.3357 1.16446 91.3712 1.16446V3.17825C91.9324 2.54045 92.4994 1.87237 93.0298 1.16446C93.1015 1.16446 93.1364 1.19941 93.2066 1.19941C93.313 1.19941 93.3485 1.19941 93.3843 1.19941C93.4547 1.19941 93.4848 1.19941 93.556 1.19941C93.5915 1.19941 93.6681 1.16446 93.7328 1.16446V1.23456C93.4848 1.44791 93.2781 1.65983 93.0298 1.90813C92.8883 2.05016 92.7115 2.26269 92.4632 2.54045C92.2864 2.71742 92.1808 2.85945 92.0743 3.00148L93.839 5.4761V5.54762L93.313 5.51105L92.7824 5.54762L91.3712 3.53241V5.54762C91.3357 5.54762 91.2649 5.54762 91.1589 5.54762C91.0531 5.51105 90.9823 5.51105 90.9108 5.51105C90.8759 5.51105 90.7693 5.51105 90.6634 5.54762C90.557 5.54742 90.4853 5.54742 90.4151 5.54742Z" fill="var(--fill-0, #F4F3F1)"/>
<path id="Vector_52" d="M94.1216 5.54742V1.16446C94.1928 1.16446 94.2631 1.16447 94.3695 1.19941C94.476 1.19941 94.5463 1.19941 94.6177 1.19941C94.6531 1.19941 94.7241 1.19941 94.8299 1.19941C94.9363 1.16447 95.0426 1.16446 95.0784 1.16446V4.16534C95.4318 3.7805 95.8167 3.28472 96.3118 2.68248C96.7721 2.08511 97.1563 1.58852 97.4749 1.16446C97.5453 1.16446 97.5806 1.16446 97.6156 1.16446C97.6517 1.16446 97.7221 1.16446 97.7934 1.16446C97.8638 1.16446 97.9349 1.16446 97.9349 1.16446V5.54742C97.8988 5.54742 97.8285 5.54742 97.7221 5.54742C97.6156 5.51084 97.51 5.51084 97.4745 5.51084C97.403 5.51084 97.3332 5.51084 97.2317 5.54742C97.1253 5.54742 97.0548 5.54742 96.9836 5.54742V2.5053C96.6297 2.92976 96.2047 3.4615 95.7444 4.02798C95.3248 4.5904 94.9359 5.12194 94.6169 5.54742C94.5816 5.54742 94.5455 5.54742 94.511 5.54742C94.4756 5.54742 94.4401 5.54742 94.4046 5.54742C94.3691 5.54742 94.3343 5.54742 94.2631 5.54742C94.2282 5.54742 94.1575 5.54742 94.1216 5.54742Z" fill="var(--fill-0, #F4F3F1)"/>
<path id="Vector_53" d="M98.8555 5.54742V1.16446C98.8908 1.16446 98.9964 1.16447 99.0975 1.19941C99.209 1.19941 99.2751 1.19941 99.3105 1.19941C99.3807 1.19941 99.4524 1.19941 99.5579 1.19941C99.6641 1.16447 99.7354 1.16446 99.8062 1.16446V4.16534C100.16 3.7805 100.585 3.28472 101.075 2.68248C101.535 2.12066 101.925 1.58852 102.244 1.16446C102.314 1.16446 102.349 1.16446 102.385 1.16446C102.42 1.16446 102.491 1.16446 102.562 1.16446C102.633 1.16446 102.668 1.16446 102.699 1.16446V5.54742C102.668 5.54742 102.598 5.54742 102.491 5.54742C102.385 5.51084 102.279 5.51084 102.244 5.51084C102.173 5.51084 102.102 5.51084 101.995 5.54742C101.889 5.54742 101.818 5.54742 101.748 5.54742V2.5053C101.393 2.92976 100.974 3.4615 100.514 4.02798C100.054 4.5904 99.629 5.12194 99.3105 5.54742C99.3105 5.54742 99.2751 5.54742 99.2388 5.54742C99.1684 5.54742 99.1684 5.54742 99.1375 5.54742C99.0975 5.54742 99.0269 5.54742 98.9964 5.54742C98.9562 5.54742 98.8906 5.54742 98.8555 5.54742ZM99.209 0.419784L99.4524 0.0713184C99.6641 0.283243 99.8769 0.419784 100.089 0.52666C100.301 0.632318 100.549 0.667874 100.792 0.667874C101.287 0.667874 101.748 0.455341 102.137 0.0711137L102.385 0.38443C102.173 0.596354 101.925 0.773938 101.641 0.915356C101.359 1.02223 101.045 1.09315 100.761 1.09315C100.478 1.09315 100.195 1.02244 99.9122 0.915356C99.6641 0.810105 99.4164 0.632318 99.209 0.419784Z" fill="var(--fill-0, #F4F3F1)"/>
<g id="Group_2">
<path id="Vector_54" d="M2.19268 95.6738H2.96005V97.5711L4.18723 95.6738H4.97165V98.6946H4.20449V96.763L2.96005 98.6946H2.19268V95.6738Z" fill="var(--fill-0, #F4F3F1)"/>
<path id="Vector_55" d="M5.81292 95.6738H6.80197L7.55188 97.7782L8.30828 95.6738H9.29389V98.6946H8.61483V96.7059L7.87892 98.6946H7.19662L6.49482 96.7059V98.6946H5.81292V95.6738Z" fill="var(--fill-0, #F4F3F1)"/>
<path id="Vector_56" d="M11.8433 97.7331L12.6395 97.8668C12.5365 98.1589 12.3751 98.381 12.1545 98.533C11.9338 98.6862 11.6577 98.7624 11.326 98.7624C10.8014 98.7624 10.4131 98.5909 10.1611 98.2481C9.96198 97.9728 9.86251 97.6258 9.86251 97.2068C9.86251 96.706 9.99325 96.3138 10.2549 96.0306C10.5164 95.7471 10.8471 95.6051 11.2466 95.6051C11.6957 95.6051 12.0501 95.7532 12.3094 96.0503C12.5688 96.3471 12.6932 96.8019 12.6819 97.4147H10.681C10.6865 97.6512 10.7511 97.8357 10.8743 97.9675C10.9971 98.0988 11.1508 98.1648 11.3349 98.1648C11.4596 98.1648 11.5649 98.1307 11.6502 98.0628C11.7357 97.995 11.7996 97.8846 11.8433 97.7331ZM11.8889 96.925C11.883 96.6936 11.8236 96.5174 11.7099 96.3975C11.5958 96.2764 11.4579 96.2169 11.2951 96.2169C11.1205 96.2169 10.9766 96.2801 10.8627 96.4075C10.749 96.5345 10.6936 96.7072 10.6954 96.925H11.8889Z" fill="var(--fill-0, #F4F3F1)"/>
<path id="Vector_57" d="M13.3015 95.6738H14.0999V96.7801H15.2424V95.6738H16.0435V98.6946H15.2424V97.4254H14.0999V98.6946H13.3015V95.6738Z" fill="var(--fill-0, #F4F3F1)"/>
<path id="Vector_58" d="M16.8277 95.6738H17.5951V97.5711L18.8231 95.6738H19.6071V98.6946H18.8401V96.763L17.5951 98.6946H16.8277V95.6738Z" fill="var(--fill-0, #F4F3F1)"/>
<path id="Vector_59" d="M22.0371 98.6946V94.5245H23.2957L24.0519 97.3692L24.7996 94.5245H26.0611V98.6946H25.2799V95.4119L24.4529 98.6946H23.6429L22.8187 95.4119V98.6946H22.0371Z" fill="var(--fill-0, #F4F3F1)"/>
<path id="Vector_60" d="M26.8908 98.6946V97.8948H27.6898V98.6946H26.8908Z" fill="var(--fill-0, #F4F3F1)"/>
<path id="Vector_61" d="M29.4513 98.6946V95.23H28.2152V94.5243H31.5263V95.23H30.2928V98.6946H29.4513Z" fill="var(--fill-0, #F4F3F1)"/>
<path id="Vector_62" d="M31.4067 98.6946V97.8948H32.2053V98.6946H31.4067Z" fill="var(--fill-0, #F4F3F1)"/>
<path id="Vector_63" d="M34.6605 94.5245H35.5018V96.2992C35.6893 96.2801 35.8166 96.2321 35.8828 96.1539C35.949 96.0765 36.0515 95.8603 36.1897 95.5059C36.3639 95.0542 36.5393 94.774 36.7153 94.6635C36.8895 94.554 37.1711 94.4991 37.5596 94.4991C37.5785 94.4991 37.6193 94.4983 37.6816 94.4959V95.1189L37.5625 95.116C37.3901 95.116 37.2641 95.1372 37.1845 95.1796C37.1045 95.2221 37.0401 95.2871 36.9912 95.3745C36.9421 95.4614 36.8688 95.6413 36.7724 95.9121C36.7214 96.0562 36.6658 96.176 36.6063 96.2732C36.5468 96.3693 36.4409 96.4605 36.289 96.5462C36.4766 96.5991 36.6317 96.7062 36.7537 96.8673C36.8763 97.0288 37.0107 97.2562 37.1561 97.5502L37.7245 98.6939H36.7356L36.2381 97.6156C36.2307 97.6006 36.2147 97.5707 36.1899 97.5266C36.1804 97.512 36.1453 97.4464 36.0846 97.3301C35.9768 97.1261 35.8879 96.9975 35.819 96.9463C35.7498 96.8955 35.6443 96.8685 35.5018 96.8665V98.6931H34.6605V94.5245Z" fill="var(--fill-0, #F4F3F1)"/>
<path id="Vector_64" d="M38.8607 96.5948L38.136 96.4638C38.2174 96.1724 38.3577 95.9554 38.5568 95.8158C38.7556 95.6758 39.0513 95.6051 39.4433 95.6051C39.7996 95.6051 40.0652 95.6471 40.2389 95.7321C40.4133 95.8166 40.5357 95.9233 40.607 96.0531C40.678 96.1838 40.7134 96.4217 40.7134 96.7685L40.7048 97.7016C40.7048 97.9671 40.7176 98.163 40.743 98.2894C40.7688 98.4148 40.8163 98.5501 40.8867 98.6949H40.0966C40.0755 98.6413 40.0501 98.5625 40.0199 98.458C40.0069 98.4109 39.9974 98.3798 39.9911 98.3648C39.8548 98.4972 39.7087 98.5966 39.5536 98.6633C39.3979 98.7299 39.2324 98.7628 39.0566 98.7628C38.7458 98.7628 38.501 98.6783 38.3219 98.5096C38.1427 98.341 38.0529 98.1274 38.0529 97.87C38.0529 97.6989 38.0942 97.5465 38.1756 97.4128C38.2564 97.2791 38.3709 97.1771 38.5178 97.1056C38.6646 97.0349 38.8761 96.9727 39.153 96.9199C39.5262 96.8496 39.7848 96.7842 39.9287 96.7238V96.644C39.9287 96.4904 39.8906 96.3804 39.8146 96.3154C39.7389 96.2496 39.5962 96.2175 39.3857 96.2175C39.2438 96.2175 39.1327 96.2449 39.0532 96.3012C38.9744 96.3571 38.91 96.4552 38.8607 96.5948ZM39.9293 97.2438C39.8268 97.2775 39.6648 97.3188 39.4431 97.3661C39.2215 97.4135 39.0765 97.4606 39.0079 97.5059C38.9042 97.5797 38.8514 97.6737 38.8514 97.7877C38.8514 97.8997 38.8932 97.996 38.9764 98.0779C39.0601 98.1596 39.166 98.2002 39.2947 98.2002C39.4385 98.2002 39.5761 98.1531 39.7068 98.0582C39.8035 97.9862 39.8668 97.8978 39.8973 97.7934C39.918 97.7255 39.9285 97.5949 39.9285 97.4037V97.2442H39.9293V97.2438Z" fill="var(--fill-0, #F4F3F1)"/>
<path id="Vector_65" d="M41.717 95.6738H44.3908V98.6946H43.5955V96.3217H42.5071V97.6786C42.5071 98.0234 42.4673 98.266 42.3878 98.4056C42.3082 98.545 42.2203 98.6362 42.1235 98.6803C42.0268 98.7232 41.8717 98.7449 41.6571 98.7449C41.5303 98.7449 41.3624 98.7279 41.1545 98.6946V98.1053C41.1713 98.1053 41.2158 98.1073 41.2877 98.1108C41.3713 98.1167 41.4355 98.1195 41.4811 98.1195C41.5887 98.1195 41.6553 98.0838 41.6799 98.0129C41.7046 97.9421 41.717 97.7447 41.717 97.42V95.6738Z" fill="var(--fill-0, #F4F3F1)"/>
<path id="Vector_66" d="M45.7946 96.5948L45.0701 96.4638C45.1513 96.1724 45.2918 95.9554 45.4905 95.8158C45.6897 95.6758 45.9853 95.6051 46.3773 95.6051C46.7333 95.6051 46.9987 95.6471 47.1729 95.7321C47.3468 95.8166 47.4699 95.9233 47.5409 96.0531C47.6124 96.1838 47.6473 96.4217 47.6473 96.7685L47.6388 97.7016C47.6388 97.9671 47.6515 98.163 47.6771 98.2894C47.7027 98.4148 47.7502 98.5501 47.8207 98.6949H47.0303C47.0094 98.6413 46.9841 98.5625 46.9536 98.458C46.9406 98.4109 46.9313 98.3798 46.9252 98.3648C46.7888 98.4972 46.6426 98.5966 46.4875 98.6633C46.3324 98.7299 46.1661 98.7628 45.9903 98.7628C45.6795 98.7628 45.4349 98.6783 45.2561 98.5096C45.0766 98.341 44.9873 98.1274 44.9873 97.87C44.9873 97.6989 45.0281 97.5465 45.1093 97.4128C45.1911 97.2791 45.305 97.1771 45.452 97.1056C45.5991 97.0349 45.8105 96.9727 46.0872 96.9199C46.4603 96.8496 46.7191 96.7842 46.8629 96.7238V96.644C46.8629 96.4904 46.8247 96.3804 46.749 96.3154C46.673 96.2496 46.5303 96.2175 46.32 96.2175C46.1779 96.2175 46.0671 96.2449 45.9873 96.3012C45.9085 96.3571 45.8442 96.4552 45.7946 96.5948ZM46.8635 97.2438C46.7612 97.2775 46.5987 97.3188 46.3773 97.3661C46.1556 97.4132 46.0106 97.4606 45.9424 97.5059C45.8377 97.5797 45.7859 97.6737 45.7859 97.7877C45.7859 97.8997 45.8277 97.996 45.9114 98.0779C45.9946 98.1596 46.1006 98.2002 46.2293 98.2002C46.3732 98.2002 46.5108 98.1531 46.6414 98.0582C46.7382 97.9862 46.8014 97.8978 46.8318 97.7934C46.8529 97.7255 46.8631 97.5949 46.8631 97.4037V97.2438H46.8635Z" fill="var(--fill-0, #F4F3F1)"/>
<path id="Vector_67" d="M48.4149 95.6738H49.1481V98.0486H50.0744V95.6738H50.8103V98.0486H51.734V95.6738H52.4701V98.6946H48.4147L48.4149 95.6738Z" fill="var(--fill-0, #F4F3F1)"/>
<path id="Vector_68" d="M53.2548 95.6738H54.0532V96.7801H55.1959V95.6738H55.997V98.6946H55.1959V97.4254H54.0532V98.6946H53.2548V95.6738Z" fill="var(--fill-0, #F4F3F1)"/>
<path id="Vector_69" d="M56.7812 95.6738H57.5488V97.5711L58.7764 95.6738H59.5604V98.6946H58.7934V96.763L57.5488 98.6946H56.7812V95.6738Z" fill="var(--fill-0, #F4F3F1)"/>
<path id="Vector_70" d="M60.3476 95.6738H61.1436V96.9075C61.276 96.8925 61.37 96.8525 61.425 96.7856C61.4798 96.719 61.5464 96.5741 61.6237 96.3496C61.7263 96.0519 61.8379 95.8623 61.9589 95.7784C62.0799 95.6945 62.2391 95.6534 62.4368 95.6534C62.4971 95.6534 62.6018 95.6577 62.7521 95.6673L62.7549 96.1966C62.5444 96.1966 62.4104 96.2165 62.3513 96.2561C62.2927 96.2973 62.2291 96.4219 62.1609 96.6287C62.0681 96.9069 61.9345 97.0784 61.7604 97.143C62.0119 97.2137 62.2255 97.4324 62.3994 97.8005C62.4088 97.8192 62.4191 97.8387 62.4305 97.8605L62.8765 98.6939H62.018L61.6205 97.8204C61.5389 97.6443 61.468 97.5303 61.4086 97.4803C61.3489 97.4303 61.2602 97.4049 61.1428 97.4049V98.6939H60.3468V95.6736H60.3476V95.6738Z" fill="var(--fill-0, #F4F3F1)"/>
<path id="Vector_71" d="M63.0306 97.141C63.0306 96.8754 63.0957 96.6192 63.2267 96.3699C63.3576 96.1218 63.5426 95.9326 63.7823 95.8016C64.0221 95.6703 64.2892 95.6051 64.5844 95.6051C65.0418 95.6051 65.4157 95.7532 65.7072 96.0503C65.9992 96.3471 66.1449 96.7218 66.1449 97.1749C66.1449 97.6317 65.9971 98.011 65.7028 98.3115C65.4082 98.6121 65.0379 98.7624 64.5903 98.7624C64.314 98.7624 64.0499 98.6996 63.7992 98.5743C63.5485 98.4497 63.3572 98.2654 63.2267 98.0242C63.0957 97.7831 63.0306 97.4882 63.0306 97.141ZM63.8489 97.1843C63.8489 97.484 63.9202 97.713 64.0621 97.8725C64.204 98.0311 64.3794 98.111 64.5879 98.111C64.7963 98.111 64.9709 98.0311 65.112 97.8725C65.2531 97.713 65.324 97.4819 65.324 97.178C65.324 96.8827 65.2531 96.655 65.112 96.4959C64.9709 96.3372 64.7961 96.2569 64.5879 96.2569C64.3798 96.2569 64.204 96.3372 64.0621 96.4959C63.9202 96.6547 63.8489 96.8846 63.8489 97.1843Z" fill="var(--fill-0, #F4F3F1)"/>
<path id="Vector_72" d="M66.7789 95.6738H68.5264C68.8847 95.6738 69.1523 95.7388 69.3311 95.8702C69.509 96.0005 69.5977 96.1976 69.5977 96.4611C69.5977 96.6302 69.549 96.7775 69.4513 96.9024C69.3541 97.0278 69.2308 97.1107 69.0832 97.1524C69.2913 97.204 69.4472 97.2993 69.5492 97.4397C69.6519 97.5797 69.703 97.7333 69.703 97.9009C69.703 98.1354 69.6166 98.3268 69.4444 98.4735C69.2723 98.6202 69.0173 98.6946 68.6803 98.6946H66.7787L66.7789 95.6738ZM67.5834 96.9278H68.0977C68.3457 96.9278 68.5248 96.897 68.6354 96.8342C68.7465 96.771 68.8021 96.673 68.8021 96.5381C68.8021 96.4111 68.7503 96.3207 68.6472 96.2663C68.5439 96.2126 68.3605 96.1854 68.0972 96.1854H67.583L67.5834 96.9278ZM67.5834 98.1823H68.2142C68.4413 98.1823 68.6076 98.1549 68.7111 98.0998C68.8153 98.045 68.8677 97.9462 68.8677 97.8042C68.8677 97.6561 68.8076 97.5543 68.6886 97.4986C68.5686 97.4423 68.337 97.4149 67.9919 97.4149H67.5828L67.5834 98.1823Z" fill="var(--fill-0, #F4F3F1)"/>
<path id="Vector_73" d="M70.8683 96.5948L70.1438 96.4638C70.2248 96.1724 70.3656 95.9554 70.564 95.8158C70.7629 95.6758 71.0587 95.6051 71.4507 95.6051C71.807 95.6051 72.0725 95.6471 72.2463 95.7321C72.4207 95.8166 72.5433 95.9233 72.6146 96.0531C72.6856 96.1838 72.7205 96.4217 72.7205 96.7685L72.7122 97.7016C72.7122 97.9671 72.725 98.163 72.7506 98.2894C72.776 98.4148 72.8239 98.5501 72.8937 98.6949H72.1034C72.0827 98.6413 72.0571 98.5625 72.0271 98.458C72.0139 98.4109 72.0047 98.3798 71.9984 98.3648C71.862 98.4972 71.7161 98.5966 71.5605 98.6633C71.4052 98.7299 71.2396 98.7628 71.0634 98.7628C70.753 98.7628 70.508 98.6783 70.3291 98.5096C70.1496 98.341 70.0603 98.1274 70.0603 97.87C70.0603 97.6989 70.1011 97.5465 70.1829 97.4128C70.2648 97.2791 70.3786 97.1771 70.5254 97.1056C70.6726 97.0349 70.8843 96.9727 71.1606 96.9199C71.5338 96.8496 71.7926 96.7842 71.9365 96.7238V96.644C71.9365 96.4904 71.8986 96.3804 71.8224 96.3154C71.7467 96.2496 71.6038 96.2175 71.3935 96.2175C71.2514 96.2175 71.1405 96.2449 71.0612 96.3012C70.982 96.3571 70.9174 96.4552 70.8683 96.5948ZM71.9369 97.2438C71.8342 97.2775 71.6724 97.3188 71.4507 97.3661C71.2288 97.4132 71.0841 97.4606 71.0159 97.5059C70.9113 97.5797 70.8594 97.6737 70.8594 97.7877C70.8594 97.8997 70.9006 97.996 70.9842 98.0779C71.0674 98.1596 71.1734 98.2002 71.3025 98.2002C71.4465 98.2002 71.5839 98.1531 71.7142 98.0582C71.8111 97.9862 71.8744 97.8978 71.9046 97.7934C71.9258 97.7255 71.9359 97.5949 71.9359 97.4037V97.2442H71.9369V97.2438Z" fill="var(--fill-0, #F4F3F1)"/>
</g>
</g>
</svg>
